<?xml version="1.0" encoding="utf-8"?>
<!-- Generator: Adobe Illustrator 21.0.0, SVG Export Plug-In . SVG Version: 6.00 Build 0)  -->
<svg version="1.1" id="Layer_1" xmlns="http://www.w3.org/2000/svg" xmlns:xlink="http://www.w3.org/1999/xlink" x="0px" y="0px"
	 viewBox="0 0 228.8 368.8" style="enable-background:new 0 0 228.8 368.8;" xml:space="preserve">
<style type="text/css">
	.st0{fill:#5BCEC9;}
	.st1{fill:#1F1F1F;}
</style>
<ellipse transform="matrix(0.1092 -0.994 0.994 0.1092 -149.7272 339.513)" class="st0" cx="114.6" cy="253.3" rx="77.6" ry="77.6"/>
<g>
	<path class="st1" d="M10.1,139.5c4.9,0,8.2,3.3,9.5,10.1v40.3h0.5c1.1-4.6,9.8-13.9,26.1-27.8c21.2-15,44.1-22.6,68.1-22.6
		c21.2,0,41.1,5.7,59.4,17.2c1.6,2.2,2.5,4.6,2.5,7.1c-1.6,6-4.4,9-8.2,9h-3.3c-18-8.7-33.2-13.1-45.8-13.1l-4.6-0.5
		c-31.3,0-57.5,13.9-78.2,41.4c-11.2,16.3-16.6,34-16.6,53.4v104.9c-1.4,6.8-4.6,10.1-9.5,10.1c-6.8-1.6-10.1-4.6-10.1-9V148.2
		C0,143.5,3.3,140.5,10.1,139.5z"/>
</g>
<g>
	<path class="st1" d="M219.3,0h-1.1c-4.9,0-7.9,3.3-9,10.1V252v4.1c0,17.7-5.4,34.9-16.6,52.3c-21.8,27-46.3,40.3-73.5,40.3h-7.6
		l-0.5,0.5v-0.5c-18,0-35.7-6-52.8-18.2c-25.6-20.4-38.4-45.8-38.4-76c0-17.7,4.9-34.9,14.7-51.5c21.2-29.1,47.9-43.9,80.1-43.9
		l-3-19.6l-1.9,0.5v-0.5c-12.5,1.4-19.9,2.5-21.2,3.5c-13.1,2.2-26.7,8.2-40.9,18.2C15.8,186,0,216.8,0,253.8
		c0,22.1,6,42.5,17.7,61.6c25.3,35.7,57.5,53.4,96.7,53.4c25.9,0,49.8-8.4,71.6-25.6c28.3-25.1,42.8-53.7,42.8-85.2V8.2
		C228.8,3.8,225.5,1.1,219.3,0z"/>
</g>
</svg>
