<?xml version="1.0" encoding="utf-8"?>
<!-- Generator: Adobe Illustrator 21.0.0, SVG Export Plug-In . SVG Version: 6.00 Build 0)  -->
<svg version="1.1" id="Layer_1" xmlns="http://www.w3.org/2000/svg" xmlns:xlink="http://www.w3.org/1999/xlink" x="0px" y="0px"
	 viewBox="0 0 489.7 489.7" style="enable-background:new 0 0 489.7 489.7;" xml:space="preserve">
<style type="text/css">
	.st0{fill:#5BCEC9;}
	.st1{fill:#231F20;}
</style>
<path id="XMLID_142_" class="st0" d="M203.3,158.7l20.7-17.3c65.3-44.7,116.1,25.3,120.7,44.1c3.7,15.2-3.6,30.6,0,37.9l-30,46.7
	l-19,27.8c8,16.4,8.7,43.4-7.7,51.5h-14.6c-15.4,4.3-29.4,5.2-37.4-11.3l-14-54l-28-43.2C186,224.3,186.9,166.7,203.3,158.7z"/>
<path d="M265.9,0c-28.8,0-56.6,6.2-82.5,18.5C115.7,50,71.8,118.6,71.8,193.4v28.3l-36.5,69.6c-6,11.5-6.4,23.2-1,32.1
	s15.9,14,28.9,14h8.6v59c0,26.3,21.4,47.7,47.7,47.7c0.4,0,0.9,0,1.3-0.1l42.7-6.4l0.1,43c0,5,4.1,9.1,9.1,9.1h217.6
	c5,0,9.1-4.1,9.1-9.1v-148c38-36.3,59.7-87,59.7-139.6C459,86.6,372.4,0,265.9,0z M384.2,322.1c-1.9,1.7-2.9,4.1-2.9,6.7v142.9
	H181.8l-0.1-44.5c0-2.6-1.2-5.1-3.1-6.9c-2-1.7-4.6-2.5-7.2-2.1L119,426c-16-0.3-29-13.5-29-29.6v-68.1c0-5-4.1-9.1-9.1-9.1H63.3
	c-6.5,0-11.4-1.9-13.4-5.3s-1.5-8.6,1.5-14.3L88.9,228c0.7-1.3,1-2.7,1-4.2v-30.6c0-67.7,39.7-129.9,101.2-158.5
	c23.5-11.1,48.6-16.8,74.8-16.8c96.5,0,175,78.5,175,175C440.9,242,420.2,289,384.2,322.1z"/>
<path class="st1" d="M326.8,142.2c-17.4-16.8-40.3-25.4-64.6-24.5c-46.5,1.8-84.4,41.2-84.5,87.7c-0.1,20.6,7.2,40.7,20.4,56.5
	c19.1,22.9,29.6,51.8,29.6,81.4c0,0-2,13.6,7.7,13.6h60.9c9.9,0,7.7-13.6,7.7-13.6c0-29,10.6-57.6,30.8-82.9
	c12.5-15.7,19.1-34.7,19.1-54.7C353.8,181.5,344.2,158.9,326.8,142.2L326.8,142.2z M322.6,250.8c-21.9,27.5-33.7,58.8-34.1,90.7H243
	c-0.4-32.6-12.1-64.3-33.1-89.5c-10.9-13.1-16.8-29.6-16.8-46.6c0.1-38.4,31.4-70.9,69.7-72.4c20-0.7,38.9,6.4,53.3,20.2
	s22.3,32.4,22.3,52.4C338.4,222.3,333,237.8,322.6,250.8z"/>
<path class="st1" d="M367.1,91.7c-3-3-7.9-3-10.9,0l-18.8,18.8c-3,3-3,7.9,0,10.9s7.9,3,10.9,0l18.8-18.8
	C370.1,99.6,370.1,94.7,367.1,91.7z"/>
<path class="st1" d="M296.5,367.4H235c-4.3,0-7.7,3.5-7.7,7.7c0,4.3,3.5,7.7,7.7,7.7h61.5c4.3,0,7.7-3.5,7.7-7.7
	C304.2,370.8,300.7,367.4,296.5,367.4z"/>
<path class="st1" d="M284.9,396.3h-38.2c-4.3,0-7.7,3.5-7.7,7.7c0,4.3,3.5,7.7,7.7,7.7h38.2c4.3,0,7.7-3.5,7.7-7.7
	S289.1,396.3,284.9,396.3z"/>
<path class="st1" d="M265.7,91.6c4.3,0,7.7-3.5,7.7-7.7V57.4c0-4.3-3.5-7.7-7.7-7.7s-7.7,3.5-7.7,7.7v26.5
	C258.1,88.2,261.5,91.6,265.7,91.6z"/>
<path class="st1" d="M194,121.4c3-3,3-7.9,0-10.9l-18.8-18.8c-3-3-7.9-3-10.9,0s-3,7.9,0,10.9l18.8,18.8
	C186.2,124.4,191,124.4,194,121.4z"/>
<path class="st1" d="M401.4,185.4h-26.5c-4.3,0-7.7,3.5-7.7,7.7s3.5,7.7,7.7,7.7h26.5c4.3,0,7.7-3.5,7.7-7.7
	S405.6,185.4,401.4,185.4z"/>
<path class="st1" d="M156.6,185.4h-26.5c-4.3,0-7.7,3.5-7.7,7.7s3.5,7.7,7.7,7.7h26.5c4.3,0,7.7-3.5,7.7-7.7
	S160.9,185.4,156.6,185.4z"/>
</svg>
