<svg id="Layer_1" xmlns="http://www.w3.org/2000/svg" viewBox="0 0 489.7 489.7"><style>.st1{fill:#231f20}</style><path id="XMLID_142_" d="M203.3 158.7l20.7-17.3c65.3-44.7 116.1 25.3 120.7 44.1 3.7 15.2-3.6 30.6 0 37.9l-30 46.7-19 27.8c8 16.4 8.7 43.4-7.7 51.5h-14.6c-15.4 4.3-29.4 5.2-37.4-11.3l-14-54-28-43.2c-8-16.6-7.1-74.2 9.3-82.2z" fill="#5bcec9"/><path d="M265.9 0c-28.8 0-56.6 6.2-82.5 18.5C115.7 50 71.8 118.6 71.8 193.4v28.3l-36.5 69.6c-6 11.5-6.4 23.2-1 32.1s15.9 14 28.9 14h8.6v59c0 26.3 21.4 47.7 47.7 47.7.4 0 .9 0 1.3-.1l42.7-6.4.1 43c0 5 4.1 9.1 9.1 9.1h217.6c5 0 9.1-4.1 9.1-9.1v-148c38-36.3 59.7-87 59.7-139.6C459 86.6 372.4 0 265.9 0zm118.3 322.1c-1.9 1.7-2.9 4.1-2.9 6.7v142.9H181.8l-.1-44.5c0-2.6-1.2-5.1-3.1-6.9-2-1.7-4.6-2.5-7.2-2.1L119 426c-16-.3-29-13.5-29-29.6v-68.1c0-5-4.1-9.1-9.1-9.1H63.3c-6.5 0-11.4-1.9-13.4-5.3s-1.5-8.6 1.5-14.3L88.9 228c.7-1.3 1-2.7 1-4.2v-30.6c0-67.7 39.7-129.9 101.2-158.5 23.5-11.1 48.6-16.8 74.8-16.8 96.5 0 175 78.5 175 175 0 49.1-20.7 96.1-56.7 129.2z"/><path class="st1" d="M326.8 142.2c-17.4-16.8-40.3-25.4-64.6-24.5-46.5 1.8-84.4 41.2-84.5 87.7-.1 20.6 7.2 40.7 20.4 56.5 19.1 22.9 29.6 51.8 29.6 81.4 0 0-2 13.6 7.7 13.6h60.9c9.9 0 7.7-13.6 7.7-13.6 0-29 10.6-57.6 30.8-82.9 12.5-15.7 19.1-34.7 19.1-54.7-.1-24.2-9.7-46.8-27.1-63.5zm-4.2 108.6c-21.9 27.5-33.7 58.8-34.1 90.7H243c-.4-32.6-12.1-64.3-33.1-89.5-10.9-13.1-16.8-29.6-16.8-46.6.1-38.4 31.4-70.9 69.7-72.4 20-.7 38.9 6.4 53.3 20.2s22.3 32.4 22.3 52.4c0 16.7-5.4 32.2-15.8 45.2zM367.1 91.7c-3-3-7.9-3-10.9 0l-18.8 18.8c-3 3-3 7.9 0 10.9s7.9 3 10.9 0l18.8-18.8c3-3 3-7.9 0-10.9zM296.5 367.4H235c-4.3 0-7.7 3.5-7.7 7.7 0 4.3 3.5 7.7 7.7 7.7h61.5c4.3 0 7.7-3.5 7.7-7.7 0-4.3-3.5-7.7-7.7-7.7zM284.9 396.3h-38.2c-4.3 0-7.7 3.5-7.7 7.7 0 4.3 3.5 7.7 7.7 7.7h38.2c4.3 0 7.7-3.5 7.7-7.7s-3.5-7.7-7.7-7.7zM265.7 91.6c4.3 0 7.7-3.5 7.7-7.7V57.4c0-4.3-3.5-7.7-7.7-7.7s-7.7 3.5-7.7 7.7v26.5c.1 4.3 3.5 7.7 7.7 7.7zM194 121.4c3-3 3-7.9 0-10.9l-18.8-18.8c-3-3-7.9-3-10.9 0s-3 7.9 0 10.9l18.8 18.8c3.1 3 7.9 3 10.9 0zM401.4 185.4h-26.5c-4.3 0-7.7 3.5-7.7 7.7s3.5 7.7 7.7 7.7h26.5c4.3 0 7.7-3.5 7.7-7.7s-3.5-7.7-7.7-7.7zM156.6 185.4h-26.5c-4.3 0-7.7 3.5-7.7 7.7s3.5 7.7 7.7 7.7h26.5c4.3 0 7.7-3.5 7.7-7.7s-3.4-7.7-7.7-7.7z"/></svg>