<?xml version="1.0" encoding="utf-8"?>
<!-- Generator: Adobe Illustrator 21.0.0, SVG Export Plug-In . SVG Version: 6.00 Build 0)  -->
<svg version="1.1" id="Capa_1" xmlns="http://www.w3.org/2000/svg" xmlns:xlink="http://www.w3.org/1999/xlink" x="0px" y="0px"
	 viewBox="0 0 612 612" style="enable-background:new 0 0 612 612;" xml:space="preserve">
<style type="text/css">
	.st0{fill:#FFFFFF;}
	.st1{fill:#5BCEC9;stroke:#5BCEC9;stroke-width:0.25;stroke-miterlimit:10;}
</style>
<path d="M609.2,314.7l-148.9-149c-3.7-3.7-9.6-3.7-13.3,0l-141,141l-141-141c-3.7-3.7-9.6-3.7-13.3,0L2.8,314.7
	C1,316.4,0,318.8,0,321.3s1,4.9,2.8,6.7l118.3,118.3c1.8,1.8,4.2,2.8,6.7,2.8s4.9-1,6.6-2.8L276.6,304l16.1,16.1l-96.8,96.8
	c-3.7,3.7-3.7,9.6,0,13.3c1.8,1.8,4.2,2.8,6.6,2.8s4.8-0.9,6.6-2.8l96.8-96.8l96.8,96.8c1.8,1.8,4.2,2.8,6.6,2.8s4.8-0.9,6.6-2.8
	c3.7-3.7,3.7-9.6,0-13.3l-96.8-96.8l16.1-16.1l142.3,142.3c1.8,1.8,4.2,2.8,6.6,2.8c2.5,0,4.9-1,6.6-2.8L609.2,328
	c1.8-1.8,2.8-4.2,2.8-6.7S611,316.4,609.2,314.7z M233.5,320.5l-32.8-32.8l-37.5,37.5L196,358l-37.5,37.5l-32.8-32.8l-30.8,30.8
	l-39.4-39.4l30.8-30.8l39.4,39.4l37.5-37.5l-39.4-39.4l-37.5,37.5l-32.8-32.8L91,253l32.8,32.8l37.5-37.5l-32.8-32.8l29.8-29.8
	l32.8,32.8l-29.8,29.8l39.4,39.4l29.8-29.8l32.8,32.8L233.5,320.5z M556.5,354.1l-39.4,39.4l-30.8-30.8l-32.8,32.8L416,358
	l32.8-32.8l-37.5-37.5l-32.8,32.8l-29.8-29.8l32.8-32.8l29.8,29.8l39.4-39.4l-29.8-29.8l32.8-32.8l29.8,29.8l-32.8,32.8l37.5,37.5
	l-39.4,39.4l37.5,37.5l39.4-39.4l-37.5-37.5L521,253l37.5,37.5l-32.8,32.8L556.5,354.1z"/>
<rect x="46.7" y="232.1" transform="matrix(0.7071 -0.7071 0.7071 0.7071 -174.3877 190.3908)" class="st0" width="191.9" height="147.3"/>
<rect x="171.9" y="299.6" transform="matrix(0.7071 -0.7071 0.7071 0.7071 -170.1432 234.8515)" class="st1" width="53" height="46.4"/>
<rect x="104.8" y="371.5" transform="matrix(0.7071 -0.7071 0.7071 0.7071 -241.989 205.1491)" class="st1" width="43.7" height="46.4"/>
<rect x="32.7" y="299.3" transform="matrix(0.7071 -0.7071 0.7071 0.7071 -212.0396 132.9933)" class="st1" width="43.7" height="46.4"/>
<rect x="99.8" y="227.5" transform="matrix(0.7071 -0.7071 0.7071 0.7071 -140.2938 162.7371)" class="st1" width="53" height="46.4"/>
<rect x="98.4" y="296.8" transform="matrix(0.7071 -0.7071 0.7071 0.7071 -192.798 183.2917)" class="st1" width="53" height="55.2"/>
<rect x="174.9" y="225.1" transform="matrix(0.7071 -0.7071 0.7071 0.7071 -121.5693 212.6728)" class="st1" width="42.1" height="55.9"/>
<polygon class="st0" points="453.7,185.7 590.8,321.8 485.6,427 348.5,290.9 "/>
<rect x="429.6" y="335.1" transform="matrix(0.7071 -0.7071 0.7071 0.7071 -123.0794 426.0636)" class="st1" width="46.4" height="53"/>
<rect x="357.3" y="267.8" transform="matrix(0.7071 -0.7071 0.7071 0.7071 -93.4432 354.0741)" class="st1" width="46.7" height="44"/>
<rect x="429.9" y="195.9" transform="matrix(0.7071 -0.7071 0.7071 0.7071 -21.2445 384.1262)" class="st1" width="46.4" height="43.7"/>
<rect x="501.6" y="263" transform="matrix(0.7071 -0.7071 0.7071 0.7071 -50.9994 455.8988)" class="st1" width="46.4" height="53"/>
<rect x="423.5" y="261.5" transform="matrix(0.7071 -0.7071 0.7071 0.7071 -71.5572 403.3373)" class="st1" width="55.2" height="53"/>
<rect x="494.9" y="337.9" transform="matrix(0.7071 -0.7071 0.7071 0.7071 -100.9694 474.9613)" class="st1" width="55.9" height="43"/>
</svg>
