<svg xmlns="http://www.w3.org/2000/svg" viewBox="0 0 488.4 488.4"><path d="M105 290.5H58.4c-12.7 0-23.1-10.4-23.1-23v-46.7c0-12.7 10.4-23.1 23-23.1H105c12.7 0 23.1 10.4 23.1 23v46.7c0 12.7-10.4 23.1-23.1 23.1z" fill="#5bcec9"/><path d="M81.7 305.5c-33.8 0-61.3-27.5-61.4-61.3 0-16.3 6.4-31.7 18-43.3s27-18 43.3-18c33.8 0 61.3 27.5 61.4 61.3 0 16.3-6.4 31.7-18 43.3s-27 18-43.3 18zm0-104.5c-11.5 0-22.3 4.5-30.5 12.7s-12.7 19-12.7 30.5c0 23.8 19.4 43.2 43.2 43.2v9.1-9.1c11.5 0 22.3-4.5 30.5-12.7s12.7-19 12.7-30.5c0-23.8-19.4-43.2-43.2-43.2zM81.5 122.6s.1 0 0 0c16.4 0 31.8-6.4 43.4-18s18-27 18-43.3C142.9 27.5 115.4 0 81.5 0 65.2 0 49.8 6.4 38.2 18s-18 27-18 43.3c0 33.8 27.5 61.3 61.3 61.3zM51 30.8c8.2-8.2 19-12.7 30.5-12.7 23.8 0 43.2 19.4 43.2 43.2 0 11.5-4.5 22.3-12.7 30.5s-19 12.7-30.5 12.7v9.1-9.1c-23.8 0-43.2-19.4-43.2-43.2 0-11.5 4.5-22.3 12.7-30.5zM81.8 365.8c-16.3 0-31.7 6.4-43.3 18s-18 27-18 43.3c0 33.8 27.5 61.3 61.3 61.3s61.3-27.6 61.3-61.4c0-33.7-27.5-61.2-61.3-61.2zm.1 104.5v9.1-9.1c-23.8 0-43.2-19.4-43.2-43.2 0-11.5 4.5-22.3 12.7-30.5s19-12.7 30.5-12.7c23.8 0 43.2 19.4 43.2 43.2-.1 23.8-19.4 43.2-43.2 43.2zM468.2 57.7c0-5-4.1-9.1-9.1-9.1l-248.8.2c-5 0-9.1 4.1-9.1 9.1s4.1 9.1 9.1 9.1l248.8-.2c5-.1 9.1-4.1 9.1-9.1zM198 244.1c0 2.4 1 4.7 2.6 6.4 1.7 1.7 4 2.7 6.4 2.7s4.7-1 6.4-2.7 2.7-4 2.7-6.4-1-4.7-2.7-6.4-4-2.7-6.4-2.7-4.7 1-6.4 2.7c-1.6 1.7-2.6 4-2.6 6.4zM247.2 244.1c0-5-4-9.1-9.1-9.1-5 0-9.1 4.1-9 9.1 0 5 4 9.1 9.1 9.1 5-.1 9.1-4.1 9-9.1zM278.3 244c0-5-4-9-9.1-9-5 0-9.1 4.1-9.1 9.1s4.1 9.1 9.1 9.1c5.1-.1 9.2-4.1 9.1-9.2zM433.9 243.9c0-5-4.1-9.1-9.1-9.1s-9 4.1-9 9.1 4.1 9.1 9.1 9.1c4.9 0 9-4.1 9-9.1zM371.7 244c0-5-4.1-9.1-9.1-9.1s-9 4.1-9 9.1 4 9 9.1 9c4.9 0 9-4 9-9zM340.6 244c0-5-4.1-9.1-9.1-9.1s-9 4.1-9 9.1 4 9 9.1 9c4.9.1 9-4 9-9zM402.8 244c0-5-4.1-9.1-9.1-9.1s-9 4.1-9 9.1 4.1 9.1 9.1 9.1c4.9-.1 9-4.1 9-9.1zM309.5 244c0-5-4.1-9.1-9.1-9-5 0-9.1 4-9 9.1 0 5 4 9.1 9.1 9 4.9 0 9-4.1 9-9.1zM462.3 250.3c1.7-1.7 2.7-4 2.7-6.4s-1-4.7-2.7-6.4-4-2.7-6.4-2.7-4.7 1-6.4 2.7c-1.7 1.7-2.7 4-2.7 6.4s1 4.7 2.7 6.4 4 2.7 6.4 2.7 4.7-1 6.4-2.7zM198.2 427c0 5 4.1 9.1 9.1 9.1l248.8-.2c5 0 9.1-4.1 9.1-9.1s-4.1-9.1-9.1-9.1l-248.9.3c-5 0-9 4-9 9z"/></svg>