<svg id="Layer_1" xmlns="http://www.w3.org/2000/svg" viewBox="0 0 490.4 515.2"><style>.st1{fill:#1f1f1f}</style><path d="M490.4 420.4c0-.3 0-.6-.1-.9 0-.3-.1-.6-.2-.9s-.1-.6-.2-.8c-.1-.3-.2-.5-.4-.8-.1-.3-.2-.5-.4-.8-.1-.3-.3-.5-.5-.7s-.3-.5-.5-.7-.4-.4-.7-.6l-.6-.6c-.2-.2-.5-.3-.8-.5-.2-.1-.4-.3-.7-.4L375 358.3c-.3-.2-.6-.3-1-.4-1.9-.7-47.4-16.6-84.6.1l-82.1 29.7c-.2.1-.5.2-.7.3-11.8 5.4-18 17.5-15.5 30.2 2.5 12.6 12.7 21.5 25.5 22.1h.2c.8 0 4.4-.2 41.8-2.6 16.3-1 33.1-2.1 34.6-2.2 4.7-.2 8.6-4 8.7-8.8.1-5-3.8-9.2-8.9-9.3-.5 0-.5 0-35.5 2.2-17.5 1.1-37.1 2.4-40.4 2.6-6.3-.5-7.8-5.8-8.2-7.4-.7-3.4.3-7.9 5-10.2l82-29.7c.2-.1.4-.2.7-.3 28.8-13.1 66.4-1.3 70.9.1l49.1 24.2-27 63.7c-13.3-8.2-29.5-10.4-44.5-5.9l-110.2 33.1c-13.1 4-27.6 2.5-39.7-4.1L22.6 392.2c-6.2-3.4-4.2-9.3-3.7-10.5.6-1.6 3.2-6.6 9.5-4.9l134.1 44.7c4.7 1.6 9.9-1 11.5-5.7 1.6-4.8-1-9.9-5.7-11.5L33.9 359.4c-.2-.1-.3-.1-.5-.1-13.3-3.6-26.2 2.8-31.3 15.6-5.2 12.9-.3 26.5 11.9 33.2l172.7 93.8c16.3 8.9 35.8 10.9 53.5 5.5l110.2-33.1c10.1-3 21-1.6 29.9 4.1l56.2 35.4c.3.2.5.3.8.4.1 0 .1.1.2.1h.1c.1.1.2.1.4.1.2.1.5.2.7.3.1 0 .3.1.4.1.2.1.5.1.7.2.1 0 .3 0 .4.1.4 0 .7.1 1.1.1.4 0 .8 0 1.2-.1.1 0 .3 0 .4-.1.3 0 .5-.1.8-.2.1 0 .3-.1.4-.1.2-.1.5-.2.7-.3.1-.1.3-.1.4-.2.2-.1.4-.2.7-.4.1-.1.3-.2.4-.2.2-.1.4-.3.6-.4.1-.1.3-.2.4-.3l.5-.5.4-.4c.2-.2.3-.4.4-.6.1-.1.2-.3.3-.4 0 0 0-.1.1-.1 0-.1.1-.2.1-.2.1-.2.3-.5.4-.8l40-85.2c.1-.3.2-.5.3-.8.1-.3.2-.6.3-.8.1-.3.1-.6.1-.9s.1-.6.1-.9c.1-.3.1-.6.1-.9zm-21 4.6l-31.9 67.9-32.3-20.4 27.7-65.4 36.5 17.9z"/><ellipse transform="rotate(-83.731 182.765 237.506)" cx="182.8" cy="237.5" rx="72.8" ry="72.8" fill="#5bcec9"/><path class="st1" d="M84.8 130.8c4.6 0 7.7 3.1 8.9 9.4V178h.5c1-4.3 9.2-13 24.5-26 19.9-14 41.4-21.2 63.8-21.2 19.9 0 38.6 5.4 55.7 16.1 1.5 2 2.3 4.3 2.3 6.6-1.5 5.6-4.1 8.4-7.7 8.4h-3.1c-16.9-8.2-31.2-12.3-42.9-12.3l-4.3-.5c-29.4 0-53.9 13-73.3 38.8-10.5 15.3-15.6 31.9-15.6 50.1v98.3c-1.3 6.4-4.3 9.4-8.9 9.4-6.4-1.5-9.4-4.3-9.4-8.4V138.9c0-4.3 3.1-7.1 9.5-8.1z"/><path class="st1" d="M280.9 0h-1c-4.6 0-7.4 3.1-8.4 9.4V240c0 16.6-5.1 32.7-15.6 49-20.4 25.3-43.4 37.8-69 37.8h-7.2l-.5.5v-.5c-16.9 0-33.5-5.6-49.5-17.1-24-19.2-36-42.9-36-71.3 0-16.6 4.6-32.7 13.8-48.3 19.9-27.3 44.9-41.1 75.1-41.1l-2.8-18.4-1.8.5v-.5c-11.7 1.3-18.6 2.3-19.9 3.3-12.3 2-25 7.7-38.3 17.1-29.6 23.2-44.4 52.1-44.4 86.8 0 20.7 5.6 39.8 16.6 57.7 23.8 33.5 53.9 50.1 90.7 50.1 24.3 0 46.7-7.9 67.2-24 26.6-23.5 40.1-50.3 40.1-79.9V7.7c-.1-4.1-3.2-6.7-9.1-7.7z"/></svg>