<svg xmlns="http://www.w3.org/2000/svg" viewBox="0 0 52 52">
  <path d="M26 0C11.6 0 0 11.7 0 26s11.6 26 26 26 26-11.7 26-26S40.4 0 26 0zm12.2 31.2c-.1 1-.3 1.8-.7 2.5-.3.7-.8 1.3-1.3 1.8s-1.2.9-2 1.2c-.8.3-1.6.6-2.5.7s-1.8.3-3 .3V43h-3.1v-5.1h-2.5V43H20v-5.2h-6.3l.6-3.7h2.3c.7 0 1.1-.3 1.2-1V18.9c-.2-.9-.8-1.4-1.8-1.4h-2.3v-3.4H20V9h3.1v5h2.5V9h3.1v5.2c1.1.1 2 .3 2.9.5.8.2 1.6.5 2.3.9.7.4 1.3.9 1.7 1.6s.7 1.4.7 2.3c.3 2.5-.6 4.2-2.7 5.3 1.6.4 2.8 1.1 3.6 2.1.9 1 1.2 2.4 1 4.3zM23.9 24h1.9c.4 0 .8-.1 1.1-.1.3 0 .6-.1 1-.2s.7-.2 1-.4c.3-.2.5-.3.8-.6.3-.2.4-.5.6-.8.1-.3.2-.7.2-1 0-.4-.1-.9-.3-1.2l-.6-.9c-.3-.2-.6-.4-1-.6-.4-.2-.8-.3-1.1-.3s-.8-.1-1.2-.2c-.5 0-.9-.1-1.2 0h-1.9V24h.7zm7.1 4.3c-.3-.3-.7-.5-1.2-.6-.5-.2-.9-.3-1.3-.4-.4-.1-.9-.1-1.5-.2-.6 0-1.1-.1-1.4-.1h-2.3v7h2.9c.5 0 .9 0 1.2-.1.3 0 .7-.1 1.2-.2s.8-.2 1.1-.3c.3-.1.6-.3 1-.4.3-.2.6-.4.8-.6.2-.2.4-.5.5-.8.1-.3.2-.7.2-1 0-.5-.1-.9-.3-1.3-.4-.4-.6-.7-.9-1z" fill="#bbbdbd"/>
</svg>
