<svg xmlns="http://www.w3.org/2000/svg" viewBox="0 0 53.3 52">
  <path d="M26.7 0a26.6 26.6 0 0 0-8.5 52c1.3.2 1.8-.6 1.8-1.3v-5c-7.4 1.6-9-3.1-9-3.1-1.2-3.1-3-3.9-3-3.9-2.3-1.7.3-1.7.3-1.7 2.7.2 4.1 2.7 4.1 2.7 2.4 4.1 6.2 2.9 7.8 2.2.2-1.7.9-2.9 1.7-3.6-5.9-.7-12.1-3-12.1-13.2 0-2.9 1-5.3 2.7-7.2-.3-.7-1.2-3.4.3-7.1 0 0 2.2-.7 7.3 2.7a24.6 24.6 0 0 1 13.4 0c5.1-3.5 7.3-2.7 7.3-2.7 1.5 3.7.5 6.4.3 7.1 1.7 1.9 2.7 4.2 2.7 7.2 0 10.2-6.2 12.5-12.2 13.2 1 .8 1.8 2.4 1.8 4.9v7.3c0 .7.5 1.5 1.8 1.3A26.6 26.6 0 0 0 26.7 0z"/>
</svg>