<svg xmlns="http://www.w3.org/2000/svg" viewBox="0 0 52 52">
	<style type="text/css">
		.icon-st0 {
			fill: #BBBDBD;
		}

		.icon-st0:hover {
			fill: #00d9a2;
		}
	</style>
	<path class="icon-st0" d="M26 0C11.6 0 0 11.6 0 26s11.6 26 26 26 26-11.6 26-26S40.4 0 26 0zm-8.2 18.2c-.7-.9-1.1-1.9-1.2-3.1-.3-2.4.4-4.6 2.1-6.3 1-1.1 2.3-1.7 3.8-2 .2 0 .4-.1.6-.1h1.1c.2 0 .4.1.7.1 1 .1 1.9.5 2.7 1 1.7 1.1 2.8 2.7 3.2 4.7.4 2.3-.1 4.4-1.6 6.2-.7.8-1.6 1.4-2.6 1.9-1.1.5-2.2.8-3.3 1-.5.1-1.1.2-1.6.2-1.4.2-2.8.2-4.2.2-.7 0-1.4-.1-2.1-.1 1.2-.8 2.5-1.7 3.7-2.5-.6-.3-1-.7-1.3-1.2zm26.1 19.7c-.2-.6-.3-1.1-.5-1.7-.2-.6-.5-1.2-.9-1.7-.5-.5-1.1-.9-1.8-.9-.9-.1-1.9.1-2.7.4-1.3.5-2.5 1.2-3.7 1.9-2 1.3-4 2.5-6 3.8-1.5.9-2.9 1.8-4.5 2.4-1.1.5-2.2.8-3.4.9-1 .1-2.1.1-3.1.1-.8-.1-1.6-.1-2.4-.4-1.7-.6-2.8-1.9-3.3-3.6-.1-.2-.1-.4-.2-.7.1 0 .1 0 .1.1.9.6 1.8.9 2.8 1.1.5.1.9.1 1.4.1 1 0 1.9-.4 2.8-1 1-.8 1.8-1.8 2.4-2.9.8-1.4 1.3-2.9 1.5-4.5.1-.4.1-.9.1-1.3 0-.3 0-.3-.3-.3-.6-.1-1.1-.2-1.7-.3-1.8-.5-3.6-1.2-5.2-2.1-1.9-1.1-3.3-2.7-4-4.8 0-.1 0-.1-.1-.2.1.1.1.1.2.1 1.1.8 2.3 1.2 3.7 1.5 1 .2 2.1.3 3.1.3h2.2c2.2 0 4.4-.5 6.4-1.5 2.1-1.1 3.7-2.7 4.8-4.8.7-1.3 1.1-2.6 1.4-4 .1-.5.2-1.1.2-1.6.1-.6.1-1.3.1-1.9 0-.7-.1-1.4-.1-2 .8.7 1.6 1.5 2.1 2.5s.9 2 1.1 3.1c.1.7.2 1.4.2 2.1 0 .8.1 1.6 0 2.4 0 .7-.1 1.5-.2 2.2-.2 1.2-.4 2.4-.8 3.6-.6 2-1.4 3.8-2.6 5.5 0 .1-.1.1-.1.2.2-.1.3-.1.5-.2 1.1-.5 2.3-.9 3.4-1.1.5-.1 1.1-.2 1.6-.2.4 0 .8-.1 1.2 0 1.2.1 2.4.4 3.3 1.1.8.6 1.3 1.5 1.5 2.5.2.8.2 1.5.2 2.3.2 1.1-.2 2.3-.7 3.5z"
	/>
</svg>