<svg xmlns="http://www.w3.org/2000/svg" viewBox="0 0 52 52">
  <path d="M655.6 141c33.2-19.1 63.2-15.2 90.8 11.5 1.9-1.6 3.8-3.4 6-5 1.5-1.1 1.6-2 .2-3.2-3.8-3.3-7.3-7-11.4-10-11.9-9-25.4-14.1-40.2-15.4-8.2-.7-16.5-.2-24.5 1.8-8.9 2.2-17.3 5.7-25 10.8-.8.5-1.8.9-1 2.1 1.7 2.5 3.4 5 5.1 7.4zm326.8 298.8c-3.4-13.4-9.9-25-20.9-33.6-13.2-10.4-28.7-14.4-45.2-15.2-5.3-.2-10.7-.1-16 .4-7.2.7-14.4 1.5-21.5 2.9-16.1 3.3-31.7 8.3-46.7 14.9-2.1.9-4.2 1.8-6.3 2.8.2-1.3.6-2.1 1.2-2.9 15.6-23.3 26.8-48.6 35.2-75.2 5.1-16 9-32.3 11.1-48.9 1.3-10 2.6-20.1 3-30.2.5-11.1.2-22.2-.4-33.2-.5-9.4-1.7-18.8-3.2-28.1-2.5-14.7-7.3-28.6-14.6-41.6-7.4-13.2-17.7-23.9-28.9-33.6.7 9.3 1.8 18.5 1.9 27.8.1 8.5-.5 17.1-1.2 25.6-.6 7.5-1.5 15-2.9 22.4-3.6 19.2-9.8 37.6-19.2 54.8-15.4 28.3-37.3 50.1-65.9 65-27.1 14.1-56.2 19.9-86.4 20.5-10.2.2-20.3-.3-30.5-.4-14.4-.1-28.6-1.2-42.8-3.7-18-3.2-34.9-9.3-49.9-19.9-.6-.4-1.3-.8-2.3-1.5.4 1.3.7 2.1.9 2.9 9.8 28.8 28.4 50.3 54.3 65.7 22.2 13.2 46 22.6 71 28.9 7.5 1.9 15.2 3 22.9 4.2 3.6.6 4.2.6 3.9 4.3-.4 6-.9 12-1.8 18-3.1 21.5-10.2 41.7-20.7 60.7-8.5 15.3-19 29-33.3 39.5-11.1 8.2-23.5 13.4-37.5 13.3-6.4 0-12.9-.8-19.3-1.8-13.9-2.1-26.9-6.8-38.4-15-.3-.2-.8-.4-1.6-.8.9 3.4 1.6 6.3 2.5 9.2 7.6 23.1 22.1 39.8 45.2 48.5 10.4 3.9 21.2 4.8 32.1 5.5 14 1 28 .8 41.9-.9 16.1-2 31.5-6.4 46.4-12.7 21.6-9.1 41.8-20.8 61.6-33.2 27.2-16.9 54-34.4 81-51.5 16-10.1 32.2-19.7 50-26.3 12-4.5 24.2-7.4 37.1-5.7 9.7 1.3 17.8 5.5 24.3 12.9 5.9 6.6 10.1 14.3 12.8 22.6 2.6 7.8 4.5 15.8 6.6 23.3 6.9-15.4 12.2-31.7 13.1-49.3.5-10.6 0-21.1-2.6-31.4z"/>
  <path fill="#bbbdbd" d="M26 0C11.6 0 0 11.6 0 26s11.6 26 26 26 26-11.6 26-26S40.4 0 26 0zm-8.2 18.2c-.7-.9-1.1-1.9-1.2-3.1-.3-2.4.4-4.6 2.1-6.3 1-1.1 2.3-1.7 3.8-2 .2 0 .4-.1.6-.1h1.1c.2 0 .4.1.7.1 1 .1 1.9.5 2.7 1 1.7 1.1 2.8 2.7 3.2 4.7.4 2.3-.1 4.4-1.6 6.2-.7.8-1.6 1.4-2.6 1.9-1.1.5-2.2.8-3.3 1-.5.1-1.1.2-1.6.2-1.4.2-2.8.2-4.2.2-.7 0-1.4-.1-2.1-.1 1.2-.8 2.5-1.7 3.7-2.5-.6-.3-1-.7-1.3-1.2zm26.1 19.7c-.2-.6-.3-1.1-.5-1.7-.2-.6-.5-1.2-.9-1.7-.5-.5-1.1-.9-1.8-.9-.9-.1-1.9.1-2.7.4-1.3.5-2.5 1.2-3.7 1.9-2 1.3-4 2.5-6 3.8-1.5.9-2.9 1.8-4.5 2.4-1.1.5-2.2.8-3.4.9-1 .1-2.1.1-3.1.1-.8-.1-1.6-.1-2.4-.4-1.7-.6-2.8-1.9-3.3-3.6-.1-.2-.1-.4-.2-.7.1 0 .1 0 .1.1.9.6 1.8.9 2.8 1.1.5.1.9.1 1.4.1 1 0 1.9-.4 2.8-1 1-.8 1.8-1.8 2.4-2.9.8-1.4 1.3-2.9 1.5-4.5.1-.4.1-.9.1-1.3 0-.3 0-.3-.3-.3-.6-.1-1.1-.2-1.7-.3-1.8-.5-3.6-1.2-5.2-2.1-1.9-1.1-3.3-2.7-4-4.8 0-.1 0-.1-.1-.2.1.1.1.1.2.1 1.1.8 2.3 1.2 3.7 1.5 1 .2 2.1.3 3.1.3h2.2c2.2 0 4.4-.5 6.4-1.5 2.1-1.1 3.7-2.7 4.8-4.8.7-1.3 1.1-2.6 1.4-4 .1-.5.2-1.1.2-1.6.1-.6.1-1.3.1-1.9 0-.7-.1-1.4-.1-2 .8.7 1.6 1.5 2.1 2.5s.9 2 1.1 3.1c.1.7.2 1.4.2 2.1 0 .8.1 1.6 0 2.4 0 .7-.1 1.5-.2 2.2-.2 1.2-.4 2.4-.8 3.6-.6 2-1.4 3.8-2.6 5.5 0 .1-.1.1-.1.2.2-.1.3-.1.5-.2 1.1-.5 2.3-.9 3.4-1.1.5-.1 1.1-.2 1.6-.2.4 0 .8-.1 1.2 0 1.2.1 2.4.4 3.3 1.1.8.6 1.3 1.5 1.5 2.5.2.8.2 1.5.2 2.3.2 1.1-.2 2.3-.7 3.5z"/>
</svg>
