<?xml version="1.0" encoding="utf-8"?>
<!-- Generator: Adobe Illustrator 21.0.2, SVG Export Plug-In . SVG Version: 6.00 Build 0)  -->
<svg version="1.1" id="Capa_1" xmlns="http://www.w3.org/2000/svg" xmlns:xlink="http://www.w3.org/1999/xlink" x="0px" y="0px"
	 viewBox="0 0 52 52" style="enable-background:new 0 0 52 52;" xml:space="preserve">
<style type="text/css">
	.st0{fill:#BBBDBD;}
</style>
<g>
	<g>
		<g>
			<path class="st0" d="M26,0C11.6,0,0,11.6,0,26s11.6,26,26,26s26-11.6,26-26C52,11.6,40.4,0,26,0z M19.5,38.6H13V15.8h6.5V38.6z
				 M16.5,14.4c-1.7,0-3-1.4-3-3s1.4-3,3-3c1.7,0,3,1.4,3,3C19.5,13.1,18.1,14.4,16.5,14.4z M42.2,38.6h-6.5V24.5
				c0-1.6-0.5-2.8-2.5-2.8c-3.4,0-4,2.8-4,2.8v14.1h-6.5V15.8h6.5V18c0.9-0.7,3.2-2.2,6.5-2.2c2.1,0,6.5,1.3,6.5,8.9L42.2,38.6
				L42.2,38.6z"/>
		</g>
	</g>
</g>
</svg>
