<?xml version="1.0" encoding="utf-8"?>
<!-- Generator: Adobe Illustrator 21.0.2, SVG Export Plug-In . SVG Version: 6.00 Build 0)  -->
<svg version="1.1" id="Layer_1" xmlns="http://www.w3.org/2000/svg" xmlns:xlink="http://www.w3.org/1999/xlink" x="0px" y="0px"
	 viewBox="0 0 52 52" style="enable-background:new 0 0 52 52;" xml:space="preserve">
<style type="text/css">
	.st0{fill:#A7CF38;}
	.st1{fill:#BBBDBD;}
</style>
<polygon class="st0" points="24.4,23.9 31.3,34.5 24.4,23.8 "/>
<path class="st1" d="M26,0.3c-14.4,0-26,11.6-26,26s11.6,26,26,26s26-11.6,26-26S40.4,0.3,26,0.3z M25,23.8l6.5-9.9l8.7,4.4
	l-2.5,4.3c0,0,0,0,0,0l-6.4,11L25,23.8z M29.9,33.2l-8.7-4.4v-9.2L29.9,33.2z M38.4,23.2C38.4,23.2,38.4,23.2,38.4,23.2l1.9-3.4
	v18.6L32,34.3L38.4,23.2z M11.6,20.3v-0.2V14l8.6,4.3v20.1l-8.6-4.3V20.3z"/>
</svg>
