<?xml version="1.0" encoding="utf-8"?>
<!-- Generator: Adobe Illustrator 21.0.2, SVG Export Plug-In . SVG Version: 6.00 Build 0)  -->
<svg version="1.1" id="Layer_1" xmlns="http://www.w3.org/2000/svg" xmlns:xlink="http://www.w3.org/1999/xlink" x="0px" y="0px"
	 viewBox="0 0 52 52" style="enable-background:new 0 0 52 52;" xml:space="preserve">
<style type="text/css">
	.st0{fill:#BBBDBD;}
</style>
<path class="st0" d="M26,0C11.6,0,0,11.6,0,26s11.6,26,26,26s26-11.6,26-26S40.4,0,26,0z M41.4,15.6c-0.5,2.3-5.3,22.6-6.2,24.4
	c-0.7,1.4-1.7,1.6-2.3,1.6c-0.7,0-1.2-0.3-1.3-0.4c0,0,0,0,0,0l-7.1-5l-2.6,2.6c-0.7,0.7-1.4,1.1-2.2,1.1c-1.1,0-1.8-0.8-2-1.3
	c0,0,0-0.1,0-0.1l-3-8.1c-1.5-0.2-5.2-0.9-6.8-2.4c-0.8-0.7-1.1-1.5-1-2.3c0.1-1,0.8-1.5,0.9-1.6c0.1,0,0.1-0.1,0.2-0.1l28.8-11.2
	c0,0,0,0,0.1,0c0.5-0.2,1-0.2,1.5-0.2c1.8,0,3,1.2,3,2.7C41.4,15.5,41.4,15.5,41.4,15.6z M36.6,16.7c0.3,0.4,0.2,0.9-0.1,1.2
	l-13.2,11l-2.1,6.4c-0.2,0.3-0.5,0.5-0.8,0.5c0,0,0,0-0.1,0c-0.4,0-0.7-0.2-0.8-0.6L16.9,28c-0.2-0.4,0-0.9,0.4-1.1l18.1-10.4
	C35.9,16.2,36.4,16.3,36.6,16.7z"/>
</svg>
