<svg xmlns="http://www.w3.org/2000/svg" viewBox="0 0 52 52">
  <path fill="#bbbdbd" d="M26 0C11.7 0 0 11.7 0 26s11.7 26 26 26 26-11.7 26-26S40.3 0 26 0zm11.6 20v.8c0 7.9-6 17-17 17-3.4 0-6.5-1-9.2-2.7.5.1.9.1 1.4.1 2.8 0 5.4-1 7.4-2.6-2.6 0-4.8-1.8-5.6-4.2.4.1.7.1 1.1.1.5 0 1.1-.1 1.6-.2-2.7-.5-4.8-3-4.8-5.9v-.1c.8.4 1.7.7 2.7.7-1.6-1.1-2.7-2.9-2.7-5 0-1.1.3-2.1.8-3 3 3.6 7.4 6 12.3 6.3-.1-.4-.2-.9-.2-1.4 0-3.3 2.7-6 6-6 1.7 0 3.3.7 4.4 1.9 1.4-.3 2.6-.8 3.8-1.5-.5 1.4-1.4 2.6-2.6 3.3 1.2-.1 2.4-.5 3.4-.9-.6 1.5-1.6 2.5-2.8 3.3z"/>
</svg>
