<svg xmlns="http://www.w3.org/2000/svg" viewBox="0 0 512 512"><path d="M492 106.8c-18.5-22-52.6-30.9-117.8-30.9H137.7c-66.7 0-101.4 9.5-119.8 32.9C0 131.6 0 165.2 0 211.7v88.6c0 90.1 21.3 135.8 137.7 135.8h236.6c56.5 0 87.8-7.9 108.1-27.3C503.1 389 512 356.5 512 300.3v-88.6c0-49.1-1.4-82.9-20-104.9z" fill="#d7143a"/><path d="M328.7 268.2l-107.4 56.1c-2.4 1.2-5 1.9-7.6 1.9-9.1 0-16.5-7.4-16.5-16.5V197.8c0-9.1 7.4-16.5 16.5-16.5 2.6 0 5.3.6 7.6 1.9L328.7 239c8.1 4.2 11.3 14.2 7.1 22.3-1.6 2.9-4.1 5.4-7.1 6.9z" fill="#fff"/></svg>