<svg id="Layer_1" xmlns="http://www.w3.org/2000/svg" viewBox="0 0 489.6 489.6"><style>.st2{fill:#202020}</style><path id="XMLID_7139_" fill="#bcbebe" d="M123.6 179.1h55.1v81h-55.1z"/><path id="XMLID_7137_" fill="#88cdc8" d="M217.2 77h55.1v183.1h-55.1z"/><path class="st2" d="M53.9 334.7h383.7c14.1 0 25.5-11.4 25.5-25.5V20.5h17.4c5 0 9.1-4.1 9.1-9.1s-4.1-9.1-9.1-9.1H9.1c-5 0-9.1 4.1-9.1 9.1s4.1 9.1 9.1 9.1h19.3v288.7c0 14.1 11.4 25.5 25.5 25.5zm391-25.5c0 4.1-3.3 7.4-7.4 7.4H53.9c-4.1 0-7.4-3.3-7.4-7.4V20.5h398.4v288.7zM245.9 487.3c5 0 9.1-4.1 9.1-9.1v-51.1l57.2 57.2c1.8 1.8 4.1 2.7 6.4 2.7s4.6-.9 6.4-2.7c3.5-3.5 3.5-9.3 0-12.8l-70-70v-27h36.2c5 0 9.1-4.1 9.1-9.1s-4.1-9.1-9.1-9.1h-90.4c-5 0-9.1 4.1-9.1 9.1s4.1 9.1 9.1 9.1h36v27l-70.3 70.3c-3.5 3.5-3.5 9.3 0 12.8 1.8 1.8 4.1 2.7 6.4 2.7 2.3 0 4.6-.9 6.4-2.7l57.5-57.5v51.1c0 5 4.1 9.1 9.1 9.1z"/><path class="st2" d="M123.6 269.1h55.2c5 0 9.1-4.1 9.1-9.1v-81c0-5-4.1-9.1-9.1-9.1h-55.1c-5 0-9.1 4.1-9.1 9.1v81c0 5.1 4 9.1 9 9.1zm9.1-80.9h37v62.9h-37v-62.9zM310.8 269.1h55.1c5 0 9.1-4.1 9.1-9.1V132.3c0-5-4.1-9.1-9.1-9.1h-55.1c-5 0-9.1 4.1-9.1 9.1v127.8c.1 5 4.1 9 9.1 9zm9.1-127.8h37V251h-37V141.3zM217.2 269.1h55.1c5 0 9.1-4.1 9.1-9.1V77c0-5-4.1-9.1-9.1-9.1h-55.1c-5 0-9.1 4.1-9.1 9.1v183.1c.1 5 4.1 9 9.1 9zM226.3 86h37v165h-37V86z"/></svg>