<svg xmlns="http://www.w3.org/2000/svg" viewBox="0 0 42 42"><path d="M21 2c10.5 0 19 8.5 19 19s-8.5 19-19 19S2 31.5 2 21 10.5 2 21 2m0-2C9.4 0 0 9.4 0 21s9.4 21 21 21 21-9.4 21-21S32.6 0 21 0z"/><path d="M29.6 21.6c-.6-.8-1.6-1.4-2.7-1.6 1.5-.7 2.3-2.4 2-4 0-.6-.2-1.2-.6-1.8-.3-.5-.7-.9-1.2-1.2-.6-.3-1.2-.5-1.8-.7-.7-.2-1.5-.3-2.2-.4V8h-2.4v3.8h-1.9V8h-2.4v3.9h-4.8v2.6h1.7c.7-.1 1.3.4 1.4 1.1V20h.3-.3v6.3c0 .5-.4.8-.9.8H12l-.4 2.9h4.8v4h2.4v-3.9h1.9V34h2.4v-4c.8 0 1.5-.1 2.3-.2.7-.1 1.3-.3 1.9-.5.6-.2 1.1-.5 1.5-.9.4-.4.8-.9 1-1.4.3-.6.5-1.3.5-2 .3-1.2 0-2.4-.7-3.4zm-10.7-7h2.3c.3 0 .7.1 1 .1.3.1.6.1.9.3.3.1.5.2.8.4.2.2.4.4.5.7.1.3.2.6.2.9 0 .3 0 .5-.1.8-.1.2-.2.4-.4.6-.2.2-.4.3-.6.4-.2.1-.5.2-.8.3l-.8.2c-.3 0-.6.1-.9.1h-2.1v-4.8zm6.5 10.7c-.1.2-.2.4-.4.6-.2.2-.4.4-.6.5-.2.1-.5.2-.7.3-.3.1-.6.2-.9.2-.3.1-.6.1-.9.1l-.9.1h-2.1v-5.2h2.8c.4 0 .8.1 1.2.1.3.1.7.2 1 .3.3.1.6.3.9.5.2.2.4.4.6.7.2.6.3 1.2 0 1.8z"/></svg>