<?xml version="1.0" encoding="utf-8"?>
<!-- Generator: Adobe Illustrator 21.1.0, SVG Export Plug-In . SVG Version: 6.00 Build 0)  -->
<svg version="1.1" id="Capa_1" xmlns="http://www.w3.org/2000/svg" xmlns:xlink="http://www.w3.org/1999/xlink" x="0px" y="0px"
	 viewBox="0 0 424 424" style="enable-background:new 0 0 424 424;" xml:space="preserve">
<style type="text/css">
	.st0{stroke:#000000;stroke-width:40;stroke-miterlimit:10;}
</style>
<g>
	<g>
		<path class="st0" d="M400.9,385.8L38.2,23.1C34,19,27.3,19,23.1,23.1S19,34,23.1,38.2l362.7,362.7c2.1,2.1,4.8,3.1,7.6,3.1
			s5.5-1,7.5-3.1C405,396.7,405,389.9,400.9,385.8z"/>
	</g>
</g>
<g>
	<g>
		<path class="st0" d="M400.9,23.1c-4.2-4.2-10.9-4.2-15.1,0L23.1,385.8c-4.2,4.2-4.2,10.9,0,15.1c2.1,2.1,4.8,3.1,7.6,3.1
			s5.5-1,7.5-3.1L400.9,38.2C405,34,405,27.3,400.9,23.1z"/>
	</g>
</g>
</svg>
