<svg id="Layer_1" xmlns="http://www.w3.org/2000/svg" viewBox="0 0 489.4 489.4"><style>.st1{fill:#202020}</style><path id="XMLID_284_" d="M245.2 293.7h-58.7c-2.1 0-3.9-1.8-3.9-3.9V134.2c0-2.1 1.8-3.9 3.9-3.9h58.7c2.1 0 3.9 1.8 3.9 3.9v155.6c0 2.1-1.8 3.9-3.9 3.9z" fill="#88cdc8"/><path class="st1" d="M458.9 345.4c1.8-4.7-.4-9.9-5.1-11.8-4.7-1.8-9.9.4-11.8 5.1-6.9 17.5-24.1 29.3-42.9 29.3H209.4c-2.3 0-4.6.9-6.3 2.5l-86.6 82.9V377c0-2.4-1-4.7-2.7-6.4-1.7-1.7-4-2.7-6.4-2.7H64.2c-25.4 0-46.1-20.7-46.1-46.1V117.5c0-25.4 20.7-46.1 46.1-46.1h205.5c5 0 9.1-4.1 9.1-9.1s-4.1-9.1-9.1-9.1H64.2C28.8 53.2 0 82 0 117.4v204.4C0 357.2 28.8 386 64.2 386h34.2v88.6c0 3.6 2.2 6.9 5.5 8.3 1.1.5 2.4.7 3.6.7 2.3 0 4.6-.9 6.3-2.5l99.3-95.1h186.1c26.1.1 50.1-16.3 59.7-40.6z"/><path class="st1" d="M488.8 158.8c2.7-16.9-4.3-34.1-17.8-43.8-7.7-5.5-16.7-8.4-26.1-8.4h-66.3V59.2c0-21-6.2-36.2-18.4-45.1C340.9-.1 314.5 8 313.4 8.3c-3.8 1.2-6.3 4.7-6.3 8.6v54.7c0 42.1-49.1 56.5-51.1 57.1-.2.1-.4.2-.6.2-3-4.6-8.2-7.7-14.2-7.7h-50.8c-9.3 0-16.9 7.6-16.9 16.9v147.7c0 9.3 7.6 16.9 16.9 16.9h50.8c4.7 0 8.9-1.9 12-5 8.1 8.1 19.3 13.1 31.7 13.1h133.8c30.3 0 49.6-15.9 53.1-43.6l17-108.4zM240 284.6h-48.3V139.4H240v145.2zM470.9 156l-17.1 108.6v.3c-2.3 18.5-14.1 27.9-35.1 27.9H284.9c-14.8 0-26.8-12-26.8-26.8V146.5c.9 0 1.8 0 2.7-.3 2.6-.7 64.4-18.6 64.4-74.6V24.3c6.6-.9 16.8-1.1 24.4 4.4 7.3 5.4 10.9 15.6 10.9 30.5v56.5c0 5 4.1 9.1 9.1 9.1H445c5.6 0 11 1.7 15.5 5 7.9 5.7 12 16 10.4 26.2z"/></svg>