<svg 
 xmlns="http://www.w3.org/2000/svg"
 xmlns:xlink="http://www.w3.org/1999/xlink"
 width="472px" height="472px">
<path fill-rule="evenodd"  opacity="0.2" fill="rgb(106, 174, 169)"
 d="M236.000,-0.000 C366.339,-0.000 472.000,105.661 472.000,236.000 C472.000,366.339 366.339,472.000 236.000,472.000 C105.661,472.000 -0.000,366.339 -0.000,236.000 C-0.000,105.661 105.661,-0.000 236.000,-0.000 Z"/>
<path fill-rule="evenodd"  opacity="0.302" fill="rgb(106, 174, 169)"
 d="M235.481,30.083 C348.919,30.083 440.879,122.043 440.879,235.481 C440.879,348.919 348.919,440.879 235.481,440.879 C122.043,440.879 30.083,348.919 30.083,235.481 C30.083,122.043 122.043,30.083 235.481,30.083 Z"/>
<path fill-rule="evenodd"  opacity="0.4" fill="rgb(106, 174, 169)"
 d="M236.000,58.092 C334.256,58.092 413.908,137.744 413.908,236.000 C413.908,334.255 334.256,413.908 236.000,413.908 C137.744,413.908 58.092,334.255 58.092,236.000 C58.092,137.744 137.744,58.092 236.000,58.092 Z"/>
<path fill-rule="evenodd"  opacity="0.502" fill="rgb(106, 174, 169)"
 d="M235.481,79.876 C321.419,79.876 391.086,149.543 391.086,235.481 C391.086,321.419 321.419,391.085 235.481,391.085 C149.543,391.085 79.877,321.419 79.877,235.481 C79.877,149.543 149.543,79.876 235.481,79.876 Z"/>
<path fill-rule="evenodd"  opacity="0.6" fill="rgb(106, 174, 169)"
 d="M236.000,103.000 C309.454,103.000 369.000,162.546 369.000,236.000 C369.000,309.453 309.454,369.000 236.000,369.000 C162.546,369.000 103.000,309.453 103.000,236.000 C103.000,162.546 162.546,103.000 236.000,103.000 Z"/>
<path fill-rule="evenodd"  opacity="0.702" fill="rgb(106, 174, 169)"
 d="M236.500,121.000 C300.289,121.000 352.000,172.710 352.000,236.499 C352.000,300.288 300.289,352.000 236.500,352.000 C172.711,352.000 121.000,300.288 121.000,236.499 C121.000,172.710 172.711,121.000 236.500,121.000 Z"/>
</svg>