<svg id="Layer_1" xmlns="http://www.w3.org/2000/svg" viewBox="0 0 488.3 488.3"><style>.st1{fill:#202020}.st2{fill:#88cdc8}.st3{fill:#1a1a1a;stroke:#1a1a1a;stroke-width:9;stroke-miterlimit:10}</style><path d="M418.9 382.5H18.2c-5 0-9.1-4.1-9.1-9.1v-52.9h419v52.9c0 5.1-4.1 9.1-9.2 9.1z" fill="#bbbdbd"/><path class="st1" d="M428.1 107c-5 0-9.1 4.1-9.1 9.1v199.1H18.1V116.5c0-10.8 8.8-19.7 19.7-19.7h173.5c5 0 9.1-4.1 9.1-9.1s-4.1-9.1-9.1-9.1H37.8C17 78.6 0 95.6 0 116.4v239.2c0 20.8 17 37.8 37.8 37.8h171.7v59.1H129c-5 0-9.1 4.1-9.1 9.1s4.1 9.1 9.1 9.1h179.2c5 0 9.1-4.1 9.1-9.1s-4.1-9.1-9.1-9.1h-80.5v-59.1h171.7c20.8 0 37.8-17 37.8-37.8V116c-.1-5-4.1-9-9.1-9zm-28.8 268.4H37.8c-10.8 0-19.7-8.8-19.7-19.7v-22.4H419v22.4c0 10.8-8.8 19.7-19.7 19.7z"/><path class="st1" d="M437.1 116.4c0-20.8-17-37.8-37.8-37.8h-202c-5 0-9.1 4.1-9.1 9.1s4.1 9.1 9.1 9.1h202c10.9 0 19.7 8.9 19.7 19.7M209.4 393.4v59.1h-80.5c-5 0-9.1 4.1-9.1 9.1s4.1 9.1 9.1 9.1h179.2c5 0 9.1-4.1 9.1-9.1s-4.1-9.1-9.1-9.1h-80.5v-59.1"/><circle class="st2" cx="192.3" cy="164" r="24.8"/><circle class="st2" cx="260.7" cy="252.3" r="24.8"/><path class="st3" d="M272.4 130.8c.7-1.1 2.3-1.5 3.4-.7 1.1.7 1.5 2.3.7 3.4l-99.1 152c-.7 1.1-2.3 1.5-3.4.7-1.1-.7-1.5-2.3-.7-3.4l99.1-152zM167.7 164c0 6.8 2.7 12.9 7.2 17.3 4.4 4.4 10.6 7.2 17.3 7.2 6.8 0 12.9-2.8 17.3-7.2l.1-.1c4.4-4.4 7.1-10.5 7.1-17.2 0-6.8-2.7-12.9-7.2-17.3-4.4-4.4-10.6-7.2-17.3-7.2-6.8 0-12.9 2.7-17.3 7.2-4.4 4.4-7.2 10.5-7.2 17.3zm3.8 20.8c-5.3-5.3-8.6-12.7-8.6-20.8s3.3-15.5 8.6-20.8c5.3-5.3 12.7-8.6 20.8-8.6 8.1 0 15.5 3.3 20.8 8.6 5.3 5.3 8.6 12.7 8.6 20.8 0 8-3.2 15.3-8.5 20.6l-.1.2c-5.3 5.3-12.7 8.6-20.8 8.6-8.1 0-15.5-3.3-20.8-8.6zM236.2 252.3c0 6.8 2.7 12.9 7.2 17.3 4.4 4.4 10.6 7.2 17.3 7.2 6.8 0 12.9-2.7 17.3-7.2 4.4-4.4 7.2-10.6 7.2-17.3 0-6.8-2.7-12.9-7.2-17.3-4.4-4.4-10.6-7.2-17.3-7.2-6.8 0-12.9 2.7-17.3 7.2-4.5 4.3-7.2 10.5-7.2 17.3zm3.7 20.8c-5.3-5.3-8.6-12.7-8.6-20.8 0-8.1 3.3-15.5 8.6-20.8 5.3-5.3 12.7-8.6 20.8-8.6 8.1 0 15.5 3.3 20.8 8.6 5.3 5.3 8.6 12.7 8.6 20.8 0 8.1-3.3 15.5-8.6 20.8-5.3 5.3-12.7 8.6-20.8 8.6-8.1 0-15.5-3.3-20.8-8.6z"/></svg>