<svg id="Layer_1" xmlns="http://www.w3.org/2000/svg" viewBox="0 0 488.3 488.3"><style>.st2{fill:#202020}</style><path d="M418.9 382.5H18.2c-5 0-9.1-4.1-9.1-9.1v-52.9h419v52.9c0 5.1-4.1 9.1-9.2 9.1z" fill="#bbbdbd"/><path d="M450.3 26.8H275.4c-15.8 0-28.8 13-28.8 28.8v106.8c0 15.8 13 28.8 28.8 28.8H298v51l53.2-51h99.1c15.8 0 28.8-13 28.8-28.8V55.5c0-15.8-12.9-28.7-28.8-28.7z" fill="#88cdc8"/><path class="st2" d="M428.1 218.8c-5 0-9.1 4.1-9.1 9.1v87.3H18.1V116.5c0-10.8 8.8-19.7 19.7-19.7h173.5c5 0 9.1-4.1 9.1-9.1s-4.1-9.1-9.1-9.1H37.8C17 78.6 0 95.6 0 116.4v239.2c0 20.8 17 37.8 37.8 37.8h171.7v59.1H129c-5 0-9.1 4.1-9.1 9.1s4.1 9.1 9.1 9.1h179.2c5 0 9.1-4.1 9.1-9.1s-4.1-9.1-9.1-9.1h-80.5v-59.1h171.7c20.8 0 37.8-17 37.8-37.8V227.8c-.1-5-4.1-9-9.1-9zm-28.8 156.6H37.8c-10.8 0-19.7-8.8-19.7-19.7v-22.4H419v22.4c0 10.8-8.8 19.7-19.7 19.7z"/><path class="st2" d="M450.3 17.6H275.4c-20.9 0-37.9 17-37.9 37.9v106.8c0 20.9 17 37.9 37.9 37.9h13.5v41.9c0 3.6 2.2 6.9 5.5 8.3 1.1.5 2.4.7 3.6.7 2.3 0 4.6-.9 6.3-2.5l50.6-48.5h95.5c20.9 0 37.9-17 37.9-37.9V55.5c-.1-20.8-17.1-37.9-38-37.9zm19.8 144.7c0 10.9-8.8 19.7-19.7 19.7h-99.1c-2.3 0-4.6.9-6.3 2.5l-37.9 36.3V191c0-2.4-1-4.7-2.7-6.4s-4-2.7-6.4-2.7h-22.6c-10.9 0-19.7-8.8-19.7-19.7V55.5c0-10.9 8.8-19.7 19.7-19.7h174.9c10.9 0 19.7 8.8 19.7 19.7v106.7h.1z"/><path class="st2" d="M362.9 103.3c-2.4 0-4.7 1-6.4 2.6-1.7 1.7-2.7 4-2.7 6.4s1 4.7 2.7 6.4 4 2.6 6.4 2.6 4.7-1 6.4-2.6c1.7-1.7 2.7-4 2.7-6.4s-1-4.7-2.7-6.4c-1.7-1.6-4.1-2.6-6.4-2.6zM396.6 103.3c-2.4 0-4.7 1-6.4 2.6-1.7 1.7-2.7 4-2.7 6.4s1 4.7 2.7 6.4 4 2.6 6.4 2.6 4.7-1 6.4-2.6c1.7-1.7 2.7-4 2.7-6.4s-1-4.7-2.7-6.4c-1.7-1.6-4-2.6-6.4-2.6zM329.1 103.3c-2.4 0-4.7 1-6.4 2.6-1.7 1.7-2.7 4-2.7 6.4s1 4.7 2.7 6.4 4 2.6 6.4 2.6 4.7-1 6.4-2.6c1.7-1.7 2.7-4 2.7-6.4s-1-4.7-2.7-6.4c-1.6-1.6-4-2.6-6.4-2.6z"/></svg>