<?xml version="1.0" encoding="utf-8"?>
<!-- Generator: Adobe Illustrator 21.1.0, SVG Export Plug-In . SVG Version: 6.00 Build 0)  -->
<svg version="1.1" id="Layer_1" xmlns="http://www.w3.org/2000/svg" xmlns:xlink="http://www.w3.org/1999/xlink" x="0px" y="0px"
	 viewBox="0 0 488.3 488.3" style="enable-background:new 0 0 488.3 488.3;" xml:space="preserve">
<style type="text/css">
	.st0{fill:#BBBDBD;}
	.st1{fill:#88CDC8;}
	.st2{fill:#202020;}
</style>
<path class="st0" d="M418.9,382.5H18.2c-5,0-9.1-4.1-9.1-9.1v-52.9h419v52.9C428.1,378.5,424,382.5,418.9,382.5z"/>
<path class="st1" d="M450.3,26.8H275.4c-15.8,0-28.8,13-28.8,28.8v106.8c0,15.8,13,28.8,28.8,28.8H298v51l53.2-51h99.1
	c15.8,0,28.8-13,28.8-28.8V55.5C479.1,39.7,466.2,26.8,450.3,26.8z"/>
<path class="st2" d="M428.1,218.8c-5,0-9.1,4.1-9.1,9.1v87.3H18.1V116.5c0-10.8,8.8-19.7,19.7-19.7h173.5c5,0,9.1-4.1,9.1-9.1
	s-4.1-9.1-9.1-9.1H37.8C17,78.6,0,95.6,0,116.4v239.2c0,20.8,17,37.8,37.8,37.8h171.7v59.1H129c-5,0-9.1,4.1-9.1,9.1
	s4.1,9.1,9.1,9.1h179.2c5,0,9.1-4.1,9.1-9.1s-4.1-9.1-9.1-9.1h-80.5v-59.1h171.7c20.8,0,37.8-17,37.8-37.8V227.8
	C437.1,222.8,433.1,218.8,428.1,218.8z M399.3,375.4H37.8c-10.8,0-19.7-8.8-19.7-19.7v-22.4H419v22.4
	C419,366.5,410.2,375.4,399.3,375.4z"/>
<path class="st2" d="M450.3,17.6H275.4c-20.9,0-37.9,17-37.9,37.9v106.8c0,20.9,17,37.9,37.9,37.9h13.5v41.9c0,3.6,2.2,6.9,5.5,8.3
	c1.1,0.5,2.4,0.7,3.6,0.7c2.3,0,4.6-0.9,6.3-2.5l50.6-48.5h95.5c20.9,0,37.9-17,37.9-37.9V55.5C488.2,34.7,471.2,17.6,450.3,17.6z
	 M470.1,162.3c0,10.9-8.8,19.7-19.7,19.7h-99.1c-2.3,0-4.6,0.9-6.3,2.5l-37.9,36.3v-29.8c0-2.4-1-4.7-2.7-6.4s-4-2.7-6.4-2.7h-22.6
	c-10.9,0-19.7-8.8-19.7-19.7V55.5c0-10.9,8.8-19.7,19.7-19.7h174.9c10.9,0,19.7,8.8,19.7,19.7v106.7H470.1z"/>
<path class="st2" d="M362.9,103.3c-2.4,0-4.7,1-6.4,2.6c-1.7,1.7-2.7,4-2.7,6.4s1,4.7,2.7,6.4s4,2.6,6.4,2.6s4.7-1,6.4-2.6
	c1.7-1.7,2.7-4,2.7-6.4s-1-4.7-2.7-6.4C367.6,104.3,365.2,103.3,362.9,103.3z"/>
<path class="st2" d="M396.6,103.3c-2.4,0-4.7,1-6.4,2.6c-1.7,1.7-2.7,4-2.7,6.4s1,4.7,2.7,6.4s4,2.6,6.4,2.6s4.7-1,6.4-2.6
	c1.7-1.7,2.7-4,2.7-6.4s-1-4.7-2.7-6.4C401.3,104.3,399,103.3,396.6,103.3z"/>
<path class="st2" d="M329.1,103.3c-2.4,0-4.7,1-6.4,2.6c-1.7,1.7-2.7,4-2.7,6.4s1,4.7,2.7,6.4s4,2.6,6.4,2.6s4.7-1,6.4-2.6
	c1.7-1.7,2.7-4,2.7-6.4s-1-4.7-2.7-6.4C333.9,104.3,331.5,103.3,329.1,103.3z"/>
</svg>
