<?xml version="1.0" encoding="utf-8"?>
<!-- Generator: Adobe Illustrator 21.1.0, SVG Export Plug-In . SVG Version: 6.00 Build 0)  -->
<svg version="1.1" id="Layer_1" xmlns="http://www.w3.org/2000/svg" xmlns:xlink="http://www.w3.org/1999/xlink" x="0px" y="0px"
	 viewBox="0 0 488.3 488.3" style="enable-background:new 0 0 488.3 488.3;" xml:space="preserve">
<style type="text/css">
	.st0{fill:#BBBDBD;}
	.st1{fill:#202020;}
	.st2{fill:#88CDC8;}
	.st3{fill:#1A1A1A;stroke:#1A1A1A;stroke-width:9;stroke-miterlimit:10;}
</style>
<path class="st0" d="M418.9,382.5H18.2c-5,0-9.1-4.1-9.1-9.1v-52.9h419v52.9C428.1,378.5,424,382.5,418.9,382.5z"/>
<path class="st1" d="M428.1,107c-5,0-9.1,4.1-9.1,9.1v199.1H18.1V116.5c0-10.8,8.8-19.7,19.7-19.7h173.5c5,0,9.1-4.1,9.1-9.1
	s-4.1-9.1-9.1-9.1H37.8C17,78.6,0,95.6,0,116.4v239.2c0,20.8,17,37.8,37.8,37.8h171.7v59.1H129c-5,0-9.1,4.1-9.1,9.1
	s4.1,9.1,9.1,9.1h179.2c5,0,9.1-4.1,9.1-9.1s-4.1-9.1-9.1-9.1h-80.5v-59.1h171.7c20.8,0,37.8-17,37.8-37.8V116
	C437.1,111,433.1,107,428.1,107z M399.3,375.4H37.8c-10.8,0-19.7-8.8-19.7-19.7v-22.4H419v22.4C419,366.5,410.2,375.4,399.3,375.4z"
	/>
<path class="st1" d="M437.1,116.4c0-20.8-17-37.8-37.8-37.8h-202c-5,0-9.1,4.1-9.1,9.1s4.1,9.1,9.1,9.1h202
	c10.9,0,19.7,8.9,19.7,19.7 M209.4,393.4v59.1h-80.5c-5,0-9.1,4.1-9.1,9.1s4.1,9.1,9.1,9.1h179.2c5,0,9.1-4.1,9.1-9.1
	s-4.1-9.1-9.1-9.1h-80.5v-59.1"/>
<circle class="st2" cx="192.3" cy="164" r="24.8"/>
<circle class="st2" cx="260.7" cy="252.3" r="24.8"/>
<path class="st3" d="M272.4,130.8c0.7-1.1,2.3-1.5,3.4-0.7c1.1,0.7,1.5,2.3,0.7,3.4l-99.1,152c-0.7,1.1-2.3,1.5-3.4,0.7
	c-1.1-0.7-1.5-2.3-0.7-3.4L272.4,130.8z"/>
<path class="st3" d="M167.7,164c0,6.8,2.7,12.9,7.2,17.3l0,0c4.4,4.4,10.6,7.2,17.3,7.2c6.8,0,12.9-2.8,17.3-7.2l0.1-0.1
	c4.4-4.4,7.1-10.5,7.1-17.2c0-6.8-2.7-12.9-7.2-17.3l0,0l0,0c-4.4-4.4-10.6-7.2-17.3-7.2c-6.8,0-12.9,2.7-17.3,7.2l0,0
	C170.5,151.1,167.7,157.2,167.7,164L167.7,164z M171.5,184.8L171.5,184.8L171.5,184.8c-5.3-5.3-8.6-12.7-8.6-20.8s3.3-15.5,8.6-20.8
	l0,0l0,0l0,0c5.3-5.3,12.7-8.6,20.8-8.6c8.1,0,15.5,3.3,20.8,8.6l0,0c5.3,5.3,8.6,12.7,8.6,20.8c0,8-3.2,15.3-8.5,20.6l-0.1,0.2
	c-5.3,5.3-12.7,8.6-20.8,8.6C184.2,193.4,176.8,190.1,171.5,184.8L171.5,184.8z"/>
<path class="st3" d="M236.2,252.3c0,6.8,2.7,12.9,7.2,17.3l0,0l0,0c4.4,4.4,10.6,7.2,17.3,7.2c6.8,0,12.9-2.7,17.3-7.2l0,0
	c4.4-4.4,7.2-10.6,7.2-17.3c0-6.8-2.7-12.9-7.2-17.3l0,0l0,0c-4.4-4.4-10.6-7.2-17.3-7.2c-6.8,0-12.9,2.7-17.3,7.2l0,0
	C238.9,239.3,236.2,245.5,236.2,252.3L236.2,252.3z M239.9,273.1c-5.3-5.3-8.6-12.7-8.6-20.8c0-8.1,3.3-15.5,8.6-20.8l0,0l0,0l0,0
	c5.3-5.3,12.7-8.6,20.8-8.6c8.1,0,15.5,3.3,20.8,8.6l0,0c5.3,5.3,8.6,12.7,8.6,20.8c0,8.1-3.3,15.5-8.6,20.8l0,0l0,0l0,0
	c-5.3,5.3-12.7,8.6-20.8,8.6C252.6,281.7,245.2,278.4,239.9,273.1L239.9,273.1z"/>
</svg>
