<svg id="Capa_1" xmlns="http://www.w3.org/2000/svg" viewBox="0 0 1293 512"><style>.st0{fill:#fff}.st3{fill:#202020}</style><path class="st0" d="M245.4 511.7c4.5-.3 8.9-.1 13.4.2h.2c7-.1 13.9-.4 20.7-1.1 4.7-.4 9.4-1 14-1.7 14.1-2.1 27.9-5.3 41.2-9.6.7-.2 1.4-.5 2.1-.7 10.2-3.4 20.2-7.5 29.8-12.1 6.4-3.1 12.6-6.4 18.6-9.9 6.3-3.7 12.5-7.7 18.5-11.9 3-2.1 6-4.4 8.9-6.6 7.1-5.5 13.9-11.3 20.3-17.5 48.9-46.9 79.3-113.1 78.8-186.4C511.1 113 396.7-.4 255.2 0 140.4.3 43.4 76.3 11.3 180.7c-2.8 9.1-5.1 18.4-6.9 27.9C1.5 223.9 0 239.8 0 256c0 30.1 5.2 58.9 14.7 85.7 3.2 9.1 6.9 17.9 11.1 26.5 6 12.3 13 24.1 20.8 35.2 9.5 13.5 20.2 26 32.1 37.4 30.9 29.7 69.2 51.7 111.9 62.9 1.7.4 3.4.9 5.1 1.3 8.6 2.1 17.4 3.7 26.4 4.9 5.7.8 11.4 1.3 17.2 1.7 2 .1 3.9.2 5.9.3.1-.1.2-.1.2-.2z"/><path class="st0" d="M1293 511.4H262.8c-1.1 0-1.9-.9-1.9-1.9V.1H1293v511.3z"/><circle id="XMLID_1732_" cx="183.5" cy="204.7" r="59.3" fill="#88cdc8"/><circle id="XMLID_1731_" cx="260.6" cy="93.2" r="38.9" fill="#bcbebe"/><path class="st3" d="M428 321.5v-35.9c0-12.2-9.9-22-22-22h-5.4c-7.5-19.7-20.4-37.6-37.6-52.1 0-.1 0-.1-.1-.2-2.6-9-.7-18.7 5.6-28.8 3.4-5.4 3.3-12-.1-17.3s-9.4-8.1-15.7-7.4c-24 3-38.2 13.9-46.5 24-8-2.2-16.2-3.9-24.5-4.9-4.1-.5-7.9 2.5-8.4 6.5-.5 4.1 2.5 7.9 6.5 8.4 9.2 1.1 18.2 3.1 26.9 5.8 3.1 1 6.6-.2 8.5-3 5.7-8.5 17.2-19.3 39.2-22 .2 0 .7-.1 1.2.5.4.7.1 1.1 0 1.2-8.5 13.6-11 27.8-7.3 40.9 0 .1.1.2.1.3.1 2.2 1.1 4.2 2.8 5.6 17.6 14.2 30.3 32.2 36.8 52.1 1 3.1 3.9 5.1 7.1 5.1H406c3.9 0 7 3.1 7 7v35.9c0 3.9-3.1 7-7 7h-10c-3.3 0-6.2 2.2-7.2 5.3-4.7 15.3-25.2 41.1-33.2 50.4l-1.8 1.6c-16.8 15.2-18.6 33.2-18.7 38.4V436c0 .2-.2.3-.3.3h-48c-.2 0-.3-.2-.3-.3v-11.4c0-2.2-.9-4.1-2.5-5.6s-3.7-2.1-5.8-1.9c-12.1 1.2-24.4 1.1-36.2-.5-2.2-.2-4.3.3-6 1.8-1.7 1.4-2.6 3.5-2.6 5.6v11.9c0 .2-.2.3-.3.3h-48c-.2 0-.3-.2-.3-.3v-3.6-.3c-.4-8.6-3.1-30.5-20.1-48-8.2-8.5-15.6-19.6-21.8-33.1-.1-.1-.1-.2-.2-.2-3.7-7.2-6.5-14.8-8.5-22.5 0-.1 0-.2-.1-.2h-.1c0-.1-.1-.2-.1-.2-3-10-2.7-22.6-2.7-22.8v-.2c0-5.6.5-11.1 1.4-16.5.7-4.1-2.1-8-6.1-8.6s-8 2.1-8.6 6.1c-1.1 6.2-1.6 12.5-1.6 18.9 0 1.6-.2 15.4 3.3 27.4l.1.2c2.2 8.9 5.4 17.5 9.6 25.7 7 15 15.2 27.5 24.6 37.1 13.3 13.8 15.6 31.1 15.9 38v4.4c.6 8 7.3 14.3 15.3 14.3h48c8.5 0 15.4-6.9 15.4-15.4v-3.5c7.6.7 15.3.7 23 .3v3.1c0 8.5 6.9 15.4 15.4 15.4h48c8.5 0 15.4-6.9 15.4-15.4v-11.8c.1-2.8 1.2-16.1 13.7-27.4l2.2-1.8.7-.7c1.2-1.3 25.5-29.4 34.6-50.9h4.8c11.8-.1 21.7-10.1 21.7-22.2z"/><path class="st3" d="M116.7 204.7c0 36.9 30 66.8 66.8 66.8s66.8-30 66.8-66.8-30-66.8-66.8-66.8-66.8 30-66.8 66.8zm118.6 0c0 28.6-23.2 51.8-51.8 51.8s-51.8-23.2-51.8-51.8 23.2-51.8 51.8-51.8 51.8 23.3 51.8 51.8zM214.3 93.2c0 25.6 20.8 46.4 46.4 46.4s46.4-20.8 46.4-46.4-20.8-46.4-46.4-46.4-46.4 20.8-46.4 46.4zm77.7 0c0 17.3-14.1 31.4-31.4 31.4s-31.4-14.1-31.4-31.4 14.1-31.4 31.4-31.4S292 75.9 292 93.2z"/></svg>