<?xml version="1.0" encoding="utf-8"?>
<!-- Generator: Adobe Illustrator 21.1.0, SVG Export Plug-In . SVG Version: 6.00 Build 0)  -->
<svg version="1.1" id="Capa_1" xmlns="http://www.w3.org/2000/svg" xmlns:xlink="http://www.w3.org/1999/xlink" x="0px" y="0px"
	 viewBox="0 0 1293 512" style="enable-background:new 0 0 1293 512;" xml:space="preserve">
<style type="text/css">
	.st0{fill:#FFFFFF;}
	.st1{fill:#88CDC8;}
	.st2{fill:#BCBEBE;}
	.st3{fill:#202020;}
</style>
<path class="st0" d="M245.4,511.7c4.5-0.3,8.9-0.1,13.4,0.2c0.1,0,0.1,0,0.2,0c7-0.1,13.9-0.4,20.7-1.1c4.7-0.4,9.4-1,14-1.7
	c14.1-2.1,27.9-5.3,41.2-9.6c0.7-0.2,1.4-0.5,2.1-0.7c10.2-3.4,20.2-7.5,29.8-12.1c6.4-3.1,12.6-6.4,18.6-9.9
	c6.3-3.7,12.5-7.7,18.5-11.9c3-2.1,6-4.4,8.9-6.6c7.1-5.5,13.9-11.3,20.3-17.5c48.9-46.9,79.3-113.1,78.8-186.4
	C511.1,113,396.7-0.4,255.2,0C140.4,0.3,43.4,76.3,11.3,180.7c-2.8,9.1-5.1,18.4-6.9,27.9C1.5,223.9,0,239.8,0,256
	c0,30.1,5.2,58.9,14.7,85.7c3.2,9.1,6.9,17.9,11.1,26.5c6,12.3,13,24.1,20.8,35.2c9.5,13.5,20.2,26,32.1,37.4l0,0
	c30.9,29.7,69.2,51.7,111.9,62.9c1.7,0.4,3.4,0.9,5.1,1.3c8.6,2.1,17.4,3.7,26.4,4.9c5.7,0.8,11.4,1.3,17.2,1.7
	c2,0.1,3.9,0.2,5.9,0.3C245.3,511.8,245.4,511.8,245.4,511.7z"/>
<path class="st0" d="M1293,511.4H262.8c-1.1,0-1.9-0.9-1.9-1.9V0.1H1293V511.4z"/>
<circle id="XMLID_1732_" class="st1" cx="183.5" cy="204.7" r="59.3"/>
<circle id="XMLID_1731_" class="st2" cx="260.6" cy="93.2" r="38.9"/>
<path class="st3" d="M428,321.5v-35.9c0-12.2-9.9-22-22-22h-5.4c-7.5-19.7-20.4-37.6-37.6-52.1c0-0.1,0-0.1-0.1-0.2
	c-2.6-9-0.7-18.7,5.6-28.8c3.4-5.4,3.3-12-0.1-17.3s-9.4-8.1-15.7-7.4c-24,3-38.2,13.9-46.5,24c-8-2.2-16.2-3.9-24.5-4.9
	c-4.1-0.5-7.9,2.5-8.4,6.5c-0.5,4.1,2.5,7.9,6.5,8.4c9.2,1.1,18.2,3.1,26.9,5.8c3.1,1,6.6-0.2,8.5-3c5.7-8.5,17.2-19.3,39.2-22
	c0.2,0,0.7-0.1,1.2,0.5c0.4,0.7,0.1,1.1,0,1.2c-8.5,13.6-11,27.8-7.3,40.9c0,0.1,0.1,0.2,0.1,0.3c0.1,2.2,1.1,4.2,2.8,5.6
	c17.6,14.2,30.3,32.2,36.8,52.1c1,3.1,3.9,5.1,7.1,5.1c0.1,0,0.1,0,0.2,0H406c3.9,0,7,3.1,7,7v35.9c0,3.9-3.1,7-7,7h-10
	c-3.3,0-6.2,2.2-7.2,5.3c-4.7,15.3-25.2,41.1-33.2,50.4l-1.8,1.6c-16.8,15.2-18.6,33.2-18.7,38.4c0,0.1,0,0.1,0,0.2v11.9
	c0,0.2-0.2,0.3-0.3,0.3h-48c-0.2,0-0.3-0.2-0.3-0.3v-11.4c0-2.2-0.9-4.1-2.5-5.6s-3.7-2.1-5.8-1.9c-12.1,1.2-24.4,1.1-36.2-0.5
	c-2.2-0.2-4.3,0.3-6,1.8c-1.7,1.4-2.6,3.5-2.6,5.6v11.9c0,0.2-0.2,0.3-0.3,0.3h-48c-0.2,0-0.3-0.2-0.3-0.3v-3.6c0-0.1,0-0.2,0-0.3
	c-0.4-8.6-3.1-30.5-20.1-48c-8.2-8.5-15.6-19.6-21.8-33.1c-0.1-0.1-0.1-0.2-0.2-0.2c-3.7-7.2-6.5-14.8-8.5-22.5c0-0.1,0-0.2-0.1-0.2
	L134,328c0-0.1-0.1-0.2-0.1-0.2c-3-10-2.7-22.6-2.7-22.8c0-0.1,0-0.2,0-0.2c0-5.6,0.5-11.1,1.4-16.5c0.7-4.1-2.1-8-6.1-8.6
	s-8,2.1-8.6,6.1c-1.1,6.2-1.6,12.5-1.6,18.9c0,1.6-0.2,15.4,3.3,27.4l0.1,0.2c2.2,8.9,5.4,17.5,9.6,25.7c7,15,15.2,27.5,24.6,37.1
	c13.3,13.8,15.6,31.1,15.9,38v3.4c0,0.2,0,0.6,0,0.8c0,0.1,0,0.2,0,0.2c0.6,8,7.3,14.3,15.3,14.3h48c8.5,0,15.4-6.9,15.4-15.4v-3.5
	c7.6,0.7,15.3,0.7,23,0.3v3.1c0,8.5,6.9,15.4,15.4,15.4h48c8.5,0,15.4-6.9,15.4-15.4v-11.8c0.1-2.8,1.2-16.1,13.7-27.4l2.2-1.8
	c0.2-0.2,0.5-0.5,0.7-0.7c1.2-1.3,25.5-29.4,34.6-50.9h4.8C418.1,343.6,428,333.6,428,321.5z"/>
<path class="st3" d="M116.7,204.7c0,36.9,30,66.8,66.8,66.8s66.8-30,66.8-66.8s-30-66.8-66.8-66.8S116.7,167.9,116.7,204.7z
	 M235.3,204.7c0,28.6-23.2,51.8-51.8,51.8s-51.8-23.2-51.8-51.8s23.2-51.8,51.8-51.8S235.3,176.2,235.3,204.7z"/>
<path class="st3" d="M214.3,93.2c0,25.6,20.8,46.4,46.4,46.4s46.4-20.8,46.4-46.4s-20.8-46.4-46.4-46.4S214.3,67.6,214.3,93.2z
	 M292,93.2c0,17.3-14.1,31.4-31.4,31.4s-31.4-14.1-31.4-31.4s14.1-31.4,31.4-31.4S292,75.9,292,93.2z"/>
</svg>
