<svg xmlns="http://www.w3.org/2000/svg" viewBox="0 0 1005 27"><defs><style>.cls-2{fill:#f5f5f5}</style><linearGradient id="New_Gradient_Swatch_1" y1="13.5" x2="1005" y2="13.5" gradientUnits="userSpaceOnUse"><stop offset="0" stop-color="#80cac4"/><stop offset="1" stop-color="#2c4b73"/></linearGradient></defs><path d="M991.5 0a13.5 13.5 0 0 0-13.3 11h-72.4a13.5 13.5 0 0 0-26.6 0h-69.4a13.5 13.5 0 0 0-26.6 0h-71.4a13.5 13.5 0 0 0-26.6 0h-71.4a13.5 13.5 0 0 0-26.6 0h-74.4a13.5 13.5 0 0 0-26.6 0h-68.4a13.5 13.5 0 0 0-26.6 0h-71.4a13.5 13.5 0 0 0-26.6 0h-68.4a13.5 13.5 0 0 0-26.6 0h-73.4a13.5 13.5 0 0 0-26.6 0H26.8a13.5 13.5 0 1 0-.3 6h72a13.5 13.5 0 0 0 26 0h74a13.5 13.5 0 0 0 26 0h69a13.5 13.5 0 0 0 26 0h72a13.5 13.5 0 0 0 26 0h69a13.5 13.5 0 0 0 26 0h75a13.5 13.5 0 0 0 26 0h72a13.5 13.5 0 0 0 26 0h72a13.5 13.5 0 0 0 26 0h70a13.5 13.5 0 0 0 26 0h73a13.5 13.5 0 1 0 13-17zm-978 21a7.5 7.5 0 1 1 7.5-7.5 7.5 7.5 0 0 1-7.5 7.5zm98 0a7.5 7.5 0 1 1 7.5-7.5 7.5 7.5 0 0 1-7.5 7.5zm100 0a7.5 7.5 0 1 1 7.5-7.5 7.5 7.5 0 0 1-7.5 7.5zm95 0a7.5 7.5 0 1 1 7.5-7.5 7.5 7.5 0 0 1-7.5 7.5zm98 0a7.5 7.5 0 1 1 7.5-7.5 7.5 7.5 0 0 1-7.5 7.5zm95 0a7.5 7.5 0 1 1 7.5-7.5 7.5 7.5 0 0 1-7.5 7.5zm101 0a7.5 7.5 0 1 1 7.5-7.5 7.5 7.5 0 0 1-7.5 7.5zm98 0a7.5 7.5 0 1 1 7.5-7.5 7.5 7.5 0 0 1-7.5 7.5zm98 0a7.5 7.5 0 1 1 7.5-7.5 7.5 7.5 0 0 1-7.5 7.5zm96 0a7.5 7.5 0 1 1 7.5-7.5 7.5 7.5 0 0 1-7.5 7.5zm99 0a7.5 7.5 0 1 1 7.5-7.5 7.5 7.5 0 0 1-7.5 7.5z" fill="url(#New_Gradient_Swatch_1)" id="dotted-line"/><g id="Layer_3" data-name="Layer 3"><circle id="circle1" class="cls-2" cx="13.5" cy="13.5" r="7.5"/><circle id="circle2" class="cls-2" cx="111.5" cy="13.5" r="7.5"/><circle id="circle3" class="cls-2" cx="211.5" cy="13.5" r="7.5"/><circle id="circle4" class="cls-2" cx="306.5" cy="13.5" r="7.5"/><circle id="circle5" class="cls-2" cx="404.5" cy="13.5" r="7.5"/><circle id="circle6" class="cls-2" cx="499.5" cy="13.5" r="7.5"/><circle id="circle7" class="cls-2" cx="600.5" cy="13.5" r="7.5"/><circle id="circle8" class="cls-2" cx="698.5" cy="13.5" r="7.5"/><circle id="circle9" class="cls-2" cx="796.5" cy="13.5" r="7.5"/><circle id="circle10" class="cls-2" cx="892.5" cy="13.5" r="7.5"/><circle id="circle11" class="cls-2" cx="991.5" cy="13.5" r="7.5"/></g><path d="M13.5 0A13.5 13.5 0 1 0 27 13.5 13.51 13.51 0 0 0 13.5 0zm98 0A13.5 13.5 0 1 0 125 13.5 13.51 13.51 0 0 0 111.5 0zm100 0A13.5 13.5 0 1 0 225 13.5 13.51 13.51 0 0 0 211.5 0zm95 0A13.5 13.5 0 1 0 320 13.5 13.51 13.51 0 0 0 306.5 0zm98 0A13.5 13.5 0 1 0 418 13.5 13.51 13.51 0 0 0 404.5 0zm95 0A13.5 13.5 0 1 0 513 13.5 13.51 13.51 0 0 0 499.5 0zm101 0A13.5 13.5 0 1 0 614 13.5 13.51 13.51 0 0 0 600.5 0zm98 0A13.5 13.5 0 1 0 712 13.5 13.51 13.51 0 0 0 698.5 0zm98 0A13.5 13.5 0 1 0 810 13.5 13.51 13.51 0 0 0 796.5 0zm96 0A13.5 13.5 0 1 0 906 13.5 13.51 13.51 0 0 0 892.5 0zm99 0a13.5 13.5 0 1 0 13.5 13.5A13.51 13.51 0 0 0 991.5 0z" fill="#00d9a2" id="Layer_4" data-name="Layer 4"/></svg>