<svg data-name="Layer 1" xmlns="http://www.w3.org/2000/svg" viewBox="0 0 42 42"><path d="M21 2A19 19 0 1 1 2 21 19 19 0 0 1 21 2m0-2a21 21 0 1 0 21 21A21 21 0 0 0 21 0z"/><path d="M16.06 10.13a.24.24 0 0 0-.21-.13h-1.5a.23.23 0 0 0-.23.15l-1.49 3.28-.21.48-.24.53q-.29-.68-.44-1l-1.68-3.32a.25.25 0 0 0-.22-.12H8.32a.24.24 0 0 0-.22.13.27.27 0 0 0 0 .25l2.51 4.52H8.94a.25.25 0 0 0-.25.25V16a.24.24 0 0 0 .07.18.25.25 0 0 0 .18.07h2.25v.66H8.94a.25.25 0 0 0-.25.25v.8a.24.24 0 0 0 .07.18.25.25 0 0 0 .18.07h2.25v2.58a.24.24 0 0 0 .07.18.25.25 0 0 0 .18.07h1.34a.25.25 0 0 0 .25-.25v-2.62h2.27a.25.25 0 0 0 .18-.07.24.24 0 0 0 .07-.18v-.8a.25.25 0 0 0-.25-.25H13v-.67h2.3a.25.25 0 0 0 .18-.07.24.24 0 0 0 .07-.18v-.81a.25.25 0 0 0-.25-.25h-1.68l2.45-4.52a.24.24 0 0 0-.01-.24zM22.95 27.36a16.86 16.86 0 0 0-1.71-.77 3.84 3.84 0 0 1-.94-.53.82.82 0 0 1 .2-1.45 1.65 1.65 0 0 1 .58-.12 4.37 4.37 0 0 1 2.16.43c.34.16.45.11.57-.24s.22-.76.34-1.14a.4.4 0 0 0-.26-.53 5.5 5.5 0 0 0-1.36-.41c-.62-.1-.62-.1-.62-.72 0-.88 0-.88-.88-.88h-.38c-.41 0-.48.08-.49.5v.56c0 .55 0 .54-.53.73a2.93 2.93 0 0 0-2.14 2.72A2.79 2.79 0 0 0 19 28.17a17.42 17.42 0 0 0 2 .88 2.92 2.92 0 0 1 .72.42 1 1 0 0 1-.23 1.72 2.36 2.36 0 0 1-1.26.16 5.64 5.64 0 0 1-1.93-.58c-.36-.19-.46-.14-.58.25s-.2.67-.29 1-.08.56.35.77a6.15 6.15 0 0 0 1.73.5c.47.08.48.1.49.58v.66a.39.39 0 0 0 .42.45h1a.37.37 0 0 0 .4-.42v-.91a.48.48 0 0 1 .41-.54 3.27 3.27 0 0 0 1.7-1.11 3.07 3.07 0 0 0-.98-4.64zM33.81 19.81c-.12-.3-.25-.6-.39-.9a.43.43 0 0 0-.57-.28c-.37.08-.73.2-1.1.27a4.14 4.14 0 0 1-2.12-.06A2.51 2.51 0 0 1 28 17.11h2.38a.34.34 0 0 0 .34-.34V16a.34.34 0 0 0-.34-.34h-2.6v-.61h2.61a.34.34 0 0 0 .34-.34V14a.34.34 0 0 0-.34-.34h-2.28a2.43 2.43 0 0 1 1.33-1.38 4 4 0 0 1 2.33-.13c.37.08.74.19 1.11.27a.42.42 0 0 0 .55-.27c.13-.29.26-.59.38-.89a.45.45 0 0 0-.22-.64l-.21-.1a6.44 6.44 0 0 0-3.41-.4 4.87 4.87 0 0 0-2.26.93A5 5 0 0 0 26 13.52v.12h-1.2a.34.34 0 0 0-.34.34v.75a.34.34 0 0 0 .34.34h.93v.61h-.93a.34.34 0 0 0-.34.34v.75a.34.34 0 0 0 .34.34h1.11c.08.27.16.55.26.82a4.63 4.63 0 0 0 2.93 2.79 6.06 6.06 0 0 0 3.55 0 5.9 5.9 0 0 0 .91-.33.43.43 0 0 0 .25-.58z"/></svg>