<svg xmlns="http://www.w3.org/2000/svg" viewBox="0 0 490 490"><path fill="#a7a9ac" d="M9.094 246.498L61.712 93.073l62.713 21.508-52.617 153.425z"/><path d="M170 106.1l-6.1 3c-7.6 3.7-16.5 4.2-24.4 1.4l-10.2-3.6c-.6-.4-1.2-.7-1.8-.9L64.7 84.5c-4.7-1.6-9.9.9-11.5 5.6L.5 243.6c-.8 2.3-.6 4.8.4 6.9s2.9 3.8 5.2 4.6l62.7 21.5c1 .3 2 .5 2.9.5 3.8 0 7.3-2.4 8.6-6.1L130 126.4l3.4 1.2c12.5 4.4 26.5 3.6 38.5-2.2l6.1-3c7.5-3.7 16.3-4.2 24.2-1.5l115.3 39.7c-1.2 4.8-3.6 10.5-8 13.6-4.9 3.4-12.2 3.4-21.8.1l-51.4-17.6c-2.4-.8-5-.6-7.2.6s-3.8 3.3-4.5 5.7c-.1.3-7.2 26.9-29.9 39.1-14.3 7.7-32.1 8-53 .9-4.7-1.6-9.9.9-11.5 5.6-1.6 4.7.9 9.9 5.6 11.5 12 4.1 23.3 6.2 33.8 6.2 12.2 0 23.4-2.7 33.6-8.2 20.3-10.9 30.8-30 35.6-41.4l42.9 14.7c15.3 5.3 28.1 4.5 38-2.4 15.9-11 16.7-33.3 16.8-34.3.1-4-2.4-7.5-6.1-8.8L208 103.7c-12.3-4.2-26.2-3.3-38 2.4zM66.2 256.5l-45.6-15.6 46.7-136.3 45.6 15.6-46.7 136.3z"/><path fill="#5bcec9" d="M350.035 123.3l59.55-29.138 71.288 145.688-59.55 29.139z"/><path d="M410.2 266.8l-21.5 19.8c-19.5 17.9-41.5 33-65.3 44.6L209.3 387c-5 2.5-11.1.4-13.6-4.7-2.5-5-.4-11.1 4.7-13.6l1.4-.7 62.4-30.5c4.5-2.2 6.4-7.6 4.2-12.1s-7.6-6.4-12.1-4.2l-62.4 30.5-31.4 15.4c-5 2.5-11.1.4-13.6-4.7-1.2-2.4-1.4-5.2-.5-7.7.9-2.6 2.7-4.6 5.1-5.8l23.7-11.6 67.8-33.2c4.5-2.2 6.4-7.6 4.2-12.1s-7.6-6.4-12.1-4.2l-67.9 33.3-2.6 1.3-32.4 15.9c-2.4 1.2-5.2 1.4-7.7.5-2.6-.9-4.6-2.7-5.8-5.1-2.5-5-.4-11.1 4.7-13.6l11.2-5.5 22.9-11.2 6.4-3.1 52.6-25.8c4.5-2.2 6.4-7.6 4.2-12.1s-7.6-6.4-12.1-4.2l-57 27.9-24.9 12.2c-5 2.4-11.1.4-13.6-4.7-1.2-2.4-1.4-5.2-.5-7.7.9-2.6 2.7-4.6 5.1-5.8l43.5-21.3c4.5-2.2 6.4-7.6 4.2-12.1s-7.6-6.4-12.1-4.2l-43.5 21.3c-6.8 3.3-11.9 9.1-14.3 16.2s-2 14.8 1.3 21.6c2.1 4.2 5.1 7.7 8.7 10.3-6.3 8.3-7.9 19.7-3 29.7 3.3 6.8 9.1 11.9 16.2 14.3 3 1 6 1.5 9 1.5-.1 4.5.8 9 2.9 13.1 4.9 10 15 15.8 25.4 15.8 4.2 0 8.4-.9 12.4-2.9l6.4-3.1c.3 3.4 1.2 6.7 2.7 9.9 4.9 10 15 15.8 25.4 15.8 4.2 0 8.4-.9 12.4-2.9l114.1-55.8c25.4-12.4 48.8-28.4 69.6-47.5l25.5-23.5 58.4-28.6c4.5-2.2 6.4-7.6 4.2-12.1L417.7 90.1c-1.1-2.2-2.9-3.8-5.2-4.6-2.3-.8-4.8-.6-6.9.4L346 115c-4.5 2.2-6.4 7.6-4.2 12.1l68.4 139.7zm-4.8-160.6l63.3 129.5-43.3 21.2-63.3-129.5 43.3-21.2z"/></svg>