<?xml version="1.0" encoding="utf-8"?>
<!-- Generator: Adobe Illustrator 21.1.0, SVG Export Plug-In . SVG Version: 6.00 Build 0)  -->
<svg version="1.1" id="Layer_1" xmlns="http://www.w3.org/2000/svg" xmlns:xlink="http://www.w3.org/1999/xlink" x="0px" y="0px"
	 viewBox="0 0 489.7 489.7" style="enable-background:new 0 0 489.7 489.7;" xml:space="preserve">
<style type="text/css">
	.st0{fill:#5BCEC9;}
</style>
<g id="XMLID_786_">
	<path id="XMLID_787_" class="st0" d="M209.1,287.9c-17.2,13.4-37,16.6-49.9,14.6c-4.2-0.7-5.1-6.4-1.3-8.3
		c12.3-6.1,19.6-19.5,23.8-28.9c-39.2-44.2-37.6-111.9,4.7-154.3c44-44,115.3-44,159.3,0s44,115.3,0,159.3
		C308.7,307.5,252.2,313.3,209.1,287.9z"/>
</g>
<path d="M265.9,0c-28.8,0-56.6,6.2-82.5,18.5C115.7,50,71.8,118.6,71.8,193.4v28.3l-36.5,69.6c-6,11.5-6.4,23.2-1,32.1
	s15.9,14,28.9,14h8.6v59c0,26.3,21.4,47.7,47.7,47.7c0.4,0,0.9,0,1.3-0.1l42.7-6.4l0.1,43c0,5,4.1,9.1,9.1,9.1h217.6
	c5,0,9.1-4.1,9.1-9.1v-148c38-36.3,59.7-87,59.7-139.6C459,86.6,372.4,0,265.9,0z M384.2,322.1c-1.9,1.7-2.9,4.1-2.9,6.7v142.9
	H181.8l-0.1-44.5c0-2.6-1.2-5.1-3.1-6.9c-2-1.7-4.6-2.5-7.2-2.1L119,426c-16-0.3-29-13.5-29-29.6v-68.1c0-5-4.1-9.1-9.1-9.1H63.3
	c-6.5,0-11.4-1.9-13.4-5.3s-1.5-8.6,1.5-14.3L88.9,228c0.7-1.3,1-2.7,1-4.2v-30.6c0-67.7,39.7-129.9,101.2-158.5
	c23.5-11.1,48.6-16.8,74.8-16.8c96.5,0,175,78.5,175,175C440.9,242,420.2,289,384.2,322.1z"/>
<path d="M266.1,69.1c-32.5,0-63.1,12.7-86.1,35.6c-44,44-47.5,114-9,162.1c-5,9.7-10.7,16.2-17.1,19.4c-5.3,2.6-8.2,8.2-7.4,14.1
	c0.9,5.8,5.4,10.4,11.2,11.3c2.8,0.4,5.7,0.7,8.8,0.7c14.6,0,30-4.9,43.1-13.5c17.3,9.1,36.7,13.8,56.4,13.8
	c32.5,0,63.1-12.7,86.1-35.6c47.5-47.5,47.5-124.7,0-172.1C329.2,81.7,298.6,69.1,266.1,69.1z M339.3,264
	c-19.6,19.6-45.6,30.3-73.2,30.3c-18.5,0-36.6-4.9-52.5-14.2c-1.4-0.8-3-1.3-4.6-1.3c-2,0-3.9,0.6-5.6,1.9
	c-10.8,8.4-21.6,11.5-29.2,12.6c6-6,11.2-14.1,15.7-24.4c1.4-3.2,0.8-7-1.5-9.6c-36.2-40.9-34.3-103.2,4.4-141.8
	c19.6-19.6,45.6-30.3,73.2-30.3s53.7,10.8,73.2,30.3C379.7,157.9,379.7,223.6,339.3,264z"/>
<path d="M266.1,181.7c-2.4,0-4.7,1-6.4,2.7c-1.7,1.7-2.6,4-2.6,6.4s1,4.7,2.6,6.4c1.7,1.7,4,2.7,6.4,2.7s4.7-1,6.4-2.7
	c1.7-1.7,2.6-4,2.6-6.4s-1-4.7-2.6-6.4C270.8,182.7,268.5,181.7,266.1,181.7z"/>
<path d="M299.8,181.7c-2.4,0-4.7,1-6.4,2.7c-1.7,1.7-2.6,4-2.6,6.4s1,4.7,2.6,6.4c1.7,1.7,4,2.7,6.4,2.7s4.7-1,6.4-2.7
	c1.7-1.7,2.6-4,2.6-6.4s-1-4.7-2.6-6.4S302.2,181.7,299.8,181.7z"/>
<path d="M232.4,181.7c-2.4,0-4.7,1-6.4,2.7s-2.6,4-2.6,6.4s0.9,4.7,2.6,6.4c1.7,1.7,4,2.7,6.4,2.7s4.7-1,6.4-2.7s2.6-4,2.6-6.4
	s-1-4.7-2.6-6.4C237.1,182.7,234.7,181.7,232.4,181.7z"/>
</svg>
