<svg id="icobench-widget" xmlns="http://www.w3.org/2000/svg" viewBox="0 0 125 125">
  <style>
    .st1{fill:#fff}
    .st2{font: 600 36px 'Montserrat', sans-serif;text-align:center;}
  </style>
  <path fill="#4954ac" stroke="#5a67b9" stroke-width="8" stroke-miterlimit="10" d="M4 4h117v117H4z"/>
  <text transform="translate(33.6 63.2)" class="st1 st2">
    3.7
  </text>
  <path fill="#4954ac" d="M194.3 15.9h320v124h-320z"/>
  <path fill="#5a67b9" d="M194.3-128.4h320v124h-320z"/>
  <g>
    <path class="st1" d="M15.5 111.3h27.8V83.6H15.5v27.7zm.9-26.8h25.9v25.9H16.4V84.5z"/>
    <path class="st1" d="M20.1 93.3h.9v8.3h-.9z"/>
    <path class="st1" d="M26.7 100.7c-1.9 0-3.4-1.5-3.4-3.3 0-1.9 1.5-3.3 3.4-3.3.9 0 1.9.4 2.4 1.1l.6-.7c-.8-.7-1.9-1.2-3-1.2-2.4 0-4.4 1.9-4.4 4.2 0 2.4 1.9 4.2 4.3 4.2 1.1 0 2.2-.5 3.1-1.3l-.6-.7c-.6.7-1.4 1-2.4 1z"/>
    <path class="st1" d="M34.3 93.3c-2.4 0-4.4 1.9-4.4 4.2s1.9 4.2 4.4 4.2 4.4-1.9 4.4-4.2c0-2.4-2-4.2-4.4-4.2zm0 7.4c-1.9 0-3.4-1.5-3.4-3.3 0-1.9 1.5-3.3 3.4-3.3s3.4 1.5 3.4 3.3c0 1.9-1.6 3.3-3.4 3.3z"/>
    <path class="st1" d="M53.9 93.6c-1.5 0-2.6.6-3.4 1.6v-5.7h-3.8v15.8h3.8v-1.5c.8 1.1 2 1.6 3.4 1.6 3.2 0 5.3-2.3 5.3-5.8 0-3.6-2.1-6-5.3-6zm-1 8.7c-1.5 0-2.4-1.1-2.4-2.8 0-1.7 1-2.8 2.4-2.8 1.5 0 2.5 1.2 2.5 2.8.1 1.7-1 2.8-2.5 2.8z"/>
    <path class="st1" d="M65.8 93.6c-3.6 0-6 2.4-6 6 0 3.5 2.3 5.8 6.1 5.8 2.1 0 3.8-.7 5-2.1l-2-2c-.8.8-1.7 1.2-2.7 1.2-1.3 0-2.2-.7-2.6-2.1h8c.3-4.1-1.7-6.8-5.8-6.8zm-2.3 4.9c.3-1.3 1.1-2.2 2.3-2.2 1.3 0 2.1.9 2.1 2.2h-4.4z"/>
    <path class="st1" d="M79.9 93.6c-1.7 0-3 .7-3.8 2.1v-1.9h-3.8v11.5H76v-6.1c.1-1.3 1-2.2 2.2-2.2 1.2 0 2 .8 2 2.1v6.2H84V98c0-2.7-1.7-4.4-4.1-4.4z"/>
    <path class="st1" d="M90.7 102.3c-1.4 0-2.3-1.1-2.3-2.8s.9-2.8 2.3-2.8c1 0 1.7.5 2.2 1.2l2.7-1.6c-1-1.7-2.8-2.7-5.2-2.7-3.6 0-6 2.4-6 6 0 3.5 2.4 5.8 5.9 5.8 2.4 0 4.3-1 5.2-2.8l-2.8-1.6c-.2.9-1 1.3-2 1.3z"/>
    <path class="st1" d="M103.9 93.6c-1.7 0-3 .7-3.8 2.1v-6.2h-3.8v15.8h3.8v-5.7c0-1.5.9-2.6 2.2-2.6 1.2 0 2 .8 2 2.1v6.2h3.8V98c0-2.7-1.6-4.4-4.2-4.4z"/>
  </g>
</svg>