<?xml version="1.0" encoding="utf-8"?>
<!-- Generator: Adobe Illustrator 21.0.2, SVG Export Plug-In . SVG Version: 6.00 Build 0)  -->
<svg version="1.1" id="Layer_1" xmlns="http://www.w3.org/2000/svg" xmlns:xlink="http://www.w3.org/1999/xlink" x="0px" y="0px"
	 viewBox="0 0 84 135" style="enable-background:new 0 0 84 135;" xml:space="preserve">
<style type="text/css">
	.st0{fill:#FFFFFF;}
</style>
<path class="st0" d="M13.7,89.6C15.5,74,29.5,62.8,45.2,64.5c15.6,1.7,26.9,15.7,25.2,31.3S54.6,122.7,39,121
	C23.3,119.3,12,105.2,13.7,89.6z"/>
<path class="st0" d="M80.5,0h-0.4c-1.8,0-2.9,1.2-3.3,3.7v88.5v1.5c0,6.5-2,12.8-6.1,19.1c-8,9.9-17,14.8-27,14.8h-2.8l-0.2,0.2
	v-0.2c-6.6,0-13.1-2.2-19.4-6.7c-9.4-7.5-14.1-16.8-14.1-27.8c0-5.5,1.3-10.8,3.9-16c0.7-1.3,1.4-2.5,2.2-3.7
	c0.5-0.6,0.9-1.2,1.4-1.8c0.1-0.1,0.1-0.1,0.2-0.2c0.4-0.4,0.7-0.9,1.1-1.3c0.3-0.3,0.5-0.6,0.8-0.8c0.2-0.2,0.4-0.4,0.6-0.7
	c0.4-0.4,0.8-0.8,1.2-1.2c0.1-0.1,0.2-0.2,0.3-0.2c0.5-0.5,1.1-0.9,1.6-1.4c0,0,0,0,0,0c3.9-3.2,8.3-5.4,12.9-6.6c0,0,0.1,0,0.1,0
	c0.6-0.1,1.2-0.3,1.8-0.4c0.1,0,0.2,0,0.2-0.1c0.6-0.1,1.1-0.2,1.7-0.3c0.1,0,0.2,0,0.4-0.1c0.6-0.1,1.1-0.1,1.7-0.1
	c0.2,0,0.3,0,0.5,0c0.7,0,1.4-0.1,2.2-0.1l1.7,0.2c4.6,0,10.2,1.6,16.8,4.8h1.2c1.4,0,2.4-1.1,3-3.3c0-0.9-0.3-1.8-0.9-2.6
	C57.1,53.1,49.8,51,42,51c-0.4,0-0.7,0-1.1,0l0,0l-0.1,0c-0.2,0-0.4,0-0.6,0v0c-0.3,0-0.5,0.1-0.8,0.1c-3.3,0.2-6.5,0.8-9.7,1.8
	c-4,1.1-8.1,3.1-12.3,6.1c-0.1,0.1-0.1,0.1-0.2,0.2c-0.1,0-0.1,0.1-0.2,0.1c-0.3,0.2-0.5,0.5-0.8,0.7c-1.1,0.9-2.1,1.8-3.1,2.7
	c-3.2,3-5.1,5.1-5.6,6.4c-0.1,0.1-0.1,0.2-0.2,0.3H7.2V54.7C6.7,52.2,5.5,51,3.7,51C1.2,51.4,0,52.5,0,54.2v77.5
	c0,1.6,1.2,2.7,3.7,3.3c1.8,0,3-1.2,3.5-3.7v-14.9C16.4,128.8,28,135,42,135c9.5,0,18.3-3.1,26.3-9.4C78.7,116.5,84,106,84,94.4V3
	C84,1.4,82.8,0.4,80.5,0z"/>
</svg>
