<svg id="Layer_1" xmlns="http://www.w3.org/2000/svg" viewBox="0 0 84 135"><style>.st0{fill:#fff}</style><path class="st0" d="M13.7 89.6C15.5 74 29.5 62.8 45.2 64.5c15.6 1.7 26.9 15.7 25.2 31.3S54.6 122.7 39 121c-15.7-1.7-27-15.8-25.3-31.4z"/><path class="st0" d="M80.5 0h-.4c-1.8 0-2.9 1.2-3.3 3.7v90c0 6.5-2 12.8-6.1 19.1-8 9.9-17 14.8-27 14.8h-2.8l-.2.2v-.2c-6.6 0-13.1-2.2-19.4-6.7-9.4-7.5-14.1-16.8-14.1-27.8 0-5.5 1.3-10.8 3.9-16 .7-1.3 1.4-2.5 2.2-3.7.5-.6.9-1.2 1.4-1.8l.2-.2c.4-.4.7-.9 1.1-1.3.3-.3.5-.6.8-.8.2-.2.4-.4.6-.7l1.2-1.2c.1-.1.2-.2.3-.2.5-.5 1.1-.9 1.6-1.4 3.9-3.2 8.3-5.4 12.9-6.6h.1c.6-.1 1.2-.3 1.8-.4.1 0 .2 0 .2-.1.6-.1 1.1-.2 1.7-.3.1 0 .2 0 .4-.1.6-.1 1.1-.1 1.7-.1h.5c.7 0 1.4-.1 2.2-.1l1.7.2c4.6 0 10.2 1.6 16.8 4.8h1.2c1.4 0 2.4-1.1 3-3.3 0-.9-.3-1.8-.9-2.6-6.7-4.1-14-6.2-21.8-6.2H40.2c-.3 0-.5.1-.8.1-3.3.2-6.5.8-9.7 1.8-4 1.1-8.1 3.1-12.3 6.1l-.2.2c-.1 0-.1.1-.2.1-.3.2-.5.5-.8.7-1.1.9-2.1 1.8-3.1 2.7-3.2 3-5.1 5.1-5.6 6.4-.1.1-.1.2-.2.3h-.1V54.7C6.7 52.2 5.5 51 3.7 51c-2.5.4-3.7 1.5-3.7 3.2v77.5c0 1.6 1.2 2.7 3.7 3.3 1.8 0 3-1.2 3.5-3.7v-14.9C16.4 128.8 28 135 42 135c9.5 0 18.3-3.1 26.3-9.4C78.7 116.5 84 106 84 94.4V3c0-1.6-1.2-2.6-3.5-3z"/></svg>