<svg xmlns="http://www.w3.org/2000/svg" viewBox="0 0 488.9 488.9"><path d="M364.7 461.2l18.6-18.6 18.6 18.6 18.6 18.6 18.6-18.6V152.3c0-17.8-14.4-32.3-32.3-32.3H146.7c17.8 0 32.3 14.4 32.3 32.3v308.8l18.6 18.6 18.6-18.6 18.6-18.6 18.6 18.6 18.6 18.6 18.6-18.6 18.6-18.6 18.6 18.6 18.6 18.6 18.3-18.5z" fill="#5bcec9"/><path d="M225.2 199h169.2c5 0 9.1-4.1 9.1-9.1s-4.1-9.1-9.1-9.1H225.2c-5 0-9.1 4.1-9.1 9.1s4.1 9.1 9.1 9.1zM225.2 247.3h122.9c5 0 9.1-4.1 9.1-9.1s-4.1-9.1-9.1-9.1H225.2c-5 0-9.1 4.1-9.1 9.1 0 5.1 4.1 9.1 9.1 9.1zM225.2 291.6h169.2c5 0 9.1-4.1 9.1-9.1s-4.1-9.1-9.1-9.1H225.2c-5 0-9.1 4.1-9.1 9.1 0 5.1 4.1 9.1 9.1 9.1zM241.3 323.9h-16.1c-5 0-9.1 4.1-9.1 9.1s4.1 9.1 9.1 9.1h16.1c5 0 9.1-4.1 9.1-9.1s-4.1-9.1-9.1-9.1zM241.3 368.2h-16.1c-5 0-9.1 4.1-9.1 9.1s4.1 9.1 9.1 9.1h16.1c5 0 9.1-4.1 9.1-9.1-.1-5.1-4.1-9.1-9.1-9.1zM394.4 323.9H277.5c-5 0-9.1 4.1-9.1 9.1s4.1 9.1 9.1 9.1h116.9c5 0 9.1-4.1 9.1-9.1s-4.1-9.1-9.1-9.1zM357.1 377.2c0-5-4.1-9.1-9.1-9.1h-70.5c-5 0-9.1 4.1-9.1 9.1s4.1 9.1 9.1 9.1H348c5 0 9.1-4.1 9.1-9.1z"/><path d="M339.7 486.2c3.5 3.5 9.3 3.5 12.8 0l30.8-30.8 30.8 30.8c1.8 1.8 4.1 2.7 6.4 2.7s4.6-.9 6.4-2.7l18.6-18.6c1.7-1.7 2.7-4 2.7-6.4V152.3c0-22.8-18.5-41.3-41.3-41.3h-69.5V9.1c0-5-4.1-9.1-9.1-9.1H49.8c-5 0-9.1 4.1-9.1 9.1v308.8c0 22.8 18.5 41.3 41.3 41.3h52.4c5 0 9.1-4.1 9.1-9.1s-4.1-9.1-9.1-9.1h-18.2c4.5-6.6 7.2-14.6 7.2-23.2V152.3c0-12.8 10.4-23.2 23.2-23.2s23.2 10.4 23.2 23.2v308.8c0 .6.1 1.2.2 1.8.1.4.2.7.3 1.1.1.2.1.4.2.6.2.4.4.8.6 1.1.1.1.1.3.2.4.3.5.7 1 1.1 1.4l18.6 18.6c3.5 3.5 9.3 3.5 12.8 0l30.8-30.8 30.8 30.8c3.5 3.5 9.3 3.5 12.8 0l30.8-30.8 30.7 30.9zM105.3 152.3v165.6c0 12.8-10.4 23.2-23.2 23.2s-23.2-10.4-23.2-23.2V18.1h260.4V111H146.6c-22.8 0-41.3 18.5-41.3 41.3zm166.5 314.6L241 436.1c-1.8-1.8-4.1-2.7-6.4-2.7-2.3 0-4.6.9-6.4 2.7l-30.8 30.8-9.5-9.5V152.3c0-1.3-.1-2.6-.2-3.8 0-.4-.1-.7-.1-1.1-.1-.9-.2-1.8-.4-2.7-.1-.4-.1-.7-.2-1.1-.2-1.1-.5-2.3-.9-3.4 0-.1 0-.1-.1-.2-.4-1.2-.8-2.3-1.3-3.4-.1-.3-.3-.6-.4-1-.4-.8-.7-1.6-1.2-2.4-.2-.3-.3-.6-.5-1-.5-.9-1.1-1.9-1.7-2.8-.1-.1-.1-.2-.2-.3v-.1h225.9c12.8 0 23.2 10.4 23.2 23.2v305.2l-9.5 9.5-30.8-30.8c-3.5-3.5-9.3-3.5-12.8 0l-30.8 30.8-30.5-30.7c-3.5-3.5-9.3-3.5-12.8 0l-30.8 30.7z"/></svg>