<svg xmlns="http://www.w3.org/2000/svg" viewBox="0 0 512 512">
  <path d="M282.3 283.3H40.1c-15.4 0-27.4-12-27.4-27.4 0-15.4 12-27.4 27.4-27.4h242.1l-41.6-41.6c-11-11-11-28.3 0-39.4 5.3-5.3 12.2-8.3 19.3-8.3s13.9 2.9 19.3 8.3l89.1 89.1c5.2 5.2 8.1 12.2 8.1 19.3 0 7.1-3 14.2-8.2 19.4l-89.1 89.1c-5.3 5.3-12.2 8.3-19.3 8.3s-13.9-2.9-19.3-8.3c-5.3-5.3-8.3-12.2-8.3-19.3s2.9-13.9 8.3-19.3l41.8-42.5zm213.8-27.1c0 59.2-23 114.9-64.9 156.7s-97.5 64.9-156.7 64.9c-39.5 0-78.3-10.5-112.3-30.5-33-19.4-60.6-47.2-79.7-80.3-3.8-6.5-4.8-14.1-2.9-21.4 1.9-7.2 6.6-13.3 13-17.1 6.5-3.8 14.2-4.9 21.5-2.9 7.2 1.9 13.3 6.6 17.1 13 29.6 51 84.4 82.6 143.1 82.6 91 0 165.1-74.1 165.1-165.1S365.3 91 274.3 91c-58.8 0-113.6 31.6-143 82.5-3.7 6.5-9.8 11.2-17.2 13.1-7.3 2-14.9.9-21.4-2.9-6.5-3.8-11.2-9.8-13.1-17.2-2-7.4-.9-15 2.9-21.5 19.2-33 46.7-60.8 79.7-80.2 33.9-20 72.7-30.5 112.2-30.5 59.3 0 114.9 23 156.7 64.9 42 42 65 97.7 65 157z" fill="#202020"/>
</svg>
