<?xml version="1.0" encoding="utf-8"?>
<!-- Generator: Adobe Illustrator 21.1.0, SVG Export Plug-In . SVG Version: 6.00 Build 0)  -->
<svg version="1.1" id="Слой_1" xmlns="http://www.w3.org/2000/svg" xmlns:xlink="http://www.w3.org/1999/xlink" x="0px" y="0px"
	 viewBox="0 0 630.1 698.1" style="enable-background:new 0 0 630.1 698.1;" xml:space="preserve">
<style type="text/css">
	.st0{fill:none;stroke:#010707;stroke-width:3;stroke-miterlimit:10;}
</style>
<path class="st0" d="M100.6,2c6.3,0,12.7,0,19,0H527c28.8,0,101.1,14,101.1,86.8"/>
<path class="st0" d="M100.9,175.5c6.3,0,12.7,0,19,0h407.4c28.8,0,100.8-15.6,100.8-86.8"/>
<path class="st0" d="M529.6,349.1c-6.3,0-12.7,0-19,0H103.1C74.3,349.1,2,335.1,2,262.3"/>
<path class="st0" d="M102.8,175.5L102.8,175.5C74,175.5,2,191.2,2,262.3"/>
<path class="st0" d="M529.6,696.1c-6.3,0-12.7,0-19,0H103.1C74.3,696.1,2,682.1,2,609.4"/>
<path class="st0" d="M529.2,522.6c-6.3,0-12.7,0-19,0H102.8C74,522.6,2,538.3,2,609.4"/>
<path class="st0" d="M527,349.1c28.8,0,101.1,14,101.1,86.8"/>
<path class="st0" d="M527.4,522.6L527.4,522.6c28.8,0,100.8-15.6,100.8-86.8"/>
</svg>
