<?xml version="1.0" encoding="utf-8"?>
<!-- Generator: Adobe Illustrator 21.1.0, SVG Export Plug-In . SVG Version: 6.00 Build 0)  -->
<svg version="1.1" id="Layer_1" xmlns="http://www.w3.org/2000/svg" xmlns:xlink="http://www.w3.org/1999/xlink" x="0px" y="0px"
	 viewBox="0 0 490.4 515.2" style="enable-background:new 0 0 490.4 515.2;" xml:space="preserve">
<style type="text/css">
	.st0{fill:#5BCEC9;}
	.st1{fill:#1F1F1F;}
</style>
<path d="M490.4,420.4c0-0.3,0-0.6-0.1-0.9c0-0.3-0.1-0.6-0.2-0.9s-0.1-0.6-0.2-0.8c-0.1-0.3-0.2-0.5-0.4-0.8
	c-0.1-0.3-0.2-0.5-0.4-0.8c-0.1-0.3-0.3-0.5-0.5-0.7s-0.3-0.5-0.5-0.7s-0.4-0.4-0.7-0.6c-0.2-0.2-0.4-0.4-0.6-0.6s-0.5-0.3-0.8-0.5
	c-0.2-0.1-0.4-0.3-0.7-0.4L375,358.3c-0.3-0.2-0.6-0.3-1-0.4c-1.9-0.7-47.4-16.6-84.6,0.1l-82.1,29.7c-0.2,0.1-0.5,0.2-0.7,0.3
	c-11.8,5.4-18,17.5-15.5,30.2c2.5,12.6,12.7,21.5,25.5,22.1c0.1,0,0.1,0,0.2,0c0.8,0,4.4-0.2,41.8-2.6c16.3-1,33.1-2.1,34.6-2.2
	c4.7-0.2,8.6-4,8.7-8.8c0.1-5-3.8-9.2-8.9-9.3c-0.5,0-0.5,0-35.5,2.2c-17.5,1.1-37.1,2.4-40.4,2.6c-6.3-0.5-7.8-5.8-8.2-7.4
	c-0.7-3.4,0.3-7.9,5-10.2l82-29.7c0.2-0.1,0.4-0.2,0.7-0.3c28.8-13.1,66.4-1.3,70.9,0.1l49.1,24.2l-27,63.7
	c-13.3-8.2-29.5-10.4-44.5-5.9l-110.2,33.1c-13.1,4-27.6,2.5-39.7-4.1L22.6,392.2c-6.2-3.4-4.2-9.3-3.7-10.5
	c0.6-1.6,3.2-6.6,9.5-4.9l134.1,44.7c4.7,1.6,9.9-1,11.5-5.7c1.6-4.8-1-9.9-5.7-11.5L33.9,359.4c-0.2-0.1-0.3-0.1-0.5-0.1
	c-13.3-3.6-26.2,2.8-31.3,15.6c-5.2,12.9-0.3,26.5,11.9,33.2l172.7,93.8c16.3,8.9,35.8,10.9,53.5,5.5l110.2-33.1
	c10.1-3,21-1.6,29.9,4.1l56.2,35.4c0.3,0.2,0.5,0.3,0.8,0.4c0.1,0,0.1,0.1,0.2,0.1h0.1c0.1,0.1,0.2,0.1,0.4,0.1
	c0.2,0.1,0.5,0.2,0.7,0.3c0.1,0,0.3,0.1,0.4,0.1c0.2,0.1,0.5,0.1,0.7,0.2c0.1,0,0.3,0,0.4,0.1c0.4,0,0.7,0.1,1.1,0.1l0,0l0,0l0,0
	l0,0c0.4,0,0.8,0,1.2-0.1c0.1,0,0.3,0,0.4-0.1c0.3,0,0.5-0.1,0.8-0.2c0.1,0,0.3-0.1,0.4-0.1c0.2-0.1,0.5-0.2,0.7-0.3
	c0.1-0.1,0.3-0.1,0.4-0.2c0.2-0.1,0.4-0.2,0.7-0.4c0.1-0.1,0.3-0.2,0.4-0.2c0.2-0.1,0.4-0.3,0.6-0.4c0.1-0.1,0.3-0.2,0.4-0.3
	c0.2-0.2,0.3-0.3,0.5-0.5c0.1-0.1,0.2-0.2,0.4-0.4c0.2-0.2,0.3-0.4,0.4-0.6c0.1-0.1,0.2-0.3,0.3-0.4c0,0,0-0.1,0.1-0.1
	c0-0.1,0.1-0.2,0.1-0.2c0.1-0.2,0.3-0.5,0.4-0.8l40-85.2c0.1-0.3,0.2-0.5,0.3-0.8c0.1-0.3,0.2-0.6,0.3-0.8c0.1-0.3,0.1-0.6,0.1-0.9
	s0.1-0.6,0.1-0.9C490.4,421,490.4,420.7,490.4,420.4z M469.4,425l-31.9,67.9l-32.3-20.4l27.7-65.4L469.4,425z"/>
<ellipse transform="matrix(0.1092 -0.994 0.994 0.1092 -73.2711 393.2696)" class="st0" cx="182.8" cy="237.5" rx="72.8" ry="72.8"/>
<g>
	<path class="st1" d="M84.8,130.8c4.6,0,7.7,3.1,8.9,9.4V178h0.5c1-4.3,9.2-13,24.5-26c19.9-14,41.4-21.2,63.8-21.2
		c19.9,0,38.6,5.4,55.7,16.1c1.5,2,2.3,4.3,2.3,6.6c-1.5,5.6-4.1,8.4-7.7,8.4h-3.1c-16.9-8.2-31.2-12.3-42.9-12.3l-4.3-0.5
		c-29.4,0-53.9,13-73.3,38.8c-10.5,15.3-15.6,31.9-15.6,50.1v98.3c-1.3,6.4-4.3,9.4-8.9,9.4c-6.4-1.5-9.4-4.3-9.4-8.4V138.9
		C75.3,134.6,78.4,131.8,84.8,130.8z"/>
</g>
<g>
	<path class="st1" d="M280.9,0h-1c-4.6,0-7.4,3.1-8.4,9.4v226.8v3.8c0,16.6-5.1,32.7-15.6,49c-20.4,25.3-43.4,37.8-69,37.8h-7.2
		l-0.5,0.5v-0.5c-16.9,0-33.5-5.6-49.5-17.1c-24-19.2-36-42.9-36-71.3c0-16.6,4.6-32.7,13.8-48.3c19.9-27.3,44.9-41.1,75.1-41.1
		l-2.8-18.4l-1.8,0.5v-0.5c-11.7,1.3-18.6,2.3-19.9,3.3c-12.3,2-25,7.7-38.3,17.1c-29.6,23.2-44.4,52.1-44.4,86.8
		c0,20.7,5.6,39.8,16.6,57.7c23.8,33.5,53.9,50.1,90.7,50.1c24.3,0,46.7-7.9,67.2-24c26.6-23.5,40.1-50.3,40.1-79.9V7.7
		C289.9,3.6,286.8,1,280.9,0z"/>
</g>
</svg>
