<?xml version="1.0" encoding="utf-8"?>
<!-- Generator: Adobe Illustrator 21.1.0, SVG Export Plug-In . SVG Version: 6.00 Build 0)  -->
<svg version="1.1" id="Layer_1" xmlns="http://www.w3.org/2000/svg" xmlns:xlink="http://www.w3.org/1999/xlink" x="0px" y="0px"
	 viewBox="0 0 489.8 489.8" style="enable-background:new 0 0 489.8 489.8;" xml:space="preserve">
<style type="text/css">
	.st0{fill:#5BCEC9;}
</style>
<path class="st0" d="M328.6,352.8H161.2c-4,0-7.2-3.2-7.2-7.2V230.2c0-4,3.2-7.2,7.2-7.2h167.5c4,0,7.2,3.2,7.2,7.2v115.4
	C335.8,349.6,332.6,352.8,328.6,352.8z"/>
<path d="M23,333.8c1,0,2.1-0.2,3.1-0.5c4.7-1.7,7.2-6.9,5.5-11.6c-29.7-82.5-10-172.6,51.2-235.3C170.2-3,314-4.7,403.4,82.7
	l1.4,1.4l-27.4,0.3c-5,0.1-9,4.2-9,9.2c0.1,5,4.1,9,9.1,9h0.1l49.3-0.6c2.4,0,4.7-1,6.4-2.7s2.6-4,2.6-6.4l-0.6-49.3
	c-0.1-5-4.1-9.1-9.2-9c-5,0.1-9,4.2-9,9.2l0.3,27.4l-1.4-1.4c-96.6-94.4-251.9-92.6-346.2,4c-32.7,33.5-55.1,75.3-64.6,121
	c-9.3,44.4-6.1,90.4,9.2,133.1C15.8,331.5,19.3,333.8,23,333.8z"/>
<path d="M407,403.4c-44.3,45.4-103.2,68.2-162.2,68.1c-57.2,0-114.4-21.4-158.4-64.5l-1.4-1.4l27.4-0.3c5-0.1,9-4.2,9-9.2
	c-0.1-5-4.1-9-9.1-9h-0.1l-49.3,0.7c-5,0.1-9,4.2-9,9.2l0.6,49.3c0.1,5,4.1,9,9.1,9h0.1c5-0.1,9-4.2,9-9.2l-0.3-27.4l1.4,1.4
	c47.6,46.5,109.3,69.6,171.1,69.6c63.6,0,127.2-24.6,175.1-73.6c32.7-33.5,55.1-75.3,64.6-121c9.3-44.4,6.1-90.4-9.2-133.1
	c-1.7-4.7-6.9-7.2-11.6-5.5s-7.2,6.9-5.5,11.6C487.9,250.6,468.2,340.7,407,403.4z"/>
<path d="M244.9,104c-40.4,0-73.3,32.9-73.3,73.3v36.6h-3.2c-13,0-23.6,10.6-23.6,23.6v100.8c0,13,10.6,23.6,23.6,23.6h152.9
	c13,0,23.6-10.6,23.6-23.6V237.5c0-13-10.6-23.6-23.6-23.6h-3.2v-36.7C318.2,136.8,285.3,104,244.9,104z M189.8,177.2
	c0-30.4,24.7-55.1,55.1-55.1s55.1,24.7,55.1,55.1v36.7H189.8L189.8,177.2L189.8,177.2z M326.8,237.5v100.8c0,3-2.4,5.4-5.4,5.4
	H168.5c-3,0-5.4-2.4-5.4-5.4V237.5c0-3,2.4-5.4,5.4-5.4h152.9C324.3,232.1,326.8,234.5,326.8,237.5z"/>
<path d="M247.6,261.7c-6.7-1.3-13.8,2.4-16.7,8.9c-3,6.6-1,14.1,5,18.5c1.2,0.9,1.5,1.8,1.5,3.1c0,6.6,0,13.2,0,19.8l0,0
	c0,5.5,5.7,9.6,11.5,6.6c2.4-1.2,3.8-3.9,3.7-6.7l0,0c0-6.6,0-13.2,0-19.8c0-1.4,0.3-2.4,1.6-3.3c4.1-3,6.2-7.2,6.2-12.3
	C260.2,269.2,255,263.2,247.6,261.7z"/>
</svg>
