<svg id="Capa_1" xmlns="http://www.w3.org/2000/svg" viewBox="0 0 754.5 754.5"><style>.st0{fill:#88cdc8}.st1{fill:#1a1a1a;stroke:#1a1a1a;stroke-width:15;stroke-miterlimit:10}</style><circle class="st0" cx="227.1" cy="200.7" r="108.7"/><circle class="st0" cx="527.5" cy="588.3" r="108.7"/><path class="st1" d="M578.9 54.9c3.2-5 9.9-6.4 14.8-3.2 5 3.2 6.4 9.9 3.2 14.8L161.6 734c-3.2 5-9.9 6.4-14.8 3.2-5-3.2-6.4-9.9-3.2-14.8L578.9 54.9zM119.4 200.7c0 29.7 12 56.7 31.5 76.1 19.4 19.4 46.4 31.5 76.1 31.5 29.7 0 56.7-12.1 76.1-31.5l.6-.5c19.1-19.4 31-46.1 31-75.6 0-29.8-12-56.7-31.5-76.1-19.5-19.5-46.4-31.5-76.1-31.5-29.7 0-56.7 12-76.1 31.5-19.5 19.5-31.6 46.4-31.6 76.1zm16.4 91.3c-23.4-23.4-37.9-55.7-37.9-91.3s14.5-67.9 37.8-91.3C159.1 86 191.4 71.6 227 71.6c35.7 0 68 14.5 91.3 37.8 23.4 23.4 37.9 55.7 37.9 91.3 0 35.3-14.2 67.3-37.2 90.6l-.6.7c-23.3 23.3-55.7 37.8-91.3 37.8-35.6.1-67.9-14.4-91.3-37.8zM419.8 588.3c0 29.7 12 56.7 31.5 76.1 19.5 19.5 46.4 31.5 76.1 31.5 29.7 0 56.7-12 76.1-31.5C622.9 645 635 618 635 588.3c0-29.7-12-56.7-31.5-76.1-19.5-19.5-46.4-31.5-76.1-31.5-29.8 0-56.7 12-76.1 31.5-19.4 19.4-31.5 46.4-31.5 76.1zm16.4 91.3c-23.4-23.4-37.9-55.7-37.9-91.3 0-35.6 14.5-67.9 37.8-91.3 23.4-23.4 55.7-37.8 91.3-37.8 35.7 0 68 14.5 91.3 37.8 23.4 23.4 37.9 55.7 37.9 91.3 0 35.6-14.5 67.9-37.8 91.3-23.4 23.4-55.7 37.8-91.3 37.8-35.7.1-68-14.4-91.3-37.8z"/></svg>