<?xml version="1.0" encoding="utf-8"?>
<!-- Generator: Adobe Illustrator 21.1.0, SVG Export Plug-In . SVG Version: 6.00 Build 0)  -->
<svg version="1.1" id="Capa_1" xmlns="http://www.w3.org/2000/svg" xmlns:xlink="http://www.w3.org/1999/xlink" x="0px" y="0px"
	 viewBox="0 0 754.5 754.5" style="enable-background:new 0 0 754.5 754.5;" xml:space="preserve">
<style type="text/css">
	.st0{fill:#88CDC8;}
	.st1{fill:#1A1A1A;stroke:#1A1A1A;stroke-width:15;stroke-miterlimit:10;}
</style>
<circle class="st0" cx="227.1" cy="200.7" r="108.7"/>
<circle class="st0" cx="527.5" cy="588.3" r="108.7"/>
<path class="st1" d="M578.9,54.9c3.2-5,9.9-6.4,14.8-3.2c5,3.2,6.4,9.9,3.2,14.8L161.6,734c-3.2,5-9.9,6.4-14.8,3.2
	c-5-3.2-6.4-9.9-3.2-14.8L578.9,54.9z"/>
<path class="st1" d="M119.4,200.7c0,29.7,12,56.7,31.5,76.1l0,0c19.4,19.4,46.4,31.5,76.1,31.5c29.7,0,56.7-12.1,76.1-31.5l0.6-0.5
	c19.1-19.4,31-46.1,31-75.6c0-29.8-12-56.7-31.5-76.1v0l0,0c-19.5-19.5-46.4-31.5-76.1-31.5c-29.7,0-56.7,12-76.1,31.5l0,0
	C131.5,144.1,119.4,171,119.4,200.7L119.4,200.7z M135.8,292L135.8,292L135.8,292c-23.4-23.4-37.9-55.7-37.9-91.3
	s14.5-67.9,37.8-91.3v0l0,0l0,0c23.4-23.4,55.7-37.8,91.3-37.8c35.7,0,68,14.5,91.3,37.8v0c23.4,23.4,37.9,55.7,37.9,91.3
	c0,35.3-14.2,67.3-37.2,90.6l-0.6,0.7c-23.3,23.3-55.7,37.8-91.3,37.8C191.5,329.9,159.2,315.4,135.8,292L135.8,292z"/>
<path class="st1" d="M419.8,588.3c0,29.7,12,56.7,31.5,76.1l0,0l0,0c19.5,19.5,46.4,31.5,76.1,31.5c29.7,0,56.7-12,76.1-31.5l0,0
	c19.4-19.4,31.5-46.4,31.5-76.1c0-29.7-12-56.7-31.5-76.1l0,0l0,0c-19.5-19.5-46.4-31.5-76.1-31.5c-29.8,0-56.7,12-76.1,31.5l0,0
	C431.9,531.6,419.8,558.6,419.8,588.3L419.8,588.3z M436.2,679.6c-23.4-23.4-37.9-55.7-37.9-91.3c0-35.6,14.5-67.9,37.8-91.3l0,0
	l0,0l0,0c23.4-23.4,55.7-37.8,91.3-37.8c35.7,0,68,14.5,91.3,37.8l0,0c23.4,23.4,37.9,55.7,37.9,91.3c0,35.6-14.5,67.9-37.8,91.3
	l0,0l0,0l0,0c-23.4,23.4-55.7,37.8-91.3,37.8C491.8,717.5,459.5,703,436.2,679.6L436.2,679.6z"/>
</svg>
