<svg id="Layer_1" xmlns="http://www.w3.org/2000/svg" viewBox="0 0 489.4 489.4"><style>.st2{fill:#1f1f1f}</style><path id="XMLID_1475_" fill="#5bcec9" d="M331.4 341.9h148.8v96H331.4z"/><path d="M299.1 437.9c0-5-4.1-9.1-9.1-9.1h-20.9c-1 0-1.8-.8-1.8-1.8v-16.4c0-2.6-1.1-5.1-3.1-6.8-2-1.7-4.6-2.5-7.2-2.2-16.6 2.2-33.7 2.5-50.6.7-2.6-.3-5.1.6-7 2.3-1.9 1.7-3 4.2-3 6.7V427c0 1-.8 1.8-1.8 1.8h-66.5c-1 0-1.8-.8-1.8-1.8v-16.4-.2c-.1-6.2-5.4-33.6-28.4-54.8-22-19.6-37.8-43.8-45.9-70-1.2-3.8-4.7-6.4-8.7-6.4h-14c-6.1 0-11.1-5-11.1-11.1v-49.7c0-6.1 5-11.1 11.1-11.1h14.6c3.9 0 7.6-2.4 8.8-6.2 9.1-27.8 26.9-53 51.5-72.9 2.1-1.7 3.3-4.1 3.4-6.8 0-.3 0-.5.1-.8 5.1-17.8 1.6-37-10-55.5-.9-1.4-.4-2.6 0-3.2.4-.6 1.2-1.6 2.9-1.3 31 3.9 47.2 19 55.3 31.1 2.2 3.3 6.4 4.8 10.3 3.6 20-6.3 41.1-9.6 62.6-9.6 79.3 0 149.2 44 173.9 109.4 1.9 5.2 3.6 10.5 4.9 15.8.8 3.4 1.6 6.8 2.1 10.3.8 4.9 5.5 8.3 10.5 7.4 4.9-.8 8.3-5.5 7.4-10.5-.7-3.9-1.5-7.8-2.4-11.6-1.5-6-3.4-12-5.6-17.8-27.4-72.5-104.1-121.2-190.9-121.2-21.1 0-41.9 2.9-61.8 8.5-11.2-14-30.8-29.3-64.1-33.5-8.2-1-16 2.7-20.4 9.6s-4.4 15.6-.1 22.6c8.9 14.2 11.6 28 7.9 40.9-.1.2-.1.4-.2.6-24.1 20.2-42.1 45.2-52.4 72.8h-8.4C13.1 189 0 202.1 0 218.2v49.7c0 16.1 13.1 29.2 29.2 29.2h7.5c9.5 26.9 26.4 51.6 48.9 71.7 17.8 16.3 22.3 38.1 22.4 41.7v16.3c0 11 9 20 20 20h66.5c11 0 20-9 20-20V421c11.6.7 23.1.5 34.6-.5v6.3c0 11 9 20 20 20H290c5.1.2 9.1-3.9 9.1-8.9z"/><path d="M349.7 305v27.9h-18.2c-5 0-9.1 4.1-9.1 9.1v96c0 5 4.1 9.1 9.1 9.1h148.8c5 0 9.1-4.1 9.1-9.1v-96c0-5-4.1-9.1-9.1-9.1h-18.2V305c0-31-25.2-56.2-56.2-56.2S349.7 274 349.7 305zm121.4 123.8H340.5v-77.9h130.7v77.9h-.1zM443.8 305v27.9h-76.1V305c0-21 17.1-38 38-38 21.1-.1 38.1 17 38.1 38z"/><ellipse transform="rotate(-83.731 225.677 302.25)" cx="225.7" cy="302.2" rx="53.9" ry="53.9" fill="#bcbebe"/><path class="st2" d="M153.1 223.2c3.4 0 5.7 2.3 6.6 7v28h.4c.8-3.2 6.8-9.6 18.2-19.3 14.8-10.4 30.6-15.7 47.3-15.7 14.8 0 28.6 4 41.2 11.9 1.1 1.5 1.7 3.2 1.7 4.9-1.1 4.2-3 6.2-5.7 6.2h-2.3c-12.5-6.1-23.1-9.1-31.8-9.1l-3.2-.4c-21.8 0-39.9 9.6-54.3 28.8-7.8 11.4-11.5 23.6-11.5 37.1v72.8c-.9 4.7-3.2 7-6.6 7-4.7-1.1-7-3.2-7-6.2v-147c0-3.2 2.3-5.3 7-6z"/><path class="st2" d="M298.4 126.3h-.8c-3.4 0-5.5 2.3-6.2 7v170.8c0 12.3-3.8 24.2-11.5 36.3-15.1 18.7-32.2 28-51.1 28h-5.3l-.4.4v-.4c-12.5 0-24.8-4.2-36.7-12.7-17.8-14.2-26.7-31.8-26.7-52.8 0-12.3 3.4-24.2 10.2-35.8 14.8-20.2 33.3-30.5 55.6-30.5l-2.1-13.6-1.3.4v-.4c-8.7.9-13.8 1.7-14.8 2.5-9.1 1.5-18.5 5.7-28.4 12.7-21.9 17.2-32.9 38.6-32.9 64.3 0 15.3 4.2 29.5 12.3 42.8 17.6 24.8 39.9 37.1 67.2 37.1 18 0 34.6-5.9 49.8-17.8 19.7-17.4 29.7-37.3 29.7-59.2V132c0-3-2.3-4.9-6.6-5.7z"/></svg>