<?xml version="1.0" encoding="utf-8"?>
<!-- Generator: Adobe Illustrator 21.1.0, SVG Export Plug-In . SVG Version: 6.00 Build 0)  -->
<svg version="1.1" id="Layer_1" xmlns="http://www.w3.org/2000/svg" xmlns:xlink="http://www.w3.org/1999/xlink" x="0px" y="0px"
	 viewBox="0 0 489.4 489.4" style="enable-background:new 0 0 489.4 489.4;" xml:space="preserve">
<style type="text/css">
	.st0{fill:#5BCEC9;}
	.st1{fill:#BCBEBE;}
	.st2{fill:#1F1F1F;}
</style>
<rect id="XMLID_1475_" x="331.4" y="341.9" class="st0" width="148.8" height="96"/>
<path d="M299.1,437.9c0-5-4.1-9.1-9.1-9.1h-20.9c-1,0-1.8-0.8-1.8-1.8v-16.4c0-2.6-1.1-5.1-3.1-6.8c-2-1.7-4.6-2.5-7.2-2.2
	c-16.6,2.2-33.7,2.5-50.6,0.7c-2.6-0.3-5.1,0.6-7,2.3c-1.9,1.7-3,4.2-3,6.7V427c0,1-0.8,1.8-1.8,1.8h-66.5c-1,0-1.8-0.8-1.8-1.8
	v-16.4c0-0.1,0-0.1,0-0.2c-0.1-6.2-5.4-33.6-28.4-54.8c-22-19.6-37.8-43.8-45.9-70c-1.2-3.8-4.7-6.4-8.7-6.4h-14
	c-6.1,0-11.1-5-11.1-11.1v-49.7c0-6.1,5-11.1,11.1-11.1h14.6c3.9,0,7.6-2.4,8.8-6.2c9.1-27.8,26.9-53,51.5-72.9
	c2.1-1.7,3.3-4.1,3.4-6.8c0-0.3,0-0.5,0.1-0.8c5.1-17.8,1.6-37-10-55.5c-0.9-1.4-0.4-2.6,0-3.2c0.4-0.6,1.2-1.6,2.9-1.3
	c31,3.9,47.2,19,55.3,31.1c2.2,3.3,6.4,4.8,10.3,3.6c20-6.3,41.1-9.6,62.6-9.6c79.3,0,149.2,44,173.9,109.4
	c1.9,5.2,3.6,10.5,4.9,15.8c0.8,3.4,1.6,6.8,2.1,10.3c0.8,4.9,5.5,8.3,10.5,7.4c4.9-0.8,8.3-5.5,7.4-10.5c-0.7-3.9-1.5-7.8-2.4-11.6
	c-1.5-6-3.4-12-5.6-17.8C392.2,116.2,315.5,67.5,228.7,67.5c-21.1,0-41.9,2.9-61.8,8.5c-11.2-14-30.8-29.3-64.1-33.5
	c-8.2-1-16,2.7-20.4,9.6S78,67.7,82.3,74.7c8.9,14.2,11.6,28,7.9,40.9c-0.1,0.2-0.1,0.4-0.2,0.6c-24.1,20.2-42.1,45.2-52.4,72.8
	h-8.4C13.1,189,0,202.1,0,218.2v49.7c0,16.1,13.1,29.2,29.2,29.2h7.5c9.5,26.9,26.4,51.6,48.9,71.7c17.8,16.3,22.3,38.1,22.4,41.7
	v16.3c0,11,9,20,20,20h66.5c11,0,20-9,20-20V421c11.6,0.7,23.1,0.5,34.6-0.5v6.3c0,11,9,20,20,20H290
	C295.1,447,299.1,442.9,299.1,437.9z"/>
<path d="M349.7,305v27.9h-18.2c-5,0-9.1,4.1-9.1,9.1v96c0,5,4.1,9.1,9.1,9.1h148.8c5,0,9.1-4.1,9.1-9.1v-96c0-5-4.1-9.1-9.1-9.1
	h-18.2V305c0-31-25.2-56.2-56.2-56.2S349.7,274,349.7,305z M471.1,428.8H340.5v-77.9h130.7v77.9H471.1z M443.8,305v27.9h-76.1V305
	c0-21,17.1-38,38-38C426.8,266.9,443.8,284,443.8,305z"/>
<ellipse transform="matrix(0.1092 -0.994 0.994 0.1092 -99.4035 493.5674)" class="st1" cx="225.7" cy="302.2" rx="53.9" ry="53.9"/>
<g>
	<path class="st2" d="M153.1,223.2c3.4,0,5.7,2.3,6.6,7v28h0.4c0.8-3.2,6.8-9.6,18.2-19.3c14.8-10.4,30.6-15.7,47.3-15.7
		c14.8,0,28.6,4,41.2,11.9c1.1,1.5,1.7,3.2,1.7,4.9c-1.1,4.2-3,6.2-5.7,6.2h-2.3c-12.5-6.1-23.1-9.1-31.8-9.1l-3.2-0.4
		c-21.8,0-39.9,9.6-54.3,28.8c-7.8,11.4-11.5,23.6-11.5,37.1v72.8c-0.9,4.7-3.2,7-6.6,7c-4.7-1.1-7-3.2-7-6.2v-147
		C146.1,226,148.4,223.9,153.1,223.2z"/>
</g>
<g>
	<path class="st2" d="M298.4,126.3h-0.8c-3.4,0-5.5,2.3-6.2,7v168v2.8c0,12.3-3.8,24.2-11.5,36.3c-15.1,18.7-32.2,28-51.1,28h-5.3
		l-0.4,0.4v-0.4c-12.5,0-24.8-4.2-36.7-12.7c-17.8-14.2-26.7-31.8-26.7-52.8c0-12.3,3.4-24.2,10.2-35.8
		c14.8-20.2,33.3-30.5,55.6-30.5l-2.1-13.6l-1.3,0.4v-0.4c-8.7,0.9-13.8,1.7-14.8,2.5c-9.1,1.5-18.5,5.7-28.4,12.7
		c-21.9,17.2-32.9,38.6-32.9,64.3c0,15.3,4.2,29.5,12.3,42.8c17.6,24.8,39.9,37.1,67.2,37.1c18,0,34.6-5.9,49.8-17.8
		c19.7-17.4,29.7-37.3,29.7-59.2V132C305,129,302.7,127.1,298.4,126.3z"/>
</g>
</svg>
