<?xml version="1.0" encoding="utf-8"?>
<!-- Generator: Adobe Illustrator 21.1.0, SVG Export Plug-In . SVG Version: 6.00 Build 0)  -->
<svg version="1.1" id="Capa_1" xmlns="http://www.w3.org/2000/svg" xmlns:xlink="http://www.w3.org/1999/xlink" x="0px" y="0px"
	 viewBox="0 0 612 612" style="enable-background:new 0 0 612 612;" xml:space="preserve">
<style type="text/css">
	.st0{fill:#FFFFFF;}
	.st1{fill:#5BCEC9;stroke:#5BCEC9;stroke-width:0.25;stroke-miterlimit:10;}
</style>
<path d="M609.2,314.7L460.3,165.7c-3.7-3.7-9.6-3.7-13.3,0l-141,141l-141-141c-3.7-3.7-9.6-3.7-13.3,0L2.8,314.7
	C1,316.4,0,318.8,0,321.3s1,4.9,2.8,6.7l118.3,118.3c1.8,1.8,4.2,2.8,6.7,2.8c2.5,0,4.9-1,6.6-2.8L276.6,304l16.1,16.1l-96.8,96.8
	c-3.7,3.7-3.7,9.6,0,13.3c1.8,1.8,4.2,2.8,6.6,2.8s4.8-0.9,6.6-2.8l96.8-96.8l96.8,96.8c1.8,1.8,4.2,2.8,6.6,2.8s4.8-0.9,6.6-2.8
	c3.7-3.7,3.7-9.6,0-13.3l-96.8-96.8l16.1-16.1l142.3,142.3c1.8,1.8,4.2,2.8,6.6,2.8c2.5,0,4.9-1,6.6-2.8L609.2,328
	c1.8-1.8,2.8-4.2,2.8-6.7C612,318.8,611,316.4,609.2,314.7z M233.5,320.5l-32.8-32.8l-37.5,37.5L196,358l-37.5,37.5l-32.8-32.8
	l-30.8,30.8l-39.4-39.4l30.8-30.8l39.4,39.4l37.5-37.5l-39.4-39.4l-37.5,37.5l-32.8-32.8L91,253l32.8,32.8l37.5-37.5l-32.8-32.8
	l29.8-29.8l32.8,32.8l-29.8,29.8l39.4,39.4l29.8-29.8l32.8,32.8L233.5,320.5z M556.5,354.1l-39.4,39.4l-30.8-30.8l-32.8,32.8
	L416,358l32.8-32.8l-37.5-37.5l-32.8,32.8l-29.8-29.8l32.8-32.8l29.8,29.8l39.4-39.4l-29.8-29.8l32.8-32.8l29.8,29.8l-32.8,32.8
	l37.5,37.5l-39.4,39.4l37.5,37.5l39.4-39.4l-37.5-37.5L521,253l37.5,37.5l-32.8,32.8L556.5,354.1z"/>
<rect x="46.7" y="232.1" transform="matrix(0.7071 -0.7071 0.7071 0.7071 -174.4355 190.372)" class="st0" width="191.9" height="147.3"/>
<rect x="175.2" y="296.3" transform="matrix(0.7071 0.7071 -0.7071 0.7071 286.3824 -45.7337)" class="st1" width="46.4" height="53"/>
<rect x="103.5" y="372.8" transform="matrix(0.7071 0.7071 -0.7071 0.7071 316.1098 26.0345)" class="st1" width="46.4" height="43.7"/>
<rect x="31.3" y="300.6" transform="matrix(0.7071 0.7071 -0.7071 0.7071 243.9848 55.9097)" class="st1" width="46.4" height="43.7"/>
<rect x="103.1" y="224.2" transform="matrix(0.7071 0.7071 -0.7071 0.7071 214.2574 -15.8586)" class="st1" width="46.4" height="53"/>
<rect x="97.2" y="297.9" transform="matrix(0.7071 0.7071 -0.7071 0.7071 265.9908 6.7443)" class="st1" width="55.2" height="53"/>
<rect x="168" y="232" transform="matrix(0.7071 0.7071 -0.7071 0.7071 236.3096 -64.4044)" class="st1" width="55.9" height="42.1"/>
<polygon class="st0" points="453.7,185.7 590.8,321.8 485.6,427 348.5,290.9 "/>
<rect x="429.5" y="335" transform="matrix(-0.7071 0.7071 -0.7071 -0.7071 1028.4854 297.1142)" class="st1" width="46.4" height="53"/>
<rect x="357.4" y="267.8" transform="matrix(-0.7071 0.7071 -0.7071 -0.7071 854.8295 225.5222)" class="st1" width="46.7" height="44"/>
<rect x="429.9" y="195.8" transform="matrix(-0.7071 0.7071 -0.7071 -0.7071 927.3464 51.2208)" class="st1" width="46.4" height="43.7"/>
<rect x="501.7" y="262.9" transform="matrix(-0.7071 0.7071 -0.7071 -0.7071 1100.6104 122.9891)" class="st1" width="46.4" height="53"/>
<rect x="423.5" y="261.5" transform="matrix(-0.7071 0.7071 -0.7071 -0.7071 973.7102 172.7179)" class="st1" width="55.2" height="53"/>
<rect x="494.9" y="337.9" transform="matrix(0.7071 -0.7071 0.7071 0.7071 -100.9947 474.937)" class="st1" width="55.9" height="43"/>
</svg>
