<svg id="Capa_1" xmlns="http://www.w3.org/2000/svg" viewBox="0 0 612 612"><style>.st0{fill:#fff}.st1{fill:#5bcec9;stroke:#5bcec9;stroke-width:.25;stroke-miterlimit:10}</style><path d="M609.2 314.7l-148.9-149c-3.7-3.7-9.6-3.7-13.3 0l-141 141-141-141c-3.7-3.7-9.6-3.7-13.3 0L2.8 314.7C1 316.4 0 318.8 0 321.3s1 4.9 2.8 6.7l118.3 118.3c1.8 1.8 4.2 2.8 6.7 2.8s4.9-1 6.6-2.8L276.6 304l16.1 16.1-96.8 96.8c-3.7 3.7-3.7 9.6 0 13.3 1.8 1.8 4.2 2.8 6.6 2.8s4.8-.9 6.6-2.8l96.8-96.8 96.8 96.8c1.8 1.8 4.2 2.8 6.6 2.8s4.8-.9 6.6-2.8c3.7-3.7 3.7-9.6 0-13.3l-96.8-96.8 16.1-16.1 142.3 142.3c1.8 1.8 4.2 2.8 6.6 2.8 2.5 0 4.9-1 6.6-2.8L609.2 328c1.8-1.8 2.8-4.2 2.8-6.7s-1-4.9-2.8-6.6zm-375.7 5.8l-32.8-32.8-37.5 37.5L196 358l-37.5 37.5-32.8-32.8-30.8 30.8-39.4-39.4 30.8-30.8 39.4 39.4 37.5-37.5-39.4-39.4-37.5 37.5-32.8-32.8L91 253l32.8 32.8 37.5-37.5-32.8-32.8 29.8-29.8 32.8 32.8-29.8 29.8 39.4 39.4 29.8-29.8 32.8 32.8-29.8 29.8zm323 33.6l-39.4 39.4-30.8-30.8-32.8 32.8L416 358l32.8-32.8-37.5-37.5-32.8 32.8-29.8-29.8 32.8-32.8 29.8 29.8 39.4-39.4-29.8-29.8 32.8-32.8 29.8 29.8-32.8 32.8 37.5 37.5-39.4 39.4 37.5 37.5 39.4-39.4-37.5-37.5L521 253l37.5 37.5-32.8 32.8 30.8 30.8z"/><path transform="rotate(-45.001 142.579 305.751)" class="st0" d="M46.7 232.1h191.9v147.3H46.7z"/><path transform="rotate(45.001 198.401 322.827)" class="st1" d="M175.2 296.3h46.4v53h-46.4z"/><path transform="rotate(45.001 126.634 394.596)" class="st1" d="M103.5 372.8h46.4v43.7h-46.4z"/><path transform="rotate(45.001 54.507 322.471)" class="st1" d="M31.3 300.6h46.4v43.7H31.3z"/><path transform="rotate(45.001 126.275 250.702)" class="st1" d="M103.1 224.2h46.4v53h-46.4z"/><path transform="rotate(45.001 124.859 324.452)" class="st1" d="M97.2 297.9h55.2v53H97.2z"/><path transform="rotate(45.001 195.902 253.048)" class="st1" d="M168 232h55.9v42.1H168z"/><path class="st0" d="M453.7 185.7l137.1 136.1L485.6 427 348.5 290.9z"/><path transform="rotate(134.999 452.711 361.564)" class="st1" d="M429.5 335h46.4v53h-46.4z"/><path transform="rotate(134.999 380.71 289.803)" class="st1" d="M357.4 267.8h46.7v44h-46.7z"/><path transform="rotate(134.999 453.068 217.67)" class="st1" d="M429.9 195.8h46.4v43.7h-46.4z"/><path transform="rotate(134.999 524.836 289.439)" class="st1" d="M501.7 262.9h46.4v53h-46.4z"/><path transform="rotate(134.999 451.087 288.021)" class="st1" d="M423.5 261.5h55.2v53h-55.2z"/><path transform="rotate(-45.001 522.8 359.388)" class="st1" d="M494.9 337.9h55.9v43h-55.9z"/></svg>