<svg xmlns="http://www.w3.org/2000/svg" viewBox="0 0 84 135"><ellipse transform="rotate(-83.731 41.97 92.743)" cx="42" cy="92.7" rx="28.4" ry="28.4" fill="#80cbc4"/><path d="M3.8 51c1.8 0 3 1.2 3.5 3.7v14.8h.2c.4-1.7 3.6-5.1 9.6-10.2C24.9 53.8 33.3 51 42 51c7.8 0 15.1 2.1 21.7 6.3.6.8.9 1.7.9 2.6-.6 2.2-1.6 3.3-3 3.3h-1.2c-6.6-3.2-12.2-4.8-16.8-4.8l-1.7-.2c-11.5 0-21 5.1-28.6 15.2-4.1 6-6.1 12.5-6.1 19.5v38.4c-.5 2.5-1.7 3.7-3.5 3.7-2.5-.6-3.7-1.7-3.7-3.3V54.2c.1-1.7 1.3-2.8 3.8-3.2z" fill="#fff"/><path d="M80.3 0h-.4c-1.8 0-2.9 1.2-3.3 3.7v90c0 6.5-2 12.8-6.1 19.1-8 9.9-16.9 14.8-26.9 14.8h-2.8l-.2.2v-.2c-6.6 0-13.1-2.2-19.3-6.7-9.4-7.5-14.1-16.8-14.1-27.8 0-6.5 1.8-12.8 5.4-18.8 7.8-10.7 17.5-16.1 29.3-16.1L40.8 51l-.7.2V51c-4.6.5-7.3.9-7.8 1.3-4.8.8-9.8 3-15 6.7C5.7 68.1 0 79.3 0 92.9c0 8.1 2.2 15.6 6.5 22.5 9.3 13.1 21 19.5 35.4 19.5 9.5 0 18.2-3.1 26.2-9.4 10.4-9.2 15.7-19.6 15.7-31.2V3c0-1.6-1.2-2.6-3.5-3z" fill="#fff"/></svg>