<?xml version="1.0" encoding="utf-8"?>
<!-- Generator: Adobe Illustrator 21.0.2, SVG Export Plug-In . SVG Version: 6.00 Build 0)  -->
<svg version="1.1" id="Layer_1" xmlns="http://www.w3.org/2000/svg" xmlns:xlink="http://www.w3.org/1999/xlink" x="0px" y="0px"
	 viewBox="0 0 84 135" style="enable-background:new 0 0 84 135;" xml:space="preserve">
<ellipse transform="matrix(0.1092 -0.994 0.994 0.1092 -54.8002 124.3335)" style="fill:#80CBC4;" cx="42" cy="92.7" rx="28.4" ry="28.4"/>
<g>
	<path style="fill:#FFFFFF;" d="M3.8,51c1.8,0,3,1.2,3.5,3.7v14.8h0.2c0.4-1.7,3.6-5.1,9.6-10.2C24.9,53.8,33.3,51,42,51
		c7.8,0,15.1,2.1,21.7,6.3c0.6,0.8,0.9,1.7,0.9,2.6c-0.6,2.2-1.6,3.3-3,3.3h-1.2c-6.6-3.2-12.2-4.8-16.8-4.8l-1.7-0.2
		c-11.5,0-21,5.1-28.6,15.2c-4.1,6-6.1,12.5-6.1,19.5v38.4c-0.5,2.5-1.7,3.7-3.5,3.7c-2.5-0.6-3.7-1.7-3.7-3.3V54.2
		C0.1,52.5,1.3,51.4,3.8,51z"/>
</g>
<g>
	<path style="fill:#FFFFFF;" d="M80.3,0h-0.4c-1.8,0-2.9,1.2-3.3,3.7v88.5v1.5c0,6.5-2,12.8-6.1,19.1c-8,9.9-16.9,14.8-26.9,14.8
		h-2.8l-0.2,0.2v-0.2c-6.6,0-13.1-2.2-19.3-6.7c-9.4-7.5-14.1-16.8-14.1-27.8c0-6.5,1.8-12.8,5.4-18.8c7.8-10.7,17.5-16.1,29.3-16.1
		L40.8,51l-0.7,0.2V51c-4.6,0.5-7.3,0.9-7.8,1.3c-4.8,0.8-9.8,3-15,6.7C5.7,68.1,0,79.3,0,92.9c0,8.1,2.2,15.6,6.5,22.5
		c9.3,13.1,21,19.5,35.4,19.5c9.5,0,18.2-3.1,26.2-9.4c10.4-9.2,15.7-19.6,15.7-31.2V3C83.8,1.4,82.6,0.4,80.3,0z"/>
</g>
</svg>
