<?xml version="1.0" encoding="utf-8"?>
<!-- Generator: Adobe Illustrator 21.0.2, SVG Export Plug-In . SVG Version: 6.00 Build 0)  -->
<svg version="1.1" id="Layer_1" xmlns="http://www.w3.org/2000/svg" xmlns:xlink="http://www.w3.org/1999/xlink" x="0px" y="0px"
	 viewBox="0 0 400 135" style="enable-background:new 0 0 400 135;" xml:space="preserve">
<path style="fill:#FFFFFF;" d="M0,80.4c0-0.6,0.2-1.2,0.7-1.7c0.5-0.5,1-0.7,1.7-0.7s1.2,0.2,1.7,0.7c0.5,0.5,0.7,1,0.7,1.7V83
	c3.3-3.3,7.2-4.9,11.7-4.9c2.3,0,4.4,0.4,6.3,1.2c0.4,0.1,0.7,0.3,1,0.6c0.4,0.5,0.7,1,0.7,1.7c0,0.7-0.2,1.2-0.7,1.7
	c-0.5,0.5-1,0.7-1.7,0.7c-0.4,0-0.7-0.1-1-0.2c-1.4-0.6-2.9-0.9-4.6-0.9c-3.2,0-6,1.1-8.3,3.4c-2.3,2.3-3.4,5-3.4,8.3v14.1
	c0,0.6-0.2,1.2-0.7,1.7c-0.5,0.5-1,0.7-1.7,0.7s-1.2-0.2-1.7-0.7c-0.5-0.5-0.7-1-0.7-1.7V80.4z"/>
<path style="fill:#FFFFFF;" d="M60.7,94.3c0,4.5-1.6,8.4-4.8,11.6c-3.2,3.2-7.1,4.8-11.6,4.8s-8.4-1.6-11.6-4.8S28,98.8,28,94.3
	c0-4.5,1.6-8.4,4.8-11.6S39.9,78,44.4,78s8.4,1.6,11.6,4.8C59.1,85.9,60.7,89.8,60.7,94.3z M44.4,82.7c-3.2,0-6,1.1-8.3,3.4
	c-2.3,2.3-3.4,5-3.4,8.3s1.1,6,3.4,8.3c2.3,2.3,5,3.4,8.3,3.4c3.2,0,6-1.1,8.3-3.4c2.3-2.3,3.4-5,3.4-8.3s-1.1-6-3.4-8.3
	C50.4,83.8,47.7,82.7,44.4,82.7z"/>
<path style="fill:#FFFFFF;" d="M98.1,94.3c0,4.5-1.6,8.4-4.8,11.6c-3.2,3.2-7.1,4.8-11.6,4.8c-4.5,0-8.4-1.6-11.6-4.8
	c-3.2-3.2-4.8-7.1-4.8-11.6c0-4.5,1.6-8.4,4.8-11.6c3.2-3.2,7.1-4.8,11.6-4.8c4.5,0,8.4,1.6,11.6,4.8C96.5,85.9,98.1,89.8,98.1,94.3
	z M81.8,82.7c-3.2,0-6,1.1-8.3,3.4c-2.3,2.3-3.4,5-3.4,8.3s1.1,6,3.4,8.3c2.3,2.3,5,3.4,8.3,3.4c3.2,0,6-1.1,8.3-3.4
	c2.3-2.3,3.4-5,3.4-8.3s-1.1-6-3.4-8.3C87.7,83.8,85,82.7,81.8,82.7z"/>
<path style="fill:#FFFFFF;" d="M107.5,108.4c0,0.6-0.2,1.2-0.7,1.7c-0.5,0.5-1,0.7-1.7,0.7s-1.2-0.2-1.7-0.7c-0.5-0.5-0.7-1-0.7-1.7
	v-28c0-0.6,0.2-1.2,0.7-1.7c0.5-0.5,1-0.7,1.7-0.7s1.2,0.2,1.7,0.7c0.5,0.5,0.7,1,0.7,1.7V81c2.3-2,5.1-3,8.2-3
	c3.6,0,6.6,1.3,9.1,3.8c0.5,0.5,1,1.1,1.4,1.7c0.4-0.6,0.9-1.1,1.4-1.7c2.5-2.5,5.6-3.8,9.1-3.8c3.6,0,6.6,1.3,9.1,3.8
	s3.8,5.6,3.8,9.1v17.5c0,0.6-0.2,1.2-0.7,1.7c-0.5,0.5-1,0.7-1.7,0.7c-0.7,0-1.2-0.2-1.7-0.7c-0.5-0.5-0.7-1-0.7-1.7V90.8
	c0-2.3-0.8-4.2-2.4-5.8c-1.6-1.6-3.5-2.4-5.8-2.4s-4.2,0.8-5.8,2.4c-1.6,1.6-2.4,3.5-2.4,5.8v17.5c0,0.6-0.2,1.2-0.7,1.7
	c-0.5,0.5-1,0.7-1.7,0.7c-0.7,0-1.2-0.2-1.7-0.7c-0.5-0.5-0.7-1-0.7-1.7V90.8c0-2.3-0.8-4.2-2.4-5.8c-1.6-1.6-3.5-2.4-5.8-2.4
	c-2.3,0-4.2,0.8-5.8,2.4c-1.6,1.6-2.4,3.5-2.4,5.8v17.5H107.5z"/>
<path style="fill:#FFFFFF;" d="M319.9,69.2c0-0.6,0.2-1.2,0.7-1.7c0.5-0.5,1-0.7,1.7-0.7c0.7,0,1.2,0.2,1.7,0.7
	c0.5,0.5,0.7,1,0.7,1.7v28.1c0,4.5-1.6,8.4-4.8,11.6c-3.2,3.2-7.1,4.8-11.6,4.8c-4.5,0-8.4-1.6-11.6-4.8c-3.2-3.2-4.8-7.1-4.8-11.6
	c0-4.5,1.6-8.4,4.8-11.6s7.1-4.8,11.6-4.8c4.5,0,8.4,1.6,11.6,4.8l0.1,0.1L319.9,69.2L319.9,69.2z M319.9,97.3c0-3.2-1.1-6-3.4-8.3
	c-2.3-2.3-5-3.4-8.3-3.4c-3.2,0-6,1.1-8.3,3.4c-2.3,2.3-3.4,5-3.4,8.3s1.1,6,3.4,8.3c2.3,2.3,5,3.4,8.3,3.4c3.2,0,6-1.1,8.3-3.4
	C318.8,103.3,319.9,100.6,319.9,97.3z"/>
<path style="fill:#FFFFFF;" d="M357.2,108.8c-3.3,3.3-7.2,4.9-11.7,4.9s-8.4-1.6-11.6-4.8c-3.2-3.2-4.8-7.1-4.8-11.6
	c0-4.5,1.6-8.4,4.8-11.6c3.2-3.2,7.1-4.8,11.6-4.8s8.4,1.6,11.6,4.8c3.2,3.2,4.8,7.1,4.8,11.6v14.1c0,0.6-0.2,1.2-0.7,1.7
	c-0.5,0.5-1,0.7-1.7,0.7c-0.7,0-1.2-0.2-1.7-0.7c-0.5-0.5-0.7-1-0.7-1.7L357.2,108.8L357.2,108.8z M345.6,85.6c-3.2,0-6,1.1-8.3,3.4
	c-2.3,2.3-3.4,5-3.4,8.3s1.1,6,3.4,8.3c2.3,2.3,5,3.4,8.3,3.4c3.2,0,6-1.1,8.3-3.4c2.3-2.3,3.4-5,3.4-8.3s-1.1-6-3.4-8.3
	C351.6,86.7,348.8,85.6,345.6,85.6z"/>
<path style="fill:#FFFFFF;" d="M399.3,97.3c0,4.5-1.6,8.4-4.8,11.6c-3.2,3.2-7.1,4.8-11.6,4.8c-4.5,0-8.4-1.6-11.6-4.8
	c-3.2-3.2-4.8-7.1-4.8-11.6c0-4.5,1.6-8.4,4.8-11.6S378.5,81,383,81c4.5,0,8.4,1.6,11.6,4.8C397.7,88.9,399.3,92.8,399.3,97.3z
	 M383,85.6c-3.2,0-6,1.1-8.3,3.4c-2.3,2.3-3.4,5-3.4,8.3s1.1,6,3.4,8.3c2.3,2.3,5,3.4,8.3,3.4c3.2,0,6-1.1,8.3-3.4
	c2.3-2.3,3.4-5,3.4-8.3s-1.1-6-3.4-8.3C388.9,86.7,386.2,85.6,383,85.6z"/>
<ellipse transform="matrix(0.1092 -0.994 0.994 0.1092 106.2076 303.9828)" style="fill:#80CBC4;" cx="222.7" cy="92.7" rx="28.4" ry="28.4"/>
<g>
	<path style="fill:#FFFFFF;" d="M184.5,51c1.8,0,3,1.2,3.5,3.7v14.8h0.2c0.4-1.7,3.6-5.1,9.6-10.2c7.8-5.5,16.2-8.3,24.9-8.3
		c7.8,0,15.1,2.1,21.7,6.3c0.6,0.8,0.9,1.7,0.9,2.6c-0.6,2.2-1.6,3.3-3,3.3h-1.2c-6.6-3.2-12.2-4.8-16.8-4.8l-1.7-0.2
		c-11.5,0-21,5.1-28.6,15.2c-4.1,6-6.1,12.5-6.1,19.5v38.4c-0.5,2.5-1.7,3.7-3.5,3.7c-2.5-0.6-3.7-1.7-3.7-3.3V54.2
		C180.8,52.5,182,51.4,184.5,51z"/>
</g>
<g>
	<path style="fill:#FFFFFF;" d="M261,0h-0.4c-1.8,0-2.9,1.2-3.3,3.7v88.5v1.5c0,6.5-2,12.8-6.1,19.1c-8,9.9-16.9,14.8-26.9,14.8
		h-2.8l-0.2,0.2v-0.2c-6.6,0-13.1-2.2-19.3-6.7c-9.4-7.5-14.1-16.8-14.1-27.8c0-6.5,1.8-12.8,5.4-18.8c7.8-10.7,17.5-16.1,29.3-16.1
		l-1.1-7.2l-0.7,0.2V51c-4.6,0.5-7.3,0.9-7.8,1.3c-4.8,0.8-9.8,3-15,6.7c-11.6,9.1-17.3,20.3-17.3,33.9c0,8.1,2.2,15.6,6.5,22.5
		c9.3,13.1,21,19.5,35.4,19.5c9.5,0,18.2-3.1,26.2-9.4c10.4-9.2,15.7-19.6,15.7-31.2V3C264.5,1.4,263.3,0.4,261,0z"/>
</g>
</svg>
