<svg xmlns="http://www.w3.org/2000/svg" viewBox="0 0 400 135"><path d="M0 80.4c0-.6.2-1.2.7-1.7.5-.5 1-.7 1.7-.7s1.2.2 1.7.7c.5.5.7 1 .7 1.7V83c3.3-3.3 7.2-4.9 11.7-4.9 2.3 0 4.4.4 6.3 1.2.4.1.7.3 1 .6.4.5.7 1 .7 1.7s-.2 1.2-.7 1.7c-.5.5-1 .7-1.7.7-.4 0-.7-.1-1-.2-1.4-.6-2.9-.9-4.6-.9-3.2 0-6 1.1-8.3 3.4-2.3 2.3-3.4 5-3.4 8.3v14.1c0 .6-.2 1.2-.7 1.7-.5.5-1 .7-1.7.7s-1.2-.2-1.7-.7c-.5-.5-.7-1-.7-1.7V80.4zM60.7 94.3c0 4.5-1.6 8.4-4.8 11.6-3.2 3.2-7.1 4.8-11.6 4.8s-8.4-1.6-11.6-4.8S28 98.8 28 94.3s1.6-8.4 4.8-11.6S39.9 78 44.4 78s8.4 1.6 11.6 4.8c3.1 3.1 4.7 7 4.7 11.5zM44.4 82.7c-3.2 0-6 1.1-8.3 3.4-2.3 2.3-3.4 5-3.4 8.3s1.1 6 3.4 8.3c2.3 2.3 5 3.4 8.3 3.4 3.2 0 6-1.1 8.3-3.4 2.3-2.3 3.4-5 3.4-8.3s-1.1-6-3.4-8.3c-2.3-2.3-5-3.4-8.3-3.4zM98.1 94.3c0 4.5-1.6 8.4-4.8 11.6-3.2 3.2-7.1 4.8-11.6 4.8s-8.4-1.6-11.6-4.8c-3.2-3.2-4.8-7.1-4.8-11.6s1.6-8.4 4.8-11.6c3.2-3.2 7.1-4.8 11.6-4.8s8.4 1.6 11.6 4.8c3.2 3.2 4.8 7.1 4.8 11.6zM81.8 82.7c-3.2 0-6 1.1-8.3 3.4-2.3 2.3-3.4 5-3.4 8.3s1.1 6 3.4 8.3c2.3 2.3 5 3.4 8.3 3.4 3.2 0 6-1.1 8.3-3.4 2.3-2.3 3.4-5 3.4-8.3s-1.1-6-3.4-8.3c-2.4-2.3-5.1-3.4-8.3-3.4zM107.5 108.4c0 .6-.2 1.2-.7 1.7-.5.5-1 .7-1.7.7s-1.2-.2-1.7-.7c-.5-.5-.7-1-.7-1.7v-28c0-.6.2-1.2.7-1.7.5-.5 1-.7 1.7-.7s1.2.2 1.7.7c.5.5.7 1 .7 1.7v.6c2.3-2 5.1-3 8.2-3 3.6 0 6.6 1.3 9.1 3.8.5.5 1 1.1 1.4 1.7.4-.6.9-1.1 1.4-1.7 2.5-2.5 5.6-3.8 9.1-3.8 3.6 0 6.6 1.3 9.1 3.8s3.8 5.6 3.8 9.1v17.5c0 .6-.2 1.2-.7 1.7-.5.5-1 .7-1.7.7s-1.2-.2-1.7-.7c-.5-.5-.7-1-.7-1.7V90.8c0-2.3-.8-4.2-2.4-5.8-1.6-1.6-3.5-2.4-5.8-2.4s-4.2.8-5.8 2.4c-1.6 1.6-2.4 3.5-2.4 5.8v17.5c0 .6-.2 1.2-.7 1.7-.5.5-1 .7-1.7.7s-1.2-.2-1.7-.7c-.5-.5-.7-1-.7-1.7V90.8c0-2.3-.8-4.2-2.4-5.8-1.6-1.6-3.5-2.4-5.8-2.4s-4.2.8-5.8 2.4c-1.6 1.6-2.4 3.5-2.4 5.8v17.5h.3zM319.9 69.2c0-.6.2-1.2.7-1.7.5-.5 1-.7 1.7-.7s1.2.2 1.7.7c.5.5.7 1 .7 1.7v28.1c0 4.5-1.6 8.4-4.8 11.6-3.2 3.2-7.1 4.8-11.6 4.8s-8.4-1.6-11.6-4.8c-3.2-3.2-4.8-7.1-4.8-11.6s1.6-8.4 4.8-11.6 7.1-4.8 11.6-4.8 8.4 1.6 11.6 4.8l.1.1-.1-16.6zm0 28.1c0-3.2-1.1-6-3.4-8.3-2.3-2.3-5-3.4-8.3-3.4-3.2 0-6 1.1-8.3 3.4-2.3 2.3-3.4 5-3.4 8.3s1.1 6 3.4 8.3c2.3 2.3 5 3.4 8.3 3.4 3.2 0 6-1.1 8.3-3.4 2.3-2.3 3.4-5 3.4-8.3zM357.2 108.8c-3.3 3.3-7.2 4.9-11.7 4.9s-8.4-1.6-11.6-4.8c-3.2-3.2-4.8-7.1-4.8-11.6s1.6-8.4 4.8-11.6c3.2-3.2 7.1-4.8 11.6-4.8s8.4 1.6 11.6 4.8c3.2 3.2 4.8 7.1 4.8 11.6v14.1c0 .6-.2 1.2-.7 1.7-.5.5-1 .7-1.7.7s-1.2-.2-1.7-.7c-.5-.5-.7-1-.7-1.7l.1-2.6zm-11.6-23.2c-3.2 0-6 1.1-8.3 3.4-2.3 2.3-3.4 5-3.4 8.3s1.1 6 3.4 8.3c2.3 2.3 5 3.4 8.3 3.4 3.2 0 6-1.1 8.3-3.4 2.3-2.3 3.4-5 3.4-8.3s-1.1-6-3.4-8.3c-2.3-2.3-5.1-3.4-8.3-3.4zM399.3 97.3c0 4.5-1.6 8.4-4.8 11.6-3.2 3.2-7.1 4.8-11.6 4.8s-8.4-1.6-11.6-4.8c-3.2-3.2-4.8-7.1-4.8-11.6s1.6-8.4 4.8-11.6S378.5 81 383 81c4.5 0 8.4 1.6 11.6 4.8 3.1 3.1 4.7 7 4.7 11.5zM383 85.6c-3.2 0-6 1.1-8.3 3.4-2.3 2.3-3.4 5-3.4 8.3s1.1 6 3.4 8.3c2.3 2.3 5 3.4 8.3 3.4 3.2 0 6-1.1 8.3-3.4 2.3-2.3 3.4-5 3.4-8.3s-1.1-6-3.4-8.3c-2.4-2.3-5.1-3.4-8.3-3.4z" fill="#fff"/><ellipse transform="rotate(-83.731 222.708 92.738)" cx="222.7" cy="92.7" rx="28.4" ry="28.4" fill="#80cbc4"/><path d="M184.5 51c1.8 0 3 1.2 3.5 3.7v14.8h.2c.4-1.7 3.6-5.1 9.6-10.2 7.8-5.5 16.2-8.3 24.9-8.3 7.8 0 15.1 2.1 21.7 6.3.6.8.9 1.7.9 2.6-.6 2.2-1.6 3.3-3 3.3h-1.2c-6.6-3.2-12.2-4.8-16.8-4.8l-1.7-.2c-11.5 0-21 5.1-28.6 15.2-4.1 6-6.1 12.5-6.1 19.5v38.4c-.5 2.5-1.7 3.7-3.5 3.7-2.5-.6-3.7-1.7-3.7-3.3V54.2c.1-1.7 1.3-2.8 3.8-3.2z" fill="#fff"/><path d="M261 0h-.4c-1.8 0-2.9 1.2-3.3 3.7v90c0 6.5-2 12.8-6.1 19.1-8 9.9-16.9 14.8-26.9 14.8h-2.8l-.2.2v-.2c-6.6 0-13.1-2.2-19.3-6.7-9.4-7.5-14.1-16.8-14.1-27.8 0-6.5 1.8-12.8 5.4-18.8 7.8-10.7 17.5-16.1 29.3-16.1l-1.1-7.2-.7.2V51c-4.6.5-7.3.9-7.8 1.3-4.8.8-9.8 3-15 6.7-11.6 9.1-17.3 20.3-17.3 33.9 0 8.1 2.2 15.6 6.5 22.5 9.3 13.1 21 19.5 35.4 19.5 9.5 0 18.2-3.1 26.2-9.4 10.4-9.2 15.7-19.6 15.7-31.2V3c0-1.6-1.2-2.6-3.5-3z" fill="#fff"/></svg>