<svg xmlns="http://www.w3.org/2000/svg" viewBox="0 0 264 48">
  <path d="M1.2 17.2c0-.6.2-1.2.7-1.7.5-.5 1-.7 1.7-.7s1.2.2 1.7.7c.5.5.7 1 .7 1.7v2.6c3.3-3.3 7.2-4.9 11.7-4.9 2.3 0 4.4.4 6.3 1.2.4.1.7.3 1 .6.4.5.7 1 .7 1.7s-.2 1.2-.7 1.7-1 .7-1.7.7c-.4 0-.7-.1-1-.2-1.4-.6-2.9-.9-4.6-.9-3.2 0-6 1.1-8.3 3.4S6 28.1 6 31.4v14.1c0 .6-.2 1.2-.7 1.7s-1 .7-1.7.7-1.2-.2-1.7-.7-.7-1-.7-1.7V17.2z"/>
  <path d="M62.1 31.2c0 4.5-1.6 8.4-4.8 11.6-3.2 3.2-7.1 4.8-11.6 4.8s-8.4-1.6-11.6-4.8c-3.2-3.2-4.8-7.1-4.8-11.6s1.6-8.4 4.8-11.6 7.1-4.8 11.6-4.8 8.4 1.6 11.6 4.8c3.2 3.2 4.8 7.1 4.8 11.6zM45.7 19.5c-3.2 0-6 1.1-8.3 3.4s-3.4 5-3.4 8.3 1.1 6 3.4 8.3c2.3 2.3 5 3.4 8.3 3.4 3.2 0 6-1.1 8.3-3.4s3.4-5 3.4-8.3-1.1-6-3.4-8.3-5-3.4-8.3-3.4zm53.9 11.7c0 4.5-1.6 8.4-4.8 11.6-3.2 3.2-7.1 4.8-11.6 4.8s-8.4-1.6-11.6-4.8-4.8-7.1-4.8-11.6 1.6-8.4 4.8-11.6c3.2-3.2 7.1-4.8 11.6-4.8s8.4 1.6 11.6 4.8c3.2 3.2 4.8 7.1 4.8 11.6zM83.2 19.5c-3.2 0-6 1.1-8.3 3.4s-3.4 5-3.4 8.3 1.1 6 3.4 8.3 5 3.4 8.3 3.4c3.2 0 6-1.1 8.3-3.4s3.4-5 3.4-8.3-1.1-6-3.4-8.3-5-3.4-8.3-3.4z" fill="#80cbc4"/>
  <path d="M109 45.3c0 .6-.2 1.2-.7 1.7s-1 .7-1.7.7-1.2-.2-1.7-.7-.7-1-.7-1.7V17.2c0-.6.2-1.2.7-1.7.5-.5 1-.7 1.7-.7s1.2.2 1.7.7c.5.5.7 1 .7 1.7v.6c2.3-2 5.1-3 8.2-3 3.6 0 6.6 1.3 9.1 3.8.5.5 1 1.1 1.4 1.7.4-.6.9-1.1 1.4-1.7 2.5-2.5 5.6-3.8 9.1-3.8 3.6 0 6.6 1.3 9.1 3.8s3.8 5.6 3.8 9.1v17.6c0 .6-.2 1.2-.7 1.7s-1 .7-1.7.7-1.2-.2-1.7-.7-.7-1-.7-1.7V27.7c0-2.3-.8-4.2-2.4-5.8-1.6-1.6-3.5-2.4-5.8-2.4s-4.2.8-5.8 2.4-2.4 3.5-2.4 5.8v17.6c0 .6-.2 1.2-.7 1.7s-1 .7-1.7.7-1.2-.2-1.7-.7-.7-1-.7-1.7V27.7c0-2.3-.8-4.2-2.4-5.8-1.6-1.6-3.5-2.4-5.8-2.4s-4.2.8-5.8 2.4c-1.6 1.6-2.4 3.5-2.4 5.8v17.6h.3zM184 3c0-.6.2-1.2.7-1.7s1-.7 1.7-.7 1.2.2 1.7.7.7 1 .7 1.7v28.2c0 4.5-1.6 8.4-4.8 11.6-3.2 3.2-7.1 4.8-11.6 4.8s-8.4-1.6-11.6-4.8c-3.2-3.2-4.8-7.1-4.8-11.6s1.6-8.4 4.8-11.6 7.1-4.8 11.6-4.8 8.4 1.6 11.6 4.8l.1.1L184 3zm0 28.2c0-3.2-1.1-6-3.4-8.3s-5-3.4-8.3-3.4c-3.2 0-6 1.1-8.3 3.4s-3.4 5-3.4 8.3 1.1 6 3.4 8.3 5 3.4 8.3 3.4c3.2 0 6-1.1 8.3-3.4s3.4-5 3.4-8.3zm37.5 11.5c-3.3 3.3-7.2 4.9-11.7 4.9s-8.4-1.6-11.6-4.8c-3.2-3.2-4.8-7.1-4.8-11.6s1.6-8.4 4.8-11.6 7.1-4.8 11.6-4.8 8.4 1.6 11.6 4.8c3.2 3.2 4.8 7.1 4.8 11.6v14.1c0 .6-.2 1.2-.7 1.7s-1 .7-1.7.7-1.2-.2-1.7-.7-.7-1-.7-1.7l.1-2.6zm-11.7-23.2c-3.2 0-6 1.1-8.3 3.4s-3.4 5-3.4 8.3 1.1 6 3.4 8.3 5 3.4 8.3 3.4c3.2 0 6-1.1 8.3-3.4s3.4-5 3.4-8.3-1.1-6-3.4-8.3-5.1-3.4-8.3-3.4z"/>
  <path d="M263.7 31.2c0 4.5-1.6 8.4-4.8 11.6-3.2 3.2-7.1 4.8-11.6 4.8s-8.4-1.6-11.6-4.8c-3.2-3.2-4.8-7.1-4.8-11.6s1.6-8.4 4.8-11.6 7.1-4.8 11.6-4.8 8.4 1.6 11.6 4.8c3.2 3.2 4.8 7.1 4.8 11.6zm-16.4-11.7c-3.2 0-6 1.1-8.3 3.4s-3.4 5-3.4 8.3 1.1 6 3.4 8.3 5 3.4 8.3 3.4c3.2 0 6-1.1 8.3-3.4 2.3-2.3 3.4-5 3.4-8.3s-1.1-6-3.4-8.3-5.1-3.4-8.3-3.4z" fill="#80cbc4"/>
</svg>
