<svg id="Layer_1" xmlns="http://www.w3.org/2000/svg" viewBox="0 0 400.5 135.4">
<style>.st0{fill:#fff}.st1{fill:#80cbc4}</style>
<path class="st0" d="M0 80.6c0-.6.2-1.2.7-1.7s1-.7 1.7-.7 1.2.2 1.7.7.7 1 .7 1.7v2.6c3.3-3.3 7.2-4.9 11.7-4.9 2.3 0 4.4.4 6.3 1.2.4.1.7.3 1 .6.4.5.7 1 .7 1.7s-.2 1.2-.7 1.7-1 .7-1.7.7c-.4 0-.7-.1-1-.2-1.4-.6-2.9-.9-4.6-.9-3.2 0-6 1.1-8.3 3.4s-3.4 5-3.4 8.3v14.1c0 .6-.2 1.2-.7 1.7s-1 .7-1.7.7-1.2-.2-1.7-.7-.7-1-.7-1.7V80.6zM60.9 94.6c0 4.5-1.6 8.4-4.8 11.6S49 111 44.5 111s-8.4-1.6-11.6-4.8c-3.2-3.2-4.8-7.1-4.8-11.6s1.6-8.4 4.8-11.6 7.1-4.8 11.6-4.8 8.4 1.6 11.6 4.8c3.2 3.2 4.8 7.1 4.8 11.6zM44.5 82.9c-3.2 0-6 1.1-8.3 3.4s-3.4 5-3.4 8.3 1.1 6 3.4 8.3 5 3.4 8.3 3.4c3.2 0 6-1.1 8.3-3.4s3.4-5 3.4-8.3-1.1-6-3.4-8.3-5-3.4-8.3-3.4zM98.4 94.6c0 4.5-1.6 8.4-4.8 11.6-3.2 3.2-7.1 4.8-11.6 4.8s-8.4-1.6-11.6-4.8-4.8-7.1-4.8-11.6 1.6-8.4 4.8-11.6c3.2-3.2 7.1-4.8 11.6-4.8s8.4 1.6 11.6 4.8c3.2 3.2 4.8 7.1 4.8 11.6zM82 82.9c-3.2 0-6 1.1-8.3 3.4s-3.4 5-3.4 8.3 1.1 6 3.4 8.3 5 3.4 8.3 3.4c3.2 0 6-1.1 8.3-3.4s3.4-5 3.4-8.3-1.1-6-3.4-8.3-5-3.4-8.3-3.4zM107.8 108.7c0 .6-.2 1.2-.7 1.7s-1 .7-1.7.7-1.2-.2-1.7-.7-.7-1-.7-1.7V80.6c0-.6.2-1.2.7-1.7s1-.7 1.7-.7 1.2.2 1.7.7.7 1 .7 1.7v.6c2.3-2 5.1-3 8.2-3 3.6 0 6.6 1.3 9.1 3.8.5.5 1 1.1 1.4 1.7.4-.6.9-1.1 1.4-1.7 2.5-2.5 5.6-3.8 9.1-3.8 3.6 0 6.6 1.3 9.1 3.8s3.8 5.6 3.8 9.1v17.6c0 .6-.2 1.2-.7 1.7s-1 .7-1.7.7-1.2-.2-1.7-.7-.7-1-.7-1.7V91.1c0-2.3-.8-4.2-2.4-5.8-1.6-1.6-3.5-2.4-5.8-2.4s-4.2.8-5.8 2.4-2.4 3.5-2.4 5.8v17.6c0 .6-.2 1.2-.7 1.7s-1 .7-1.7.7-1.2-.2-1.7-.7-.7-1-.7-1.7V91.1c0-2.3-.8-4.2-2.4-5.8-1.6-1.6-3.5-2.4-5.8-2.4s-4.2.8-5.8 2.4-2.4 3.5-2.4 5.8v17.6h.3zM320.8 69.4c0-.6.2-1.2.7-1.7s1-.7 1.7-.7 1.2.2 1.7.7.7 1 .7 1.7v28.2c0 4.5-1.6 8.4-4.8 11.6-3.2 3.2-7.1 4.8-11.6 4.8s-8.4-1.6-11.6-4.8-4.8-7.1-4.8-11.6 1.6-8.4 4.8-11.6c3.2-3.2 7.1-4.8 11.6-4.8s8.4 1.6 11.6 4.8l.1.1V69.4h-.1zm0 28.2c0-3.2-1.1-6-3.4-8.3s-5-3.4-8.3-3.4c-3.2 0-6 1.1-8.3 3.4s-3.4 5-3.4 8.3 1.1 6 3.4 8.3 5 3.4 8.3 3.4c3.2 0 6-1.1 8.3-3.4s3.4-5 3.4-8.3zM358.3 109.1c-3.3 3.3-7.2 4.9-11.7 4.9s-8.4-1.6-11.6-4.8-4.8-7.1-4.8-11.6 1.6-8.4 4.8-11.6c3.2-3.2 7.1-4.8 11.6-4.8s8.4 1.6 11.6 4.8c3.2 3.2 4.8 7.1 4.8 11.6v14.1c0 .6-.2 1.2-.7 1.7s-1 .7-1.7.7-1.2-.2-1.7-.7-.7-1-.7-1.7v-2.6h.1zm-11.7-23.2c-3.2 0-6 1.1-8.3 3.4s-3.4 5-3.4 8.3 1.1 6 3.4 8.3 5 3.4 8.3 3.4c3.2 0 6-1.1 8.3-3.4s3.4-5 3.4-8.3-1.1-6-3.4-8.3-5.1-3.4-8.3-3.4zM400.5 97.6c0 4.5-1.6 8.4-4.8 11.6-3.2 3.2-7.1 4.8-11.6 4.8s-8.4-1.6-11.6-4.8-4.8-7.1-4.8-11.6 1.6-8.4 4.8-11.6c3.2-3.2 7.1-4.8 11.6-4.8s8.4 1.6 11.6 4.8c3.2 3.2 4.8 7.1 4.8 11.6zm-16.4-11.7c-3.2 0-6 1.1-8.3 3.4s-3.4 5-3.4 8.3 1.1 6 3.4 8.3 5 3.4 8.3 3.4c3.2 0 6-1.1 8.3-3.4s3.4-5 3.4-8.3-1.1-6-3.4-8.3-5.1-3.4-8.3-3.4z"/><ellipse transform="rotate(-83.731 223.36 92.983)" class="st1" cx="223.4" cy="93" rx="28.5" ry="28.5"/><path class="st0" d="M261.8 0h-.4c-1.8 0-2.9 1.2-3.3 3.7V94c0 6.5-2 12.8-6.1 19.2-8 9.9-17 14.8-27 14.8h-2.8l-.2.2v-.2c-6.6 0-13.1-2.2-19.4-6.7-9.4-7.5-14.1-16.8-14.1-27.9 0-5.5 1.3-10.9 3.9-16.1.7-1.3 1.4-2.5 2.2-3.7.5-.6.9-1.2 1.4-1.8l.2-.2c.4-.4.8-.9 1.1-1.3.3-.3.5-.6.8-.8.2-.2.4-.4.6-.7l1.2-1.2c.1-.1.2-.2.3-.2.5-.5 1.1-.9 1.6-1.4 3.9-3.2 8.2-5.4 12.9-6.6h.1c.6-.1 1.2-.3 1.8-.4.1 0 .2 0 .2-.1.6-.1 1.1-.2 1.7-.3.1 0 .3 0 .4-.1.6-.1 1.1-.1 1.7-.1h.5c.7 0 1.4-.1 2.2-.1l1.7.2c4.6 0 10.2 1.6 16.8 4.8h1.2c1.4 0 2.4-1.1 3-3.3 0-.9-.3-1.8-.9-2.6-6.7-4.2-14-6.3-21.8-6.3H221.5c-.3 0-.5.1-.8.1-3.3.2-6.5.8-9.7 1.8-4 1.1-8.1 3.1-12.3 6.1l-.2.2c-.1 0-.1.1-.2.1-.3.2-.5.5-.8.7-1.1.9-2.1 1.8-3.1 2.7-3.2 3-5.1 5.1-5.6 6.5-.1.1-.1.2-.2.3h-.1V54.9c-.5-2.5-1.7-3.7-3.5-3.7-2.5.4-3.7 1.5-3.7 3.2v77.7c0 1.6 1.2 2.7 3.7 3.3 1.8 0 3-1.2 3.5-3.7v-15c9.2 12.5 20.8 18.7 34.8 18.7 9.5 0 18.3-3.1 26.3-9.4 10.4-9.2 15.7-19.7 15.7-31.3V3c0-1.6-1.2-2.6-3.5-3z"/></svg>