<svg data-name="Layer 1" xmlns="http://www.w3.org/2000/svg" viewBox="0 0 42 42"><path d="M21 2A19 19 0 1 1 2 21 19 19 0 0 1 21 2m0-2a21 21 0 1 0 21 21A21 21 0 0 0 21 0z"/><circle cx="21.01" cy="24.67" r="5.26" transform="rotate(-83.73 21.003 24.667)"/><path d="M28.11 7.5H28c-.33 0-.54.22-.61.69v16.66a6.37 6.37 0 0 1-6.11 6.28h-.48a6 6 0 0 1-3.57-1.24 6.36 6.36 0 0 1-2.61-5.15 6.55 6.55 0 0 1 .69-2.9 6.83 6.83 0 0 1 .44-.75l.26-.33.22-.26.13-.14.13-.14.21-.2.07-.06.23-.26a6.15 6.15 0 0 1 2-1.12l.35-.1.33-.07h1.63a7.44 7.44 0 0 1 3.11.89h.22q.39 0 .56-.61a.8.8 0 0 0-.17-.48 7.37 7.37 0 0 0-4-1.17h-.53a7.4 7.4 0 0 0-.91.12l-.24.05-.41.11a7 7 0 0 0-2.48 1.18 9.77 9.77 0 0 0-1.36 1.2 3.58 3.58 0 0 0-.34.41l-.17.23v-2.71c-.09-.46-.31-.69-.65-.69s-.69.28-.7.59v14.36c0 .3.22.5.69.61s.56-.22.65-.69V29a7.77 7.77 0 0 0 14.18-4V8.06c0-.3-.22-.49-.65-.56z"/></svg>