<?xml version="1.0" encoding="utf-8"?>
<!-- Generator: Adobe Illustrator 21.0.2, SVG Export Plug-In . SVG Version: 6.00 Build 0)  -->
<svg version="1.1" id="Layer_1" xmlns="http://www.w3.org/2000/svg" xmlns:xlink="http://www.w3.org/1999/xlink" x="0px" y="0px"
	 viewBox="0 0 264 48" style="enable-background:new 0 0 264 48;" xml:space="preserve">
<path style="fill:#1F1F1F;" d="M1.2,17.2c0-0.6,0.2-1.2,0.7-1.7c0.5-0.5,1-0.7,1.7-0.7s1.2,0.2,1.7,0.7c0.5,0.5,0.7,1,0.7,1.7v2.6
	c3.3-3.3,7.2-4.9,11.7-4.9c2.3,0,4.4,0.4,6.3,1.2c0.4,0.1,0.7,0.3,1,0.6c0.4,0.5,0.7,1,0.7,1.7s-0.2,1.2-0.7,1.7
	c-0.5,0.5-1,0.7-1.7,0.7c-0.4,0-0.7-0.1-1-0.2c-1.4-0.6-2.9-0.9-4.6-0.9c-3.2,0-6,1.1-8.3,3.4c-2.3,2.3-3.4,5-3.4,8.3v14.1
	c0,0.6-0.2,1.2-0.7,1.7c-0.5,0.5-1,0.7-1.7,0.7s-1.2-0.2-1.7-0.7c-0.5-0.5-0.7-1-0.7-1.7V17.2z"/>
<path style="fill:#80CBC4;" d="M62.1,31.2c0,4.5-1.6,8.4-4.8,11.6c-3.2,3.2-7.1,4.8-11.6,4.8c-4.5,0-8.4-1.6-11.6-4.8
	c-3.2-3.2-4.8-7.1-4.8-11.6s1.6-8.4,4.8-11.6c3.2-3.2,7.1-4.8,11.6-4.8c4.5,0,8.4,1.6,11.6,4.8C60.5,22.8,62.1,26.7,62.1,31.2z
	 M45.7,19.5c-3.2,0-6,1.1-8.3,3.4c-2.3,2.3-3.4,5-3.4,8.3s1.1,6,3.4,8.3c2.3,2.3,5,3.4,8.3,3.4c3.2,0,6-1.1,8.3-3.4s3.4-5,3.4-8.3
	s-1.1-6-3.4-8.3S49,19.5,45.7,19.5z"/>
<path style="fill:#80CBC4;" d="M99.6,31.2c0,4.5-1.6,8.4-4.8,11.6c-3.2,3.2-7.1,4.8-11.6,4.8c-4.5,0-8.4-1.6-11.6-4.8
	c-3.2-3.2-4.8-7.1-4.8-11.6s1.6-8.4,4.8-11.6c3.2-3.2,7.1-4.8,11.6-4.8c4.5,0,8.4,1.6,11.6,4.8C98,22.8,99.6,26.7,99.6,31.2z
	 M83.2,19.5c-3.2,0-6,1.1-8.3,3.4s-3.4,5-3.4,8.3s1.1,6,3.4,8.3s5,3.4,8.3,3.4c3.2,0,6-1.1,8.3-3.4s3.4-5,3.4-8.3s-1.1-6-3.4-8.3
	S86.5,19.5,83.2,19.5z"/>
<path style="fill:#1F1F1F;" d="M109,45.3c0,0.6-0.2,1.2-0.7,1.7c-0.5,0.5-1,0.7-1.7,0.7s-1.2-0.2-1.7-0.7c-0.5-0.5-0.7-1-0.7-1.7
	V17.2c0-0.6,0.2-1.2,0.7-1.7c0.5-0.5,1-0.7,1.7-0.7s1.2,0.2,1.7,0.7c0.5,0.5,0.7,1,0.7,1.7v0.6c2.3-2,5.1-3,8.2-3
	c3.6,0,6.6,1.3,9.1,3.8c0.5,0.5,1,1.1,1.4,1.7c0.4-0.6,0.9-1.1,1.4-1.7c2.5-2.5,5.6-3.8,9.1-3.8c3.6,0,6.6,1.3,9.1,3.8
	s3.8,5.6,3.8,9.1v17.6c0,0.6-0.2,1.2-0.7,1.7c-0.5,0.5-1,0.7-1.7,0.7s-1.2-0.2-1.7-0.7c-0.5-0.5-0.7-1-0.7-1.7V27.7
	c0-2.3-0.8-4.2-2.4-5.8c-1.6-1.6-3.5-2.4-5.8-2.4c-2.3,0-4.2,0.8-5.8,2.4c-1.6,1.6-2.4,3.5-2.4,5.8v17.6c0,0.6-0.2,1.2-0.7,1.7
	c-0.5,0.5-1,0.7-1.7,0.7s-1.2-0.2-1.7-0.7c-0.5-0.5-0.7-1-0.7-1.7V27.7c0-2.3-0.8-4.2-2.4-5.8c-1.6-1.6-3.5-2.4-5.8-2.4
	c-2.3,0-4.2,0.8-5.8,2.4c-1.6,1.6-2.4,3.5-2.4,5.8V45.3z"/>
<path style="fill:#1F1F1F;" d="M184,3c0-0.6,0.2-1.2,0.7-1.7c0.5-0.5,1-0.7,1.7-0.7s1.2,0.2,1.7,0.7c0.5,0.5,0.7,1,0.7,1.7v28.2
	c0,4.5-1.6,8.4-4.8,11.6c-3.2,3.2-7.1,4.8-11.6,4.8c-4.5,0-8.4-1.6-11.6-4.8c-3.2-3.2-4.8-7.1-4.8-11.6s1.6-8.4,4.8-11.6
	c3.2-3.2,7.1-4.8,11.6-4.8c4.5,0,8.4,1.6,11.6,4.8c0,0,0.1,0.1,0.1,0.1V3z M184,31.2c0-3.2-1.1-6-3.4-8.3s-5-3.4-8.3-3.4
	c-3.2,0-6,1.1-8.3,3.4s-3.4,5-3.4,8.3s1.1,6,3.4,8.3s5,3.4,8.3,3.4c3.2,0,6-1.1,8.3-3.4S184,34.5,184,31.2z"/>
<path style="fill:#1F1F1F;" d="M221.5,42.7c-3.3,3.3-7.2,4.9-11.7,4.9c-4.5,0-8.4-1.6-11.6-4.8c-3.2-3.2-4.8-7.1-4.8-11.6
	s1.6-8.4,4.8-11.6c3.2-3.2,7.1-4.8,11.6-4.8c4.5,0,8.4,1.6,11.6,4.8c3.2,3.2,4.8,7.1,4.8,11.6v14.1c0,0.6-0.2,1.2-0.7,1.7
	c-0.5,0.5-1,0.7-1.7,0.7s-1.2-0.2-1.7-0.7c-0.5-0.5-0.7-1-0.7-1.7V42.7z M209.8,19.5c-3.2,0-6,1.1-8.3,3.4s-3.4,5-3.4,8.3
	s1.1,6,3.4,8.3s5,3.4,8.3,3.4c3.2,0,6-1.1,8.3-3.4s3.4-5,3.4-8.3s-1.1-6-3.4-8.3S213,19.5,209.8,19.5z"/>
<path style="fill:#80CBC4;" d="M263.7,31.2c0,4.5-1.6,8.4-4.8,11.6c-3.2,3.2-7.1,4.8-11.6,4.8c-4.5,0-8.4-1.6-11.6-4.8
	c-3.2-3.2-4.8-7.1-4.8-11.6s1.6-8.4,4.8-11.6c3.2-3.2,7.1-4.8,11.6-4.8c4.5,0,8.4,1.6,11.6,4.8C262.1,22.8,263.7,26.7,263.7,31.2z
	 M247.3,19.5c-3.2,0-6,1.1-8.3,3.4s-3.4,5-3.4,8.3s1.1,6,3.4,8.3s5,3.4,8.3,3.4c3.2,0,6-1.1,8.3-3.4s3.4-5,3.4-8.3s-1.1-6-3.4-8.3
	S250.5,19.5,247.3,19.5z"/>
</svg>
