<svg id="Layer_1" xmlns="http://www.w3.org/2000/svg" viewBox="0 0 489.6 489.6"><style>.st1{fill:#202020}</style><path fill="#88cdc8" d="M43 338.6h406.1v66.5H43z"/><path class="st1" d="M244.9 438.9c-5 0-9.1 4.1-9.1 9.1v23.4h-78.3c-5 0-9.1 4.1-9.1 9.1s4.1 9.1 9.1 9.1h174.8c5 0 9.1-4.1 9.1-9.1s-4.1-9.1-9.1-9.1H254V448c-.1-5.1-4.1-9.1-9.1-9.1zM53.3 414.1h383.1c12.1 0 21.9-9.8 21.9-21.9V128.5c0-12.1-9.8-21.9-21.9-21.9H329.2c-5 0-9.1 4.1-9.1 9.1s4.1 9.1 9.1 9.1h107.2c2.1 0 3.8 1.7 3.8 3.8v263.8c0 2.1-1.7 3.8-3.8 3.8H53.3c-2.1 0-3.8-1.7-3.8-3.8v-43.9h361.4c5 0 9.1-4.1 9.1-9.1s-4.1-9.1-9.1-9.1h-45.7c-3.8-26.3-26.5-46.6-53.8-46.6-5 0-9.1 4.1-9.1 9.1s4.1 9.1 9.1 9.1c17.3 0 31.8 12.2 35.4 28.4h-41.4c-3.5-27.9-25.7-50.1-53.6-53.7v-63.1c0-5-4.1-9.1-9.1-9.1s-9.1 4.1-9.1 9.1V277c-26.8 4.5-47.8 26.2-51.3 53.3h-41.6c3.6-16.2 18.1-28.4 35.4-28.4 5 0 9.1-4.1 9.1-9.1s-4.1-9.1-9.1-9.1c-27.3 0-50 20.3-53.8 46.6H44.8c-1.3-.7-2.8-1.2-4.4-1.2-5 0-9.1 4.1-9.1 9.1v54.1c.2 12 10 21.8 22 21.8zm190.6-120c21.5 0 39.5 15.6 43.2 36.1h-86.3c3.6-20.5 21.6-36.1 43.1-36.1zM40.5 310.5c5 0 9.1-4.1 9.1-9.1v-173c0-2.1 1.7-3.8 3.8-3.8h107.5c5 0 9.1-4.1 9.1-9.1s-4.1-9.1-9.1-9.1H53.3c-12.1 0-21.9 9.8-21.9 21.9v173c.1 5.2 4.1 9.2 9.1 9.2z"/><circle class="st1" cx="244.1" cy="373.4" r="10.5"/><path class="st1" d="M163.8 227.7c0 5 4.1 9.1 9.1 9.1h18.6v21c0 5 4.1 9.1 9.1 9.1s9.1-4.1 9.1-9.1v-21h1.2c5 0 9.1-4.1 9.1-9.1s-4.1-9.1-9.1-9.1h-29v-10.1c0-3.4 1-6.7 3-9.5l16.4-23.5c3.9-5.6 6-12.2 6-19.1V77.7c0-7.4 2.7-14.6 7.5-20.2L244.3 23l29.6 34.4c4.9 5.7 7.6 12.9 7.6 20.3v79.2c0 6.3 1.8 12.5 5.2 17.9l15.3 24.1c1.7 2.7 2.6 5.7 2.6 8.9v10.7h-27.5c-5 0-9.1 4.1-9.1 9.1 0 4.7 3.5 8.4 8 9v21.1c0 5 4.1 9.1 9.1 9.1s9.1-4.1 9.1-9.1v-21h19.4c5 0 9.1-4.1 9.1-9.1v-19.8c0-6.6-1.9-13-5.4-18.6L302 165.1c-1.6-2.5-2.4-5.3-2.4-8.2V77.8c0-11.8-4.3-23.2-12-32.2L251 3.1c-1.7-2-4.2-3.1-6.9-3.1-2.6 0-5.2 1.2-6.9 3.2l-36.3 42.5c-7.6 8.9-11.8 20.3-11.8 32v78.8c0 3.1-.9 6.2-2.7 8.7L170 188.7c-4.1 5.9-6.2 12.7-6.2 19.9v19.1z"/></svg>