<svg id="Layer_1" xmlns="http://www.w3.org/2000/svg" viewBox="0 0 489.4 489.4"><style>.st1{fill:#202020}</style><g id="XMLID_307_"><path id="XMLID_308_" d="M297.7 372.6c-70.7 29.3-151.8-4.3-181.1-75s4.3-151.8 75-181.1 151.8 4.3 181.1 75-4.3 151.8-75 181.1z" fill="#88cdc8"/></g><path class="st1" d="M432.9 99c1.7-1.7 2.6-4 2.6-6.4l-.6-49.3c-.1-5-4.2-9-9.2-9-5 .1-9 4.2-9 9.2l.3 27.4-1.3-1.3c-96.5-94.3-251.7-92.5-346 4-32.7 33.5-55 75.3-64.5 120.9-9.2 44.4-6.1 90.4 9.2 132.9 1.3 3.7 4.8 6 8.5 6 1 0 2.1-.2 3.1-.5 4.7-1.7 7.2-6.9 5.5-11.6-29.6-82.4-9.9-172.5 51.2-235C170-3 313.7-4.7 403 82.6l1.4 1.4-27.4.3c-5 .1-9 4.2-9 9.2.1 5 4.1 9 9.1 9h.1l49.3-.6c2.4-.2 4.7-1.1 6.4-2.9zM475 161.7c-1.7-4.7-6.9-7.2-11.6-5.5s-7.2 6.9-5.5 11.6c29.6 82.4 9.9 172.5-51.2 235-42.3 43.3-98.9 67.5-159.4 68.2-60.6.8-117.7-22.2-160.9-64.4l-1.4-1.4 27.4-.3c5-.1 9-4.2 9-9.2-.1-5-4.1-9.1-9.2-9l-49.3.6c-5 .1-9 4.2-9 9.2l.6 49.3c.1 5 4.1 9 9.1 9h.1c5-.1 9-4.2 9-9.2l-.3-27.4 1.4 1.4c46.1 45 106.6 69.7 170.9 69.7h2.9c65.3-.8 126.5-26.9 172.2-73.6 32.7-33.5 55-75.3 64.5-120.9 9.1-44.5 6-90.5-9.3-133.1z"/><path class="st1" d="M244.6 96.9c-19.4 0-38.4 3.8-56.4 11.3-36.4 15.1-64.8 43.5-79.9 79.9s-15.1 76.6 0 113c22.9 55.4 76.5 91.2 136.5 91.2 19.4 0 38.4-3.8 56.4-11.3 75.2-31.1 111.1-117.7 79.9-192.9-22.9-55.4-76.5-91.2-136.5-91.2zm113.8 85.6h-29.9c-5.9-21.6-14.8-40-25.9-53.9 23.3 11.6 42.9 30.3 55.8 53.9zM122.9 288.4c-10.3-28.5-10.3-59.3 0-87.8h41.2c-2.5 13.7-3.8 28.5-3.8 43.9 0 15.3 1.5 30 4.1 43.9h-41.5zm55.5-43.9c0-15.5 1.5-30.3 4.1-43.9h56.7v87.8H183c-2.9-13.8-4.6-28.6-4.6-43.9zm79-125.9c22.8 5.1 41.8 29.4 52.2 64h-52.2v-64zm-18.1 0v63.9h-52.2c10.4-34.5 29.4-58.8 52.2-63.9zm0 188v63.8c-21.4-5.6-40.4-30.3-51.3-63.8h51.3zm18.1 63.8v-63.8h51.3c-10.9 33.5-29.9 58.2-51.3 63.8zm0-82v-87.8h56.7c2.7 13.6 4.1 28.4 4.1 43.9 0 15.3-1.7 30.1-4.7 43.9h-56.1zm75.2-87.8h34c10.6 29.3 9.9 60.3-.1 87.8h-34.3c2.7-13.9 4.1-28.6 4.1-43.9 0-15.4-1.3-30.1-3.7-43.9zm-137.4-75.7c1-.4 2.1-.8 3.1-1.2-13.1 14.4-23.5 34.7-30.1 58.9H131c14.1-26 36.5-46.3 64.2-57.7zM131 306.6h37.7c7 24.5 18.1 45.1 31.8 59.8-29.4-10.7-54.2-31.7-69.5-59.8zm169.4 54.9c11.7-14.2 21.2-33.1 27.5-54.9h30.4c-12.7 23.2-32.5 42.8-57.9 54.9z"/></svg>