<?xml version="1.0" encoding="utf-8"?>
<!-- Generator: Adobe Illustrator 21.1.0, SVG Export Plug-In . SVG Version: 6.00 Build 0)  -->
<svg version="1.1" id="Layer_1" xmlns="http://www.w3.org/2000/svg" xmlns:xlink="http://www.w3.org/1999/xlink" x="0px" y="0px"
	 viewBox="0 0 320 124" style="enable-background:new 0 0 320 124;" xml:space="preserve">
<style type="text/css">
	.st0{fill:#4B56A5;}
	.st1{fill:#FFFFFF;}
</style>
<rect class="st0" width="320" height="124"/>
<g>
	<path class="st1" d="M20,104h84V20H20V104z M22.8,22.8H101V101H22.8V22.8z"/>
	<rect x="34" y="49.4" class="st1" width="2.8" height="25.2"/>
	<path class="st1" d="M54,72c-5.6,0-10.2-4.6-10.2-10c0-5.6,4.6-10,10.2-10c2.8,0,5.6,1.2,7.4,3.2l1.8-2c-2.4-2.2-5.8-3.6-9.2-3.6
		c-7.4,0-13.2,5.6-13.2,12.6c0,7.2,5.8,12.8,13,12.8c3.4,0,6.8-1.4,9.4-3.8l-1.8-2C59.4,70.8,56.8,72,54,72z"/>
	<path class="st1" d="M76.8,49.4c-7.4,0-13.2,5.6-13.2,12.6s5.8,12.8,13.2,12.8S90,69.2,90,62S84.2,49.4,76.8,49.4z M76.8,72
		c-5.6,0-10.2-4.6-10.2-10c0-5.6,4.6-10,10.2-10C82.4,52,87,56.4,87,62C87.2,67.6,82.4,72,76.8,72z"/>
	<path class="st1" d="M136,50.4c-4.4,0-7.8,1.8-10.2,4.8V38h-11.4v47.8h11.4v-4.6c2.4,3.2,6,4.8,10.4,4.8c9.6,0,16-7,16-17.6
		C152.2,57.6,145.8,50.4,136,50.4z M133.2,76.8c-4.4,0-7.4-3.4-7.4-8.6c0-5.2,3-8.6,7.4-8.6c4.6,0,7.6,3.6,7.6,8.6
		C140.8,73.4,137.6,76.8,133.2,76.8z"/>
	<path class="st1" d="M172.2,50.4c-10.8,0-18.2,7.2-18.2,18C154,79,161,86,172.4,86c6.4,0,11.6-2.2,15.2-6.2l-6-6
		c-2.4,2.4-5.2,3.6-8.2,3.6c-4,0-6.8-2.2-8-6.2h24.2C190.4,58.6,184.4,50.4,172.2,50.4z M165.2,65.2c0.8-4,3.2-6.6,7-6.6
		s6.4,2.8,6.4,6.6H165.2z"/>
	<path class="st1" d="M214.6,50.4c-5,0-9,2.2-11.6,6.2V51h-11.4v34.8H203V67.4c0.4-4,3-6.6,6.8-6.6c3.6,0,6,2.4,6,6.4v18.6h11.4v-22
		C227.2,55.6,222,50.4,214.6,50.4z"/>
	<path class="st1" d="M247.4,76.8c-4.2,0-7-3.4-7-8.4s2.8-8.4,7-8.4c3,0,5.2,1.4,6.8,3.6l8.2-4.8c-3-5.2-8.6-8.2-15.6-8.2
		c-10.8,0-18,7.2-18,18c0,10.6,7.2,17.6,17.8,17.6c7.4,0,13-3,15.8-8.4L254,73C252.8,75.6,250.4,76.8,247.4,76.8z"/>
	<path class="st1" d="M287.4,50.4c-5,0-9,2.2-11.6,6.2V38h-11.4v47.8h11.4V68.6c0-4.6,2.6-7.8,6.8-7.8c3.6,0,6,2.4,6,6.4v18.6H300
		v-22C300,55.6,295,50.4,287.4,50.4z"/>
</g>
</svg>
