<?xml version="1.0" encoding="utf-8"?>
<!-- Generator: Adobe Illustrator 21.0.0, SVG Export Plug-In . SVG Version: 6.00 Build 0)  -->
<svg version="1.1" id="Слой_1" xmlns="http://www.w3.org/2000/svg" xmlns:xlink="http://www.w3.org/1999/xlink" x="0px" y="0px"
	 viewBox="0 0 125 125" style="enable-background:new 0 0 125 125;" xml:space="preserve">
<style type="text/css">
	.st0{fill:#3B4C85;stroke:#5467A6;stroke-width:8;stroke-miterlimit:10;}
	.st1{fill:#FFFFFF;}
	.st2{fill:#5467A6;}
	.st3{enable-background:new    ;}
</style>
<rect x="4" y="4" class="st0" width="117" height="117"/>
<g id="ICOmarks">
	<g id="IC">
		<path class="st1" d="M21.6,107.9h-3.1V94.1h3.1V107.9z"/>
		<path class="st1" d="M29.4,107.9c-0.9,0-1.8-0.2-2.6-0.5c-0.8-0.3-1.6-0.8-2.2-1.5c-0.7-0.7-1.1-1.4-1.5-2.2
			c-0.3-0.8-0.5-1.7-0.5-2.6s0.2-1.8,0.5-2.7c0.3-0.8,0.8-1.6,1.5-2.2c0.7-0.7,1.4-1.2,2.3-1.5s1.7-0.5,2.6-0.5s1.8,0.2,2.6,0.5
			c0.8,0.3,1.6,0.8,2.2,1.5L32,98.4c-0.4-0.4-0.8-0.6-1.3-0.8c-0.4-0.2-0.9-0.2-1.4-0.2c-0.4,0-0.9,0.1-1.4,0.2
			c-0.4,0.2-0.9,0.4-1.2,0.8c-0.3,0.4-0.6,0.8-0.8,1.2c-0.2,0.4-0.3,0.9-0.3,1.4s0.1,1,0.3,1.4c0.2,0.4,0.4,0.9,0.8,1.2
			c0.4,0.4,0.8,0.6,1.2,0.8c0.4,0.2,0.9,0.2,1.4,0.2c0.4,0,0.9-0.1,1.4-0.2c0.4-0.2,0.9-0.4,1.3-0.8l2.2,2.2
			c-0.7,0.7-1.4,1.2-2.2,1.5C31.2,107.7,30.3,107.9,29.4,107.9z"/>
	</g>
	<g id="marks">
		<path class="st1" d="M64.6,95.1c1.3,0,2.4,0.4,3.3,1.2c0.8,0.8,1.3,2,1.3,3.6v6.3h-1.1v-6.3c0-1.2-0.4-2.1-0.9-2.8
			c-0.6-0.6-1.5-0.9-2.7-0.9c-0.7,0-1.3,0.2-2,0.4c-0.6,0.3-1.2,0.8-1.7,1.6C61,98.7,61,99.3,61,100v6.2h-1.1V100
			c0-2.5-1.2-3.8-3.7-3.8c-1.4,0-2.5,0.6-3.4,1.8v8.3h-1.1V95.5h0.9l0.2,1.1c1-1,2.2-1.5,3.6-1.5c1.8,0,3.1,0.7,4,2.2
			c0.6-0.7,1.3-1.3,1.9-1.6C62.8,95.3,63.7,95.1,64.6,95.1z"/>
		<path class="st1" d="M70.9,103.2c0-0.7,0.1-1.3,0.3-1.8c0.2-0.5,0.6-0.9,1.1-1.2c0.4-0.3,1-0.5,1.5-0.7c0.6-0.2,1.2-0.2,1.8-0.2
			c0.9,0,1.7,0.2,2.4,0.6c0.7,0.4,1.3,0.7,1.7,1.3v-0.4c0-1.5-0.3-2.6-0.9-3.4c-0.6-0.7-1.5-1.1-2.8-1.1c-0.7,0-1.5,0.2-2.2,0.4
			c-0.7,0.3-1.3,0.7-1.7,1.2L71.5,97c0.5-0.6,1.2-1,2-1.3s1.6-0.4,2.5-0.4c1.6,0,2.8,0.4,3.6,1.3c0.8,0.9,1.2,2.2,1.2,4v5.7h-0.9
			l-0.2-1.1c-0.4,0.4-1,0.7-1.8,1s-1.5,0.4-2.2,0.4c-1.4,0-2.5-0.2-3.4-0.8C71.5,105.2,71,104.3,70.9,103.2z M79.7,104.2v-1.7
			c-0.2-0.5-0.8-1-1.5-1.5c-0.7-0.4-1.6-0.7-2.5-0.7c-0.4,0-0.9,0-1.3,0.1s-0.8,0.2-1.2,0.4c-0.4,0.2-0.7,0.5-0.9,0.9
			c-0.2,0.4-0.3,0.9-0.2,1.4c0,0.8,0.4,1.4,1.1,1.8s1.5,0.6,2.5,0.7c0.7,0,1.5-0.1,2.2-0.4C78.6,105,79.2,104.7,79.7,104.2z"/>
		<path class="st1" d="M88.2,95.2L88,96.3c-0.1,0-0.2,0-0.4,0c-1.7,0-2.9,0.6-3.7,1.7v8.2h-1.1V95.5h0.9l0.2,1.1
			c1-1,2.3-1.5,3.8-1.5C87.8,95.2,88,95.2,88.2,95.2z"/>
		<path class="st1" d="M91,90.2v16.1h-1.1V90.2H91z M98.3,95.5l-5.2,5.3l5.4,5.3h-1.6l-5.3-5.3l5.2-5.3H98.3z"/>
		<path class="st1" d="M107.9,96.2l-0.5,0.9c-0.3-0.3-0.8-0.5-1.5-0.8c-0.7-0.2-1.3-0.4-2-0.4s-1.3,0.2-1.8,0.4
			c-0.4,0.3-0.7,0.7-0.7,1.3c0,0.7,0.2,1.1,0.8,1.5c0.5,0.3,1.2,0.5,2,0.7c1.1,0.2,2,0.4,2.6,0.7c0.7,0.3,1.1,0.7,1.4,1.3
			c0.2,0.6,0.3,1.2,0.2,2c-0.2,0.9-0.7,1.6-1.7,2c-0.7,0.3-1.5,0.4-2.5,0.4c-0.8,0-1.7-0.2-2.5-0.4c-0.8-0.3-1.5-0.7-2-1.1l0.5-0.9
			l0.1,0.1c0.3,0.3,0.9,0.7,1.6,0.9c0.7,0.3,1.5,0.4,2.2,0.4c0.9,0,1.6-0.1,2.1-0.4s0.9-0.7,1-1.3c0.2-0.9-0.1-1.6-1-2
			c-0.6-0.2-1.3-0.4-2.2-0.7c-1.1-0.2-2-0.5-2.5-0.8c-1-0.6-1.4-1.4-1.3-2.4s0.5-1.7,1.3-2.2c0.6-0.4,1.4-0.6,2.4-0.6
			C105.4,95,106.7,95.4,107.9,96.2z"/>
	</g>
	<path id="logo" class="st1" d="M41.3,94c-3.8,0-6.9,3.1-6.9,6.9s3.1,6.9,6.9,6.9s6.9-3.1,6.9-6.9S45.1,94,41.3,94z M44.6,101.8
		l0.6,3.5v0.1c0,0.1,0,0.2-0.1,0.2c0,0.1-0.1,0.1-0.2,0.1c-0.1,0-0.2,0-0.3-0.1l-3.1-1.6l-3.1,1.7c-0.1,0-0.2,0.1-0.3,0.1
		s-0.2,0-0.2-0.1s-0.1-0.2-0.1-0.2v-0.1l0.6-3.6l-2.6-2.5c-0.1-0.1-0.2-0.2-0.2-0.3c0-0.2,0.1-0.3,0.4-0.3l3.6-0.5l1.6-3.2
		c0.1-0.2,0.2-0.3,0.3-0.3s0.2,0.1,0.3,0.3l1.6,3.2l3.6,0.5c0.2,0,0.4,0.2,0.4,0.3c0,0.1,0,0.2-0.2,0.3L44.6,101.8z"/>
</g>
<g>
	<path class="st2" d="M63,17.6c18.4,0,33.4,15,33.4,33.4S81.4,84.4,63,84.4S29.6,69.4,29.6,51S44.6,17.6,63,17.6 M63,16.1
		c-19.3,0-34.9,15.6-34.9,34.9S43.7,85.9,63,85.9S97.9,70.3,97.9,51S82.3,16.1,63,16.1L63,16.1z"/>
</g>
<g class="st3">
	
	
	
	
	
	
	
	<path class="st1 major-digit7_" d="M40.4,62.8l8.7-19.7h-11v-5.7h18.4v4.1l-9,21.4H40.4z"/>
	
	
    
	<path class="st1 dot-digit" d="M59.2,59.9c0-1.1,0.3-1.9,0.9-2.5c0.6-0.6,1.6-0.9,2.8-0.9c1.1,0,2,0.3,2.6,0.9c0.6,0.6,0.9,1.4,0.9,2.5 c0,1-0.3,1.9-0.9,2.4c-0.6,0.6-1.5,0.9-2.6,0.9c-1.1,0-2.1-0.3-2.7-0.9S59.2,61,59.2,59.9z"/>
	
	
	
	<path class="st1 minor-digit3_" d="M86.7,42.9c0,1.6-0.5,2.9-1.4,4.1c-1,1.1-2.4,2-4.2,2.5v0.1c4.3,0.5,6.4,2.5,6.4,6c0,2.4-0.9,4.2-2.8,5.6 c-1.9,1.4-4.5,2-7.8,2c-1.4,0-2.6-0.1-3.8-0.3c-1.2-0.2-2.4-0.6-3.8-1.1v-5.7c1.1,0.6,2.3,1,3.4,1.3c1.2,0.3,2.2,0.4,3.2,0.4 c1.5,0,2.6-0.2,3.3-0.6c0.7-0.4,1-1.1,1-2c0-0.7-0.2-1.2-0.5-1.6c-0.4-0.4-0.9-0.7-1.7-0.9c-0.8-0.2-1.8-0.3-3.1-0.3h-1.6v-5.2h1.6 c3.5,0,5.2-0.9,5.2-2.7c0-0.7-0.3-1.2-0.8-1.5s-1.2-0.5-2.1-0.5c-1.6,0-3.3,0.5-5.1,1.6l-2.9-4.6c1.3-0.9,2.7-1.6,4.1-2 s3-0.6,4.9-0.6c2.6,0,4.7,0.5,6.2,1.6C85.9,39.6,86.7,41,86.7,42.9z"/>
	
	
	
	
	
	
	
</g>
<g id="part1"><path class="st1" d="M83.5,22.7L82.6,24c-5.5-4-12.3-6.4-19.6-6.4V16c0.4,0,0.7,0,1.1,0c0.1,0,0.2,0,0.3,0c5.7,0.2,11.1,1.7,16,4.6 c0.4,0.2,0.8,0.5,1.3,0.8h0.1c0.3,0.2,0.6,0.4,0.8,0.6C82.9,22.3,83.2,22.5,83.5,22.7z"/></g>
<g id="part2"><path class="st1" d="M96.2,40.2l-1.5,0.5c-2.2-6.7-6.5-12.5-12.1-16.6l0.9-1.3c0.3,0.2,0.7,0.5,1,0.8c0.2,0.2,0.4,0.3,0.7,0.5 c4.6,3.7,8.1,8.5,10.3,14.1c0.1,0.3,0.2,0.5,0.3,0.8c0,0.1,0.1,0.2,0.1,0.3C96,39.6,96.1,39.9,96.2,40.2z"/></g>
<g id="part3"><path class="st1" d="M96.6,60.6c-0.1,0.4-0.2,0.8-0.4,1.2l-1.5-0.5c1.1-3.2,1.6-6.7,1.6-10.3s-0.6-7-1.6-10.3l1.5-0.5 c0.1,0.3,0.2,0.6,0.3,1c0,0.1,0,0.2,0.1,0.2C98.5,47.7,98.5,54.2,96.6,60.6z"/></g>
<g id="part4"><path class="st1" d="M96.2,61.8c-0.1,0.3-0.2,0.5-0.3,0.8l0,0l0,0l0,0l0,0l0,0l0,0c-0.1,0.3-0.2,0.7-0.4,1 c-2.1,5.5-5.5,10.3-10.2,14.1c-0.2,0.2-0.4,0.4-0.7,0.5l-0.1,0.1c-0.3,0.2-0.6,0.4-0.9,0.7l0,0l-1-1c5.6-4.1,9.9-9.9,12.1-16.6 L96.2,61.8z"/></g>
<g id="part5"><path class="st1" d="M83.5,79.3c-0.3,0.2-0.7,0.5-1,0.7s-0.6,0.4-0.8,0.6l0,0c-0.4,0.3-0.8,0.5-1.2,0.7c-4.8,2.8-10.1,4.4-15.9,4.6 c-0.2,0-0.4,0-0.7,0s-0.5,0-0.8,0v-1.6c7.3,0,14.1-2.4,19.5-6.4L83.5,79.3L83.5,79.3z"/></g>
<g id="part6"><path class="st1" d="M63,84.4V86c-0.3,0-0.6,0-1,0c-0.1,0-0.3,0-0.4,0c-5.6-0.2-11-1.6-15.8-4.5c-0.4-0.2-0.8-0.5-1.2-0.7 c0,0-0.1,0-0.1-0.1c-0.3-0.2-0.5-0.3-0.8-0.5c-0.4-0.3-0.8-0.5-1.1-0.8l0.9-1.3C48.9,82,55.7,84.4,63,84.4z"/></g>
<g id="part7"><path class="st1" d="M43.4,78l-0.9,1.3c-0.3-0.2-0.7-0.5-1-0.8c-0.2-0.2-0.4-0.3-0.7-0.5c-4.9-3.9-8.4-8.9-10.6-14.9 c0-0.1-0.1-0.2-0.1-0.3c-0.1-0.3-0.2-0.6-0.3-0.9l1.5-0.5C33.5,68.1,37.8,73.9,43.4,78z"/></g>



</svg>
